<svg width="1024" height="753" viewBox="0 0 1024 753" fill="none" xmlns="http://www.w3.org/2000/svg">
<g clip-path="url(#clip0_175_1884)">
<rect width="1024" height="753" fill="#121214"/>
<g opacity="0.2" filter="url(#filter0_f_175_1884)">
<ellipse cx="512.5" cy="34" rx="670.5" ry="350" fill="#338AF3"/>
</g>
<g opacity="0.6">
<path d="M493.93 384C495.356 384 496.436 384.605 497.17 385.815C497.916 387.011 498.29 388.753 498.29 391.04C498.29 393.327 497.916 395.075 497.17 396.285C496.436 397.495 495.356 398.1 493.93 398.1C492.517 398.1 491.437 397.495 490.69 396.285C489.943 395.075 489.57 393.327 489.57 391.04C489.57 388.767 489.943 387.025 490.69 385.815C491.437 384.605 492.517 384 493.93 384ZM490.99 391.04C490.99 392.662 491.137 393.932 491.43 394.849L495.87 386.014C495.403 385.389 494.756 385.077 493.93 385.077C493.01 385.077 492.29 385.569 491.77 386.553C491.25 387.523 490.99 389.019 490.99 391.04ZM493.93 397.003C494.863 397.003 495.59 396.518 496.11 395.547C496.63 394.564 496.89 393.061 496.89 391.04C496.89 389.325 496.723 387.995 496.39 387.051L491.95 395.966C492.43 396.658 493.09 397.003 493.93 397.003Z" fill="url(#paint0_linear_175_1884)"/>
<path d="M495.13 419.637H498.07V420.694H490.45V419.637H493.85V408.428L490.61 410.363L490.05 409.465L494.05 406.992H495.13V419.637Z" fill="url(#paint1_linear_175_1884)"/>
<path d="M493.93 429.586C495.356 429.586 496.436 430.191 497.17 431.4C497.916 432.597 498.29 434.339 498.29 436.626C498.29 438.913 497.916 440.661 497.17 441.871C496.436 443.081 495.356 443.686 493.93 443.686C492.517 443.686 491.437 443.081 490.69 441.871C489.943 440.661 489.57 438.913 489.57 436.626C489.57 434.352 489.943 432.61 490.69 431.4C491.437 430.191 492.517 429.586 493.93 429.586ZM490.99 436.626C490.99 438.248 491.137 439.518 491.43 440.435L495.87 431.6C495.403 430.975 494.756 430.663 493.93 430.663C493.01 430.663 492.29 431.155 491.77 432.138C491.25 433.109 490.99 434.605 490.99 436.626ZM493.93 442.589C494.863 442.589 495.59 442.104 496.11 441.133C496.63 440.149 496.89 438.647 496.89 436.626C496.89 434.911 496.723 433.581 496.39 432.637L491.95 441.552C492.43 442.243 493.09 442.589 493.93 442.589Z" fill="url(#paint2_linear_175_1884)"/>
<path d="M495.13 465.222H498.07V466.279H490.45V465.222H493.85V454.014L490.61 455.948L490.05 455.051L494.05 452.578H495.13V465.222Z" fill="url(#paint3_linear_175_1884)"/>
<path d="M495.13 488.015H498.07V489.072H490.45V488.015H493.85V476.807L490.61 478.741L490.05 477.844L494.05 475.371H495.13V488.015Z" fill="url(#paint4_linear_175_1884)"/>
<path d="M493.93 497.964C495.356 497.964 496.436 498.569 497.17 499.779C497.916 500.976 498.29 502.717 498.29 505.004C498.29 507.291 497.916 509.039 497.17 510.249C496.436 511.459 495.356 512.064 493.93 512.064C492.517 512.064 491.437 511.459 490.69 510.249C489.943 509.039 489.57 507.291 489.57 505.004C489.57 502.731 489.943 500.989 490.69 499.779C491.437 498.569 492.517 497.964 493.93 497.964ZM490.99 505.004C490.99 506.626 491.137 507.896 491.43 508.813L495.87 499.978C495.403 499.353 494.756 499.041 493.93 499.041C493.01 499.041 492.29 499.533 491.77 500.517C491.25 501.487 490.99 502.983 490.99 505.004ZM493.93 510.967C494.863 510.967 495.59 510.482 496.11 509.511C496.63 508.528 496.89 507.025 496.89 505.004C496.89 503.289 496.723 501.959 496.39 501.015L491.95 509.93C492.43 510.622 493.09 510.967 493.93 510.967Z" fill="url(#paint5_linear_175_1884)"/>
<path d="M495.13 533.601H498.07V534.658H490.45V533.601H493.85V522.392L490.61 524.327L490.05 523.429L494.05 520.956H495.13V533.601Z" fill="url(#paint6_linear_175_1884)"/>
<path d="M493.93 543.55C495.356 543.55 496.436 544.155 497.17 545.365C497.916 546.561 498.29 548.303 498.29 550.59C498.29 552.877 497.916 554.625 497.17 555.835C496.436 557.045 495.356 557.65 493.93 557.65C492.517 557.65 491.437 557.045 490.69 555.835C489.943 554.625 489.57 552.877 489.57 550.59C489.57 548.316 489.943 546.574 490.69 545.365C491.437 544.155 492.517 543.55 493.93 543.55ZM490.99 550.59C490.99 552.212 491.137 553.482 491.43 554.399L495.87 545.564C495.403 544.939 494.756 544.627 493.93 544.627C493.01 544.627 492.29 545.119 491.77 546.102C491.25 547.073 490.99 548.569 490.99 550.59ZM493.93 556.553C494.863 556.553 495.59 556.068 496.11 555.097C496.63 554.113 496.89 552.611 496.89 550.59C496.89 548.875 496.723 547.545 496.39 546.601L491.95 555.516C492.43 556.207 493.09 556.553 493.93 556.553Z" fill="url(#paint7_linear_175_1884)"/>
<path d="M493.93 566.342C495.356 566.342 496.436 566.947 497.17 568.157C497.916 569.354 498.29 571.096 498.29 573.383C498.29 575.669 497.916 577.418 497.17 578.628C496.436 579.838 495.356 580.443 493.93 580.443C492.517 580.443 491.437 579.838 490.69 578.628C489.943 577.418 489.57 575.669 489.57 573.383C489.57 571.109 489.943 569.367 490.69 568.157C491.437 566.947 492.517 566.342 493.93 566.342ZM490.99 573.383C490.99 575.005 491.137 576.274 491.43 577.192L495.87 568.357C495.403 567.732 494.756 567.419 493.93 567.419C493.01 567.419 492.29 567.911 491.77 568.895C491.25 569.866 490.99 571.362 490.99 573.383ZM493.93 579.346C494.863 579.346 495.59 578.86 496.11 577.89C496.63 576.906 496.89 575.404 496.89 573.383C496.89 571.667 496.723 570.338 496.39 569.394L491.95 578.309C492.43 579 493.09 579.346 493.93 579.346Z" fill="url(#paint8_linear_175_1884)"/>
<path d="M495.13 601.979H498.07V603.036H490.45V601.979H493.85V590.771L490.61 592.705L490.05 591.808L494.05 589.335H495.13V601.979Z" fill="url(#paint9_linear_175_1884)"/>
<path d="M493.93 611.928C495.356 611.928 496.436 612.533 497.17 613.743C497.916 614.94 498.29 616.681 498.29 618.968C498.29 621.255 497.916 623.003 497.17 624.213C496.436 625.423 495.356 626.028 493.93 626.028C492.517 626.028 491.437 625.423 490.69 624.213C489.943 623.003 489.57 621.255 489.57 618.968C489.57 616.695 489.943 614.953 490.69 613.743C491.437 612.533 492.517 611.928 493.93 611.928ZM490.99 618.968C490.99 620.59 491.137 621.86 491.43 622.777L495.87 613.942C495.403 613.317 494.756 613.005 493.93 613.005C493.01 613.005 492.29 613.497 491.77 614.481C491.25 615.451 490.99 616.947 490.99 618.968ZM493.93 624.931C494.863 624.931 495.59 624.446 496.11 623.475C496.63 622.492 496.89 620.989 496.89 618.968C496.89 617.253 496.723 615.923 496.39 614.979L491.95 623.894C492.43 624.586 493.09 624.931 493.93 624.931Z" fill="url(#paint10_linear_175_1884)"/>
<path d="M495.13 647.565H498.07V648.622H490.45V647.565H493.85V636.356L490.61 638.291L490.05 637.393L494.05 634.92H495.13V647.565Z" fill="url(#paint11_linear_175_1884)"/>
<path d="M495.13 670.357H498.07V671.414H490.45V670.357H493.85V659.149L490.61 661.084L490.05 660.186L494.05 657.713H495.13V670.357Z" fill="url(#paint12_linear_175_1884)"/>
<path d="M531.07 429.586C532.497 429.586 533.577 430.191 534.31 431.4C535.057 432.597 535.43 434.339 535.43 436.626C535.43 438.913 535.057 440.661 534.31 441.871C533.577 443.081 532.497 443.686 531.07 443.686C529.657 443.686 528.577 443.081 527.83 441.871C527.084 440.661 526.71 438.913 526.71 436.626C526.71 434.352 527.084 432.61 527.83 431.4C528.577 430.191 529.657 429.586 531.07 429.586ZM528.13 436.626C528.13 438.248 528.277 439.518 528.57 440.435L533.01 431.6C532.543 430.975 531.897 430.663 531.07 430.663C530.15 430.663 529.43 431.155 528.91 432.138C528.39 433.109 528.13 434.605 528.13 436.626ZM531.07 442.589C532.003 442.589 532.73 442.104 533.25 441.133C533.77 440.149 534.03 438.647 534.03 436.626C534.03 434.911 533.863 433.581 533.53 432.637L529.09 441.552C529.57 442.243 530.23 442.589 531.07 442.589Z" fill="url(#paint13_linear_175_1884)"/>
<path d="M532.27 465.222H535.21V466.279H527.59V465.222H530.99V454.014L527.75 455.948L527.19 455.051L531.19 452.578H532.27V465.222Z" fill="url(#paint14_linear_175_1884)"/>
<path d="M531.07 475.171C532.497 475.171 533.577 475.776 534.31 476.986C535.057 478.183 535.43 479.924 535.43 482.211C535.43 484.498 535.057 486.247 534.31 487.457C533.577 488.666 532.497 489.271 531.07 489.271C529.657 489.271 528.577 488.666 527.83 487.457C527.084 486.247 526.71 484.498 526.71 482.211C526.71 479.938 527.084 478.196 527.83 476.986C528.577 475.776 529.657 475.171 531.07 475.171ZM528.13 482.211C528.13 483.833 528.277 485.103 528.57 486.021L533.01 477.186C532.543 476.561 531.897 476.248 531.07 476.248C530.15 476.248 529.43 476.74 528.91 477.724C528.39 478.695 528.13 480.19 528.13 482.211ZM531.07 488.174C532.003 488.174 532.73 487.689 533.25 486.719C533.77 485.735 534.03 484.232 534.03 482.211C534.03 480.496 533.863 479.167 533.53 478.223L529.09 487.137C529.57 487.829 530.23 488.174 531.07 488.174Z" fill="url(#paint15_linear_175_1884)"/>
<path d="M531.07 497.964C532.497 497.964 533.577 498.569 534.31 499.779C535.057 500.976 535.43 502.717 535.43 505.004C535.43 507.291 535.057 509.039 534.31 510.249C533.577 511.459 532.497 512.064 531.07 512.064C529.657 512.064 528.577 511.459 527.83 510.249C527.084 509.039 526.71 507.291 526.71 505.004C526.71 502.731 527.084 500.989 527.83 499.779C528.577 498.569 529.657 497.964 531.07 497.964ZM528.13 505.004C528.13 506.626 528.277 507.896 528.57 508.813L533.01 499.978C532.543 499.353 531.897 499.041 531.07 499.041C530.15 499.041 529.43 499.533 528.91 500.517C528.39 501.487 528.13 502.983 528.13 505.004ZM531.07 510.967C532.003 510.967 532.73 510.482 533.25 509.511C533.77 508.528 534.03 507.025 534.03 505.004C534.03 503.289 533.863 501.959 533.53 501.015L529.09 509.93C529.57 510.622 530.23 510.967 531.07 510.967Z" fill="url(#paint16_linear_175_1884)"/>
<path d="M532.27 533.601H535.21V534.658H527.59V533.601H530.99V522.392L527.75 524.327L527.19 523.429L531.19 520.956H532.27V533.601Z" fill="url(#paint17_linear_175_1884)"/>
<path d="M531.07 543.55C532.497 543.55 533.577 544.155 534.31 545.365C535.057 546.561 535.43 548.303 535.43 550.59C535.43 552.877 535.057 554.625 534.31 555.835C533.577 557.045 532.497 557.65 531.07 557.65C529.657 557.65 528.577 557.045 527.83 555.835C527.084 554.625 526.71 552.877 526.71 550.59C526.71 548.316 527.084 546.574 527.83 545.365C528.577 544.155 529.657 543.55 531.07 543.55ZM528.13 550.59C528.13 552.212 528.277 553.482 528.57 554.399L533.01 545.564C532.543 544.939 531.897 544.627 531.07 544.627C530.15 544.627 529.43 545.119 528.91 546.102C528.39 547.073 528.13 548.569 528.13 550.59ZM531.07 556.553C532.003 556.553 532.73 556.068 533.25 555.097C533.77 554.113 534.03 552.611 534.03 550.59C534.03 548.875 533.863 547.545 533.53 546.601L529.09 555.516C529.57 556.207 530.23 556.553 531.07 556.553Z" fill="url(#paint18_linear_175_1884)"/>
<path d="M532.27 579.186H535.21V580.243H527.59V579.186H530.99V567.978L527.75 569.912L527.19 569.015L531.19 566.542H532.27V579.186Z" fill="url(#paint19_linear_175_1884)"/>
<path d="M531.07 589.135C532.497 589.135 533.577 589.74 534.31 590.95C535.057 592.147 535.43 593.888 535.43 596.175C535.43 598.462 535.057 600.211 534.31 601.421C533.577 602.63 532.497 603.235 531.07 603.235C529.657 603.235 528.577 602.63 527.83 601.421C527.084 600.211 526.71 598.462 526.71 596.175C526.71 593.902 527.084 592.16 527.83 590.95C528.577 589.74 529.657 589.135 531.07 589.135ZM528.13 596.175C528.13 597.797 528.277 599.067 528.57 599.985L533.01 591.15C532.543 590.525 531.897 590.212 531.07 590.212C530.15 590.212 529.43 590.704 528.91 591.688C528.39 592.659 528.13 594.154 528.13 596.175ZM531.07 602.139C532.003 602.139 532.73 601.653 533.25 600.683C533.77 599.699 534.03 598.196 534.03 596.175C534.03 594.46 533.863 593.131 533.53 592.187L529.09 601.101C529.57 601.793 530.23 602.139 531.07 602.139Z" fill="url(#paint20_linear_175_1884)"/>
<path d="M531.07 611.928C532.497 611.928 533.577 612.533 534.31 613.743C535.057 614.94 535.43 616.681 535.43 618.968C535.43 621.255 535.057 623.003 534.31 624.213C533.577 625.423 532.497 626.028 531.07 626.028C529.657 626.028 528.577 625.423 527.83 624.213C527.084 623.003 526.71 621.255 526.71 618.968C526.71 616.695 527.084 614.953 527.83 613.743C528.577 612.533 529.657 611.928 531.07 611.928ZM528.13 618.968C528.13 620.59 528.277 621.86 528.57 622.777L533.01 613.942C532.543 613.317 531.897 613.005 531.07 613.005C530.15 613.005 529.43 613.497 528.91 614.481C528.39 615.451 528.13 616.947 528.13 618.968ZM531.07 624.931C532.003 624.931 532.73 624.446 533.25 623.475C533.77 622.492 534.03 620.989 534.03 618.968C534.03 617.253 533.863 615.923 533.53 614.979L529.09 623.894C529.57 624.586 530.23 624.931 531.07 624.931Z" fill="url(#paint21_linear_175_1884)"/>
<path d="M532.27 647.565H535.21V648.622H527.59V647.565H530.99V636.356L527.75 638.291L527.19 637.393L531.19 634.92H532.27V647.565Z" fill="url(#paint22_linear_175_1884)"/>
<path d="M531.07 657.514C532.497 657.514 533.577 658.119 534.31 659.329C535.057 660.525 535.43 662.267 535.43 664.554C535.43 666.841 535.057 668.589 534.31 669.799C533.577 671.009 532.497 671.614 531.07 671.614C529.657 671.614 528.577 671.009 527.83 669.799C527.084 668.589 526.71 666.841 526.71 664.554C526.71 662.28 527.084 660.538 527.83 659.329C528.577 658.119 529.657 657.514 531.07 657.514ZM528.13 664.554C528.13 666.176 528.277 667.446 528.57 668.363L533.01 659.528C532.543 658.903 531.897 658.591 531.07 658.591C530.15 658.591 529.43 659.083 528.91 660.066C528.39 661.037 528.13 662.533 528.13 664.554ZM531.07 670.517C532.003 670.517 532.73 670.032 533.25 669.061C533.77 668.077 534.03 666.575 534.03 664.554C534.03 662.839 533.863 661.509 533.53 660.565L529.09 669.48C529.57 670.171 530.23 670.517 531.07 670.517Z" fill="url(#paint23_linear_175_1884)"/>
<path d="M532.27 693.15H535.21V694.207H527.59V693.15H530.99V681.942L527.75 683.876L527.19 682.979L531.19 680.506H532.27V693.15Z" fill="url(#paint24_linear_175_1884)"/>
<path d="M532.27 715.943H535.21V717H527.59V715.943H530.99V704.735L527.75 706.669L527.19 705.772L531.19 703.299H532.27V715.943Z" fill="url(#paint25_linear_175_1884)"/>
<path d="M475.36 452.378C476.786 452.378 477.866 452.983 478.599 454.193C479.346 455.39 479.719 457.132 479.719 459.419C479.719 461.705 479.346 463.454 478.599 464.664C477.866 465.874 476.786 466.479 475.36 466.479C473.946 466.479 472.867 465.874 472.12 464.664C471.373 463.454 471 461.705 471 459.419C471 457.145 471.373 455.403 472.12 454.193C472.867 452.983 473.946 452.378 475.36 452.378ZM472.42 459.419C472.42 461.041 472.567 462.31 472.86 463.228L477.3 454.393C476.833 453.768 476.186 453.455 475.36 453.455C474.44 453.455 473.72 453.947 473.2 454.931C472.68 455.902 472.42 457.398 472.42 459.419ZM475.36 465.382C476.293 465.382 477.02 464.896 477.54 463.926C478.06 462.942 478.319 461.44 478.319 459.419C478.319 457.703 478.153 456.374 477.82 455.43L473.38 464.345C473.86 465.036 474.52 465.382 475.36 465.382Z" fill="url(#paint26_linear_175_1884)"/>
<path d="M475.36 475.171C476.786 475.171 477.866 475.776 478.599 476.986C479.346 478.183 479.719 479.924 479.719 482.211C479.719 484.498 479.346 486.247 478.599 487.457C477.866 488.666 476.786 489.271 475.36 489.271C473.946 489.271 472.867 488.666 472.12 487.457C471.373 486.247 471 484.498 471 482.211C471 479.938 471.373 478.196 472.12 476.986C472.867 475.776 473.946 475.171 475.36 475.171ZM472.42 482.211C472.42 483.833 472.567 485.103 472.86 486.021L477.3 477.186C476.833 476.561 476.186 476.248 475.36 476.248C474.44 476.248 473.72 476.74 473.2 477.724C472.68 478.695 472.42 480.19 472.42 482.211ZM475.36 488.174C476.293 488.174 477.02 487.689 477.54 486.719C478.06 485.735 478.319 484.232 478.319 482.211C478.319 480.496 478.153 479.167 477.82 478.223L473.38 487.137C473.86 487.829 474.52 488.174 475.36 488.174Z" fill="url(#paint27_linear_175_1884)"/>
<path d="M476.56 510.808H479.499V511.865H471.88V510.808H475.28V499.599L472.04 501.534L471.48 500.636L475.48 498.163H476.56V510.808Z" fill="url(#paint28_linear_175_1884)"/>
<path d="M475.36 520.757C476.786 520.757 477.866 521.362 478.599 522.572C479.346 523.768 479.719 525.51 479.719 527.797C479.719 530.084 479.346 531.832 478.599 533.042C477.866 534.252 476.786 534.857 475.36 534.857C473.946 534.857 472.867 534.252 472.12 533.042C471.373 531.832 471 530.084 471 527.797C471 525.523 471.373 523.782 472.12 522.572C472.867 521.362 473.946 520.757 475.36 520.757ZM472.42 527.797C472.42 529.419 472.567 530.689 472.86 531.606L477.3 522.771C476.833 522.146 476.186 521.834 475.36 521.834C474.44 521.834 473.72 522.326 473.2 523.31C472.68 524.28 472.42 525.776 472.42 527.797ZM475.36 533.76C476.293 533.76 477.02 533.275 477.54 532.304C478.06 531.32 478.319 529.818 478.319 527.797C478.319 526.082 478.153 524.752 477.82 523.808L473.38 532.723C473.86 533.414 474.52 533.76 475.36 533.76Z" fill="url(#paint29_linear_175_1884)"/>
<path d="M476.56 556.393H479.499V557.45H471.88V556.393H475.28V545.185L472.04 547.12L471.48 546.222L475.48 543.749H476.56V556.393Z" fill="url(#paint30_linear_175_1884)"/>
<path d="M476.56 579.186H479.499V580.243H471.88V579.186H475.28V567.978L472.04 569.912L471.48 569.015L475.48 566.542H476.56V579.186Z" fill="url(#paint31_linear_175_1884)"/>
<path d="M513.7 419.637H516.64V420.694H509.02V419.637H512.42V408.428L509.18 410.363L508.62 409.465L512.62 406.992H513.7V419.637Z" fill="url(#paint32_linear_175_1884)"/>
<path d="M512.5 429.586C513.927 429.586 515.006 430.191 515.74 431.4C516.486 432.597 516.86 434.339 516.86 436.626C516.86 438.913 516.486 440.661 515.74 441.871C515.006 443.081 513.927 443.686 512.5 443.686C511.087 443.686 510.007 443.081 509.26 441.871C508.514 440.661 508.14 438.913 508.14 436.626C508.14 434.352 508.514 432.61 509.26 431.4C510.007 430.191 511.087 429.586 512.5 429.586ZM509.56 436.626C509.56 438.248 509.707 439.518 510 440.435L514.44 431.6C513.973 430.975 513.327 430.663 512.5 430.663C511.58 430.663 510.86 431.155 510.34 432.138C509.82 433.109 509.56 434.605 509.56 436.626ZM512.5 442.589C513.433 442.589 514.16 442.104 514.68 441.133C515.2 440.149 515.46 438.647 515.46 436.626C515.46 434.911 515.293 433.581 514.96 432.637L510.52 441.552C511 442.243 511.66 442.589 512.5 442.589Z" fill="url(#paint33_linear_175_1884)"/>
<path d="M513.7 465.222H516.64V466.279H509.02V465.222H512.42V454.014L509.18 455.948L508.62 455.051L512.62 452.578H513.7V465.222Z" fill="url(#paint34_linear_175_1884)"/>
<path d="M513.7 488.015H516.64V489.072H509.02V488.015H512.42V476.807L509.18 478.741L508.62 477.844L512.62 475.371H513.7V488.015Z" fill="url(#paint35_linear_175_1884)"/>
<path d="M512.5 497.964C513.927 497.964 515.006 498.569 515.74 499.779C516.486 500.976 516.86 502.717 516.86 505.004C516.86 507.291 516.486 509.039 515.74 510.249C515.006 511.459 513.927 512.064 512.5 512.064C511.087 512.064 510.007 511.459 509.26 510.249C508.514 509.039 508.14 507.291 508.14 505.004C508.14 502.731 508.514 500.989 509.26 499.779C510.007 498.569 511.087 497.964 512.5 497.964ZM509.56 505.004C509.56 506.626 509.707 507.896 510 508.813L514.44 499.978C513.973 499.353 513.327 499.041 512.5 499.041C511.58 499.041 510.86 499.533 510.34 500.517C509.82 501.487 509.56 502.983 509.56 505.004ZM512.5 510.967C513.433 510.967 514.16 510.482 514.68 509.511C515.2 508.528 515.46 507.025 515.46 505.004C515.46 503.289 515.293 501.959 514.96 501.015L510.52 509.93C511 510.622 511.66 510.967 512.5 510.967Z" fill="url(#paint36_linear_175_1884)"/>
<path d="M513.7 533.601H516.64V534.658H509.02V533.601H512.42V522.392L509.18 524.327L508.62 523.429L512.62 520.956H513.7V533.601Z" fill="url(#paint37_linear_175_1884)"/>
<path d="M513.7 556.393H516.64V557.45H509.02V556.393H512.42V545.185L509.18 547.12L508.62 546.222L512.62 543.749H513.7V556.393Z" fill="url(#paint38_linear_175_1884)"/>
<path d="M512.5 566.342C513.927 566.342 515.006 566.947 515.74 568.157C516.486 569.354 516.86 571.096 516.86 573.383C516.86 575.669 516.486 577.418 515.74 578.628C515.006 579.838 513.927 580.443 512.5 580.443C511.087 580.443 510.007 579.838 509.26 578.628C508.514 577.418 508.14 575.669 508.14 573.383C508.14 571.109 508.514 569.367 509.26 568.157C510.007 566.947 511.087 566.342 512.5 566.342ZM509.56 573.383C509.56 575.005 509.707 576.274 510 577.192L514.44 568.357C513.973 567.732 513.327 567.419 512.5 567.419C511.58 567.419 510.86 567.911 510.34 568.895C509.82 569.866 509.56 571.362 509.56 573.383ZM512.5 579.346C513.433 579.346 514.16 578.86 514.68 577.89C515.2 576.906 515.46 575.404 515.46 573.383C515.46 571.667 515.293 570.338 514.96 569.394L510.52 578.309C511 579 511.66 579.346 512.5 579.346Z" fill="url(#paint39_linear_175_1884)"/>
<path d="M513.7 601.979H516.64V603.036H509.02V601.979H512.42V590.771L509.18 592.705L508.62 591.808L512.62 589.335H513.7V601.979Z" fill="url(#paint40_linear_175_1884)"/>
<path d="M512.5 611.928C513.927 611.928 515.006 612.533 515.74 613.743C516.486 614.94 516.86 616.681 516.86 618.968C516.86 621.255 516.486 623.003 515.74 624.213C515.006 625.423 513.927 626.028 512.5 626.028C511.087 626.028 510.007 625.423 509.26 624.213C508.514 623.003 508.14 621.255 508.14 618.968C508.14 616.695 508.514 614.953 509.26 613.743C510.007 612.533 511.087 611.928 512.5 611.928ZM509.56 618.968C509.56 620.59 509.707 621.86 510 622.777L514.44 613.942C513.973 613.317 513.327 613.005 512.5 613.005C511.58 613.005 510.86 613.497 510.34 614.481C509.82 615.451 509.56 616.947 509.56 618.968ZM512.5 624.931C513.433 624.931 514.16 624.446 514.68 623.475C515.2 622.492 515.46 620.989 515.46 618.968C515.46 617.253 515.293 615.923 514.96 614.979L510.52 623.894C511 624.586 511.66 624.931 512.5 624.931Z" fill="url(#paint41_linear_175_1884)"/>
<path d="M549.64 406.793C551.067 406.793 552.147 407.398 552.88 408.608C553.627 409.804 554 411.546 554 413.833C554 416.12 553.627 417.868 552.88 419.078C552.147 420.288 551.067 420.893 549.64 420.893C548.227 420.893 547.147 420.288 546.401 419.078C545.654 417.868 545.281 416.12 545.281 413.833C545.281 411.559 545.654 409.818 546.401 408.608C547.147 407.398 548.227 406.793 549.64 406.793ZM546.7 413.833C546.7 415.455 546.847 416.725 547.14 417.642L551.58 408.807C551.114 408.182 550.467 407.87 549.64 407.87C548.72 407.87 548 408.362 547.48 409.346C546.96 410.316 546.7 411.812 546.7 413.833ZM549.64 419.796C550.574 419.796 551.3 419.311 551.82 418.34C552.34 417.356 552.6 415.854 552.6 413.833C552.6 412.118 552.433 410.788 552.1 409.844L547.66 418.759C548.14 419.45 548.8 419.796 549.64 419.796Z" fill="url(#paint42_linear_175_1884)"/>
<path d="M550.84 442.429H553.78V443.486H546.161V442.429H549.56V431.221L546.321 433.156L545.761 432.258L549.76 429.785H550.84V442.429Z" fill="url(#paint43_linear_175_1884)"/>
<path d="M550.84 465.222H553.78V466.279H546.161V465.222H549.56V454.014L546.321 455.948L545.761 455.051L549.76 452.578H550.84V465.222Z" fill="url(#paint44_linear_175_1884)"/>
<path d="M549.64 475.171C551.067 475.171 552.147 475.776 552.88 476.986C553.627 478.183 554 479.924 554 482.211C554 484.498 553.627 486.247 552.88 487.457C552.147 488.666 551.067 489.271 549.64 489.271C548.227 489.271 547.147 488.666 546.401 487.457C545.654 486.247 545.281 484.498 545.281 482.211C545.281 479.938 545.654 478.196 546.401 476.986C547.147 475.776 548.227 475.171 549.64 475.171ZM546.7 482.211C546.7 483.833 546.847 485.103 547.14 486.021L551.58 477.186C551.114 476.561 550.467 476.248 549.64 476.248C548.72 476.248 548 476.74 547.48 477.724C546.96 478.695 546.7 480.19 546.7 482.211ZM549.64 488.174C550.574 488.174 551.3 487.689 551.82 486.719C552.34 485.735 552.6 484.232 552.6 482.211C552.6 480.496 552.433 479.167 552.1 478.223L547.66 487.137C548.14 487.829 548.8 488.174 549.64 488.174Z" fill="url(#paint45_linear_175_1884)"/>
<path d="M549.64 497.964C551.067 497.964 552.147 498.569 552.88 499.779C553.627 500.976 554 502.717 554 505.004C554 507.291 553.627 509.039 552.88 510.249C552.147 511.459 551.067 512.064 549.64 512.064C548.227 512.064 547.147 511.459 546.401 510.249C545.654 509.039 545.281 507.291 545.281 505.004C545.281 502.731 545.654 500.989 546.401 499.779C547.147 498.569 548.227 497.964 549.64 497.964ZM546.7 505.004C546.7 506.626 546.847 507.896 547.14 508.813L551.58 499.978C551.114 499.353 550.467 499.041 549.64 499.041C548.72 499.041 548 499.533 547.48 500.517C546.96 501.487 546.7 502.983 546.7 505.004ZM549.64 510.967C550.574 510.967 551.3 510.482 551.82 509.511C552.34 508.528 552.6 507.025 552.6 505.004C552.6 503.289 552.433 501.959 552.1 501.015L547.66 509.93C548.14 510.622 548.8 510.967 549.64 510.967Z" fill="url(#paint46_linear_175_1884)"/>
</g>
<path d="M493.035 717C494.53 717 495.662 717.63 496.431 718.891C497.213 720.138 497.605 721.953 497.605 724.336C497.605 726.719 497.213 728.541 496.431 729.802C495.662 731.063 494.53 731.693 493.035 731.693C491.554 731.693 490.422 731.063 489.639 729.802C488.856 728.541 488.465 726.719 488.465 724.336C488.465 721.967 488.856 720.152 489.639 718.891C490.422 717.63 491.554 717 493.035 717ZM489.953 724.336C489.953 726.026 490.107 727.35 490.415 728.306L495.068 719.099C494.579 718.448 493.901 718.122 493.035 718.122C492.071 718.122 491.316 718.635 490.771 719.66C490.226 720.672 489.953 722.23 489.953 724.336ZM493.035 730.55C494.013 730.55 494.775 730.044 495.32 729.033C495.865 728.008 496.137 726.442 496.137 724.336C496.137 722.549 495.963 721.163 495.613 720.18L490.96 729.469C491.463 730.19 492.154 730.55 493.035 730.55Z" fill="url(#paint47_linear_175_1884)" fill-opacity="0.6"/>
<path d="M494.293 754.135H497.374V755.236H489.387V754.135H492.951V742.455L489.555 744.471L488.968 743.536L493.161 740.959H494.293V754.135Z" fill="url(#paint48_linear_175_1884)" fill-opacity="0.6"/>
<path d="M493.035 764.502C494.53 764.502 495.662 765.133 496.431 766.393C497.213 767.64 497.605 769.455 497.605 771.838C497.605 774.221 497.213 776.043 496.431 777.304C495.662 778.565 494.53 779.195 493.035 779.195C491.554 779.195 490.422 778.565 489.639 777.304C488.856 776.043 488.465 774.221 488.465 771.838C488.465 769.469 488.856 767.654 489.639 766.393C490.422 765.133 491.554 764.502 493.035 764.502ZM489.953 771.838C489.953 773.529 490.107 774.852 490.415 775.808L495.068 766.601C494.579 765.95 493.901 765.624 493.035 765.624C492.071 765.624 491.316 766.137 490.771 767.162C490.226 768.174 489.953 769.732 489.953 771.838ZM493.035 778.052C494.013 778.052 494.775 777.546 495.32 776.535C495.865 775.51 496.137 773.944 496.137 771.838C496.137 770.051 495.963 768.665 495.613 767.682L490.96 776.971C491.463 777.692 492.154 778.052 493.035 778.052Z" fill="url(#paint49_linear_175_1884)" fill-opacity="0.6"/>
<path d="M494.293 801.637H497.374V802.738H489.387V801.637H492.951V789.957L489.555 791.973L488.968 791.038L493.161 788.461H494.293V801.637Z" fill="url(#paint50_linear_175_1884)" fill-opacity="0.6"/>
<path d="M494.293 825.388H497.374V826.489H489.387V825.388H492.951V813.708L489.555 815.724L488.968 814.789L493.161 812.212H494.293V825.388Z" fill="url(#paint51_linear_175_1884)" fill-opacity="0.6"/>
<path d="M493.035 835.755C494.53 835.755 495.662 836.386 496.431 837.646C497.213 838.893 497.605 840.708 497.605 843.091C497.605 845.474 497.213 847.296 496.431 848.557C495.662 849.818 494.53 850.448 493.035 850.448C491.554 850.448 490.422 849.818 489.639 848.557C488.856 847.296 488.465 845.474 488.465 843.091C488.465 840.722 488.856 838.907 489.639 837.646C490.422 836.386 491.554 835.755 493.035 835.755ZM489.953 843.091C489.953 844.782 490.107 846.105 490.415 847.061L495.068 837.854C494.579 837.203 493.901 836.878 493.035 836.878C492.071 836.878 491.316 837.39 490.771 838.415C490.226 839.427 489.953 840.985 489.953 843.091ZM493.035 849.305C494.013 849.305 494.775 848.8 495.32 847.788C495.865 846.763 496.137 845.197 496.137 843.091C496.137 841.304 495.963 839.919 495.613 838.935L490.96 848.225C491.463 848.945 492.154 849.305 493.035 849.305Z" fill="url(#paint52_linear_175_1884)" fill-opacity="0.6"/>
<path d="M494.293 872.89H497.374V873.992H489.387V872.89H492.951V861.21L489.555 863.226L488.968 862.291L493.161 859.714H494.293V872.89Z" fill="url(#paint53_linear_175_1884)" fill-opacity="0.6"/>
<path d="M493.035 883.257C494.53 883.257 495.662 883.888 496.431 885.149C497.213 886.396 497.605 888.211 497.605 890.594C497.605 892.977 497.213 894.798 496.431 896.059C495.662 897.32 494.53 897.95 493.035 897.95C491.554 897.95 490.422 897.32 489.639 896.059C488.856 894.798 488.465 892.977 488.465 890.594C488.465 888.224 488.856 886.409 489.639 885.149C490.422 883.888 491.554 883.257 493.035 883.257ZM489.953 890.594C489.953 892.284 490.107 893.607 490.415 894.563L495.068 885.356C494.579 884.705 493.901 884.38 493.035 884.38C492.071 884.38 491.316 884.892 490.771 885.918C490.226 886.929 489.953 888.488 489.953 890.594ZM493.035 896.807C494.013 896.807 494.775 896.302 495.32 895.29C495.865 894.265 496.137 892.699 496.137 890.594C496.137 888.806 495.963 887.421 495.613 886.437L490.96 895.727C491.463 896.447 492.154 896.807 493.035 896.807Z" fill="url(#paint54_linear_175_1884)" fill-opacity="0.6"/>
<path d="M493.035 907.008C494.53 907.008 495.662 907.639 496.431 908.9C497.213 910.147 497.605 911.962 497.605 914.345C497.605 916.728 497.213 918.549 496.431 919.81C495.662 921.071 494.53 921.701 493.035 921.701C491.554 921.701 490.422 921.071 489.639 919.81C488.856 918.549 488.465 916.728 488.465 914.345C488.465 911.975 488.856 910.16 489.639 908.9C490.422 907.639 491.554 907.008 493.035 907.008ZM489.953 914.345C489.953 916.035 490.107 917.358 490.415 918.314L495.068 909.107C494.579 908.456 493.901 908.131 493.035 908.131C492.071 908.131 491.316 908.643 490.771 909.669C490.226 910.68 489.953 912.239 489.953 914.345ZM493.035 920.558C494.013 920.558 494.775 920.053 495.32 919.041C495.865 918.016 496.137 916.451 496.137 914.345C496.137 912.557 495.963 911.172 495.613 910.188L490.96 919.478C491.463 920.198 492.154 920.558 493.035 920.558Z" fill="url(#paint55_linear_175_1884)" fill-opacity="0.6"/>
<path d="M494.293 944.143H497.374V945.245H489.387V944.143H492.951V932.464L489.555 934.48L488.968 933.544L493.161 930.967H494.293V944.143Z" fill="url(#paint56_linear_175_1884)" fill-opacity="0.6"/>
<path d="M493.035 954.511C494.53 954.511 495.662 955.141 496.431 956.402C497.213 957.649 497.605 959.464 497.605 961.847C497.605 964.23 497.213 966.052 496.431 967.312C495.662 968.573 494.53 969.204 493.035 969.204C491.554 969.204 490.422 968.573 489.639 967.312C488.856 966.052 488.465 964.23 488.465 961.847C488.465 959.478 488.856 957.663 489.639 956.402C490.422 955.141 491.554 954.511 493.035 954.511ZM489.953 961.847C489.953 963.537 490.107 964.86 490.415 965.816L495.068 956.61C494.579 955.958 493.901 955.633 493.035 955.633C492.071 955.633 491.316 956.145 490.771 957.171C490.226 958.182 489.953 959.741 489.953 961.847ZM493.035 968.061C494.013 968.061 494.775 967.555 495.32 966.543C495.865 965.518 496.137 963.953 496.137 961.847C496.137 960.059 495.963 958.674 495.613 957.69L490.96 966.98C491.463 967.7 492.154 968.061 493.035 968.061Z" fill="url(#paint57_linear_175_1884)" fill-opacity="0.6"/>
<path d="M494.293 991.645H497.374V992.747H489.387V991.645H492.951V979.966L489.555 981.982L488.968 981.046L493.161 978.469H494.293V991.645Z" fill="url(#paint58_linear_175_1884)" fill-opacity="0.6"/>
<path d="M494.293 1015.4H497.374V1016.5H489.387V1015.4H492.951V1003.72L489.555 1005.73L488.968 1004.8L493.161 1002.22H494.293V1015.4Z" fill="url(#paint59_linear_175_1884)" fill-opacity="0.6"/>
<path d="M531.965 764.502C533.46 764.502 534.592 765.133 535.361 766.393C536.144 767.64 536.535 769.455 536.535 771.838C536.535 774.221 536.144 776.043 535.361 777.304C534.592 778.565 533.46 779.195 531.965 779.195C530.484 779.195 529.352 778.565 528.569 777.304C527.787 776.043 527.395 774.221 527.395 771.838C527.395 769.469 527.787 767.654 528.569 766.393C529.352 765.133 530.484 764.502 531.965 764.502ZM528.884 771.838C528.884 773.529 529.037 774.852 529.345 775.808L533.998 766.601C533.509 765.95 532.832 765.624 531.965 765.624C531.001 765.624 530.246 766.137 529.701 767.162C529.156 768.174 528.884 769.732 528.884 771.838ZM531.965 778.052C532.943 778.052 533.705 777.546 534.25 776.535C534.795 775.51 535.068 773.944 535.068 771.838C535.068 770.051 534.893 768.665 534.543 767.682L529.89 776.971C530.393 777.692 531.085 778.052 531.965 778.052Z" fill="url(#paint60_linear_175_1884)" fill-opacity="0.6"/>
<path d="M533.223 801.637H536.304V802.738H528.318V801.637H531.881V789.957L528.485 791.973L527.898 791.038L532.091 788.461H533.223V801.637Z" fill="url(#paint61_linear_175_1884)" fill-opacity="0.6"/>
<path d="M531.965 812.004C533.46 812.004 534.592 812.635 535.361 813.895C536.144 815.142 536.535 816.957 536.535 819.34C536.535 821.723 536.144 823.545 535.361 824.806C534.592 826.067 533.46 826.697 531.965 826.697C530.484 826.697 529.352 826.067 528.569 824.806C527.787 823.545 527.395 821.723 527.395 819.34C527.395 816.971 527.787 815.156 528.569 813.895C529.352 812.635 530.484 812.004 531.965 812.004ZM528.884 819.34C528.884 821.031 529.037 822.354 529.345 823.31L533.998 814.103C533.509 813.452 532.832 813.126 531.965 813.126C531.001 813.126 530.246 813.639 529.701 814.664C529.156 815.676 528.884 817.234 528.884 819.34ZM531.965 825.554C532.943 825.554 533.705 825.049 534.25 824.037C534.795 823.012 535.068 821.446 535.068 819.34C535.068 817.553 534.893 816.168 534.543 815.184L529.89 824.474C530.393 825.194 531.085 825.554 531.965 825.554Z" fill="url(#paint62_linear_175_1884)" fill-opacity="0.6"/>
<path d="M531.965 835.755C533.46 835.755 534.592 836.386 535.361 837.646C536.144 838.893 536.535 840.708 536.535 843.091C536.535 845.474 536.144 847.296 535.361 848.557C534.592 849.818 533.46 850.448 531.965 850.448C530.484 850.448 529.352 849.818 528.569 848.557C527.787 847.296 527.395 845.474 527.395 843.091C527.395 840.722 527.787 838.907 528.569 837.646C529.352 836.386 530.484 835.755 531.965 835.755ZM528.884 843.091C528.884 844.782 529.037 846.105 529.345 847.061L533.998 837.854C533.509 837.203 532.832 836.878 531.965 836.878C531.001 836.878 530.246 837.39 529.701 838.415C529.156 839.427 528.884 840.985 528.884 843.091ZM531.965 849.305C532.943 849.305 533.705 848.8 534.25 847.788C534.795 846.763 535.068 845.197 535.068 843.091C535.068 841.304 534.893 839.919 534.543 838.935L529.89 848.225C530.393 848.945 531.085 849.305 531.965 849.305Z" fill="url(#paint63_linear_175_1884)" fill-opacity="0.6"/>
<path d="M533.223 872.89H536.304V873.992H528.318V872.89H531.881V861.21L528.485 863.226L527.898 862.291L532.091 859.714H533.223V872.89Z" fill="url(#paint64_linear_175_1884)" fill-opacity="0.6"/>
<path d="M531.965 883.257C533.46 883.257 534.592 883.888 535.361 885.149C536.144 886.396 536.535 888.211 536.535 890.594C536.535 892.977 536.144 894.798 535.361 896.059C534.592 897.32 533.46 897.95 531.965 897.95C530.484 897.95 529.352 897.32 528.569 896.059C527.787 894.798 527.395 892.977 527.395 890.594C527.395 888.224 527.787 886.409 528.569 885.149C529.352 883.888 530.484 883.257 531.965 883.257ZM528.884 890.594C528.884 892.284 529.037 893.607 529.345 894.563L533.998 885.356C533.509 884.705 532.832 884.38 531.965 884.38C531.001 884.38 530.246 884.892 529.701 885.918C529.156 886.929 528.884 888.488 528.884 890.594ZM531.965 896.807C532.943 896.807 533.705 896.302 534.25 895.29C534.795 894.265 535.068 892.699 535.068 890.594C535.068 888.806 534.893 887.421 534.543 886.437L529.89 895.727C530.393 896.447 531.085 896.807 531.965 896.807Z" fill="url(#paint65_linear_175_1884)" fill-opacity="0.6"/>
<path d="M533.223 920.392H536.304V921.494H528.318V920.392H531.881V908.713L528.485 910.728L527.898 909.793L532.091 907.216H533.223V920.392Z" fill="url(#paint66_linear_175_1884)" fill-opacity="0.6"/>
<path d="M531.965 930.76C533.46 930.76 534.592 931.39 535.361 932.651C536.144 933.898 536.535 935.713 536.535 938.096C536.535 940.479 536.144 942.301 535.361 943.561C534.592 944.822 533.46 945.453 531.965 945.453C530.484 945.453 529.352 944.822 528.569 943.561C527.787 942.301 527.395 940.479 527.395 938.096C527.395 935.726 527.787 933.911 528.569 932.651C529.352 931.39 530.484 930.76 531.965 930.76ZM528.884 938.096C528.884 939.786 529.037 941.109 529.345 942.065L533.998 932.859C533.509 932.207 532.832 931.882 531.965 931.882C531.001 931.882 530.246 932.394 529.701 933.42C529.156 934.431 528.884 935.99 528.884 938.096ZM531.965 944.31C532.943 944.31 533.705 943.804 534.25 942.792C534.795 941.767 535.068 940.202 535.068 938.096C535.068 936.308 534.893 934.923 534.543 933.939L529.89 943.229C530.393 943.949 531.085 944.31 531.965 944.31Z" fill="url(#paint67_linear_175_1884)" fill-opacity="0.6"/>
<path d="M531.965 954.511C533.46 954.511 534.592 955.141 535.361 956.402C536.144 957.649 536.535 959.464 536.535 961.847C536.535 964.23 536.144 966.052 535.361 967.312C534.592 968.573 533.46 969.204 531.965 969.204C530.484 969.204 529.352 968.573 528.569 967.312C527.787 966.052 527.395 964.23 527.395 961.847C527.395 959.478 527.787 957.663 528.569 956.402C529.352 955.141 530.484 954.511 531.965 954.511ZM528.884 961.847C528.884 963.537 529.037 964.86 529.345 965.816L533.998 956.61C533.509 955.958 532.832 955.633 531.965 955.633C531.001 955.633 530.246 956.145 529.701 957.171C529.156 958.182 528.884 959.741 528.884 961.847ZM531.965 968.061C532.943 968.061 533.705 967.555 534.25 966.543C534.795 965.518 535.068 963.953 535.068 961.847C535.068 960.059 534.893 958.674 534.543 957.69L529.89 966.98C530.393 967.7 531.085 968.061 531.965 968.061Z" fill="url(#paint68_linear_175_1884)" fill-opacity="0.6"/>
<path d="M533.223 991.645H536.304V992.747H528.318V991.645H531.881V979.966L528.485 981.982L527.898 981.046L532.091 978.469H533.223V991.645Z" fill="url(#paint69_linear_175_1884)" fill-opacity="0.6"/>
<path d="M531.965 1002.01C533.46 1002.01 534.592 1002.64 535.361 1003.9C536.144 1005.15 536.535 1006.97 536.535 1009.35C536.535 1011.73 536.144 1013.55 535.361 1014.81C534.592 1016.08 533.46 1016.71 531.965 1016.71C530.484 1016.71 529.352 1016.08 528.569 1014.81C527.787 1013.55 527.395 1011.73 527.395 1009.35C527.395 1006.98 527.787 1005.16 528.569 1003.9C529.352 1002.64 530.484 1002.01 531.965 1002.01ZM528.884 1009.35C528.884 1011.04 529.037 1012.36 529.345 1013.32L533.998 1004.11C533.509 1003.46 532.832 1003.13 531.965 1003.13C531.001 1003.13 530.246 1003.65 529.701 1004.67C529.156 1005.68 528.884 1007.24 528.884 1009.35ZM531.965 1015.56C532.943 1015.56 533.705 1015.06 534.25 1014.05C534.795 1013.02 535.068 1011.45 535.068 1009.35C535.068 1007.56 534.893 1006.18 534.543 1005.19L529.89 1014.48C530.393 1015.2 531.085 1015.56 531.965 1015.56Z" fill="url(#paint70_linear_175_1884)" fill-opacity="0.6"/>
<path d="M533.223 1039.15H536.304V1040.25H528.318V1039.15H531.881V1027.47L528.485 1029.48L527.898 1028.55L532.091 1025.97H533.223V1039.15Z" fill="url(#paint71_linear_175_1884)" fill-opacity="0.6"/>
<path d="M533.223 1062.9H536.304V1064H528.318V1062.9H531.881V1051.22L528.485 1053.23L527.898 1052.3L532.091 1049.72H533.223V1062.9Z" fill="url(#paint72_linear_175_1884)" fill-opacity="0.6"/>
<path d="M473.57 788.253C475.065 788.253 476.197 788.884 476.966 790.144C477.748 791.391 478.14 793.206 478.14 795.589C478.14 797.972 477.748 799.794 476.966 801.055C476.197 802.316 475.065 802.946 473.57 802.946C472.088 802.946 470.956 802.316 470.174 801.055C469.391 799.794 469 797.972 469 795.589C469 793.22 469.391 791.405 470.174 790.144C470.956 788.884 472.088 788.253 473.57 788.253ZM470.488 795.589C470.488 797.28 470.642 798.603 470.95 799.559L475.603 790.352C475.114 789.701 474.436 789.375 473.57 789.375C472.606 789.375 471.851 789.888 471.306 790.913C470.761 791.925 470.488 793.483 470.488 795.589ZM473.57 801.803C474.548 801.803 475.31 801.297 475.855 800.286C476.4 799.261 476.672 797.695 476.672 795.589C476.672 793.802 476.498 792.417 476.148 791.433L471.495 800.722C471.998 801.443 472.689 801.803 473.57 801.803Z" fill="url(#paint73_linear_175_1884)" fill-opacity="0.6"/>
<path d="M473.57 812.004C475.065 812.004 476.197 812.635 476.966 813.895C477.748 815.142 478.14 816.957 478.14 819.34C478.14 821.723 477.748 823.545 476.966 824.806C476.197 826.067 475.065 826.697 473.57 826.697C472.088 826.697 470.956 826.067 470.174 824.806C469.391 823.545 469 821.723 469 819.34C469 816.971 469.391 815.156 470.174 813.895C470.956 812.635 472.088 812.004 473.57 812.004ZM470.488 819.34C470.488 821.031 470.642 822.354 470.95 823.31L475.603 814.103C475.114 813.452 474.436 813.126 473.57 813.126C472.606 813.126 471.851 813.639 471.306 814.664C470.761 815.676 470.488 817.234 470.488 819.34ZM473.57 825.554C474.548 825.554 475.31 825.049 475.855 824.037C476.4 823.012 476.672 821.446 476.672 819.34C476.672 817.553 476.498 816.168 476.148 815.184L471.495 824.474C471.998 825.194 472.689 825.554 473.57 825.554Z" fill="url(#paint74_linear_175_1884)" fill-opacity="0.6"/>
<path d="M474.828 849.139H477.909V850.24H469.922V849.139H473.486V837.459L470.09 839.475L469.503 838.54L473.696 835.963H474.828V849.139Z" fill="url(#paint75_linear_175_1884)" fill-opacity="0.6"/>
<path d="M473.57 859.506C475.065 859.506 476.197 860.137 476.966 861.398C477.748 862.644 478.14 864.459 478.14 866.842C478.14 869.225 477.748 871.047 476.966 872.308C476.197 873.569 475.065 874.199 473.57 874.199C472.088 874.199 470.956 873.569 470.174 872.308C469.391 871.047 469 869.225 469 866.842C469 864.473 469.391 862.658 470.174 861.398C470.956 860.137 472.088 859.506 473.57 859.506ZM470.488 866.842C470.488 868.533 470.642 869.856 470.95 870.812L475.603 861.605C475.114 860.954 474.436 860.629 473.57 860.629C472.606 860.629 471.851 861.141 471.306 862.166C470.761 863.178 470.488 864.737 470.488 866.842ZM473.57 873.056C474.548 873.056 475.31 872.551 475.855 871.539C476.4 870.514 476.672 868.948 476.672 866.842C476.672 865.055 476.498 863.67 476.148 862.686L471.495 871.976C471.998 872.696 472.689 873.056 473.57 873.056Z" fill="url(#paint76_linear_175_1884)" fill-opacity="0.6"/>
<path d="M474.828 896.641H477.909V897.743H469.922V896.641H473.486V884.962L470.09 886.977L469.503 886.042L473.696 883.465H474.828V896.641Z" fill="url(#paint77_linear_175_1884)" fill-opacity="0.6"/>
<path d="M474.828 920.392H477.909V921.494H469.922V920.392H473.486V908.713L470.09 910.728L469.503 909.793L473.696 907.216H474.828V920.392Z" fill="url(#paint78_linear_175_1884)" fill-opacity="0.6"/>
<path d="M513.758 754.135H516.839V755.236H508.853V754.135H512.416V742.455L509.02 744.471L508.433 743.536L512.626 740.959H513.758V754.135Z" fill="url(#paint79_linear_175_1884)" fill-opacity="0.6"/>
<path d="M512.5 764.502C513.995 764.502 515.127 765.133 515.896 766.393C516.679 767.64 517.07 769.455 517.07 771.838C517.07 774.221 516.679 776.043 515.896 777.304C515.127 778.565 513.995 779.195 512.5 779.195C511.019 779.195 509.887 778.565 509.104 777.304C508.321 776.043 507.93 774.221 507.93 771.838C507.93 769.469 508.321 767.654 509.104 766.393C509.887 765.133 511.019 764.502 512.5 764.502ZM509.419 771.838C509.419 773.529 509.572 774.852 509.88 775.808L514.533 766.601C514.044 765.95 513.366 765.624 512.5 765.624C511.536 765.624 510.781 766.137 510.236 767.162C509.691 768.174 509.419 769.732 509.419 771.838ZM512.5 778.052C513.478 778.052 514.24 777.546 514.785 776.535C515.33 775.51 515.602 773.944 515.602 771.838C515.602 770.051 515.428 768.665 515.078 767.682L510.425 776.971C510.928 777.692 511.62 778.052 512.5 778.052Z" fill="url(#paint80_linear_175_1884)" fill-opacity="0.6"/>
<path d="M513.758 801.637H516.839V802.738H508.853V801.637H512.416V789.957L509.02 791.973L508.433 791.038L512.626 788.461H513.758V801.637Z" fill="url(#paint81_linear_175_1884)" fill-opacity="0.6"/>
<path d="M513.758 825.388H516.839V826.489H508.853V825.388H512.416V813.708L509.02 815.724L508.433 814.789L512.626 812.212H513.758V825.388Z" fill="url(#paint82_linear_175_1884)" fill-opacity="0.6"/>
<path d="M512.5 835.755C513.995 835.755 515.127 836.386 515.896 837.646C516.679 838.893 517.07 840.708 517.07 843.091C517.07 845.474 516.679 847.296 515.896 848.557C515.127 849.818 513.995 850.448 512.5 850.448C511.019 850.448 509.887 849.818 509.104 848.557C508.321 847.296 507.93 845.474 507.93 843.091C507.93 840.722 508.321 838.907 509.104 837.646C509.887 836.386 511.019 835.755 512.5 835.755ZM509.419 843.091C509.419 844.782 509.572 846.105 509.88 847.061L514.533 837.854C514.044 837.203 513.366 836.878 512.5 836.878C511.536 836.878 510.781 837.39 510.236 838.415C509.691 839.427 509.419 840.985 509.419 843.091ZM512.5 849.305C513.478 849.305 514.24 848.8 514.785 847.788C515.33 846.763 515.602 845.197 515.602 843.091C515.602 841.304 515.428 839.919 515.078 838.935L510.425 848.225C510.928 848.945 511.62 849.305 512.5 849.305Z" fill="url(#paint83_linear_175_1884)" fill-opacity="0.6"/>
<path d="M513.758 872.89H516.839V873.992H508.853V872.89H512.416V861.21L509.02 863.226L508.433 862.291L512.626 859.714H513.758V872.89Z" fill="url(#paint84_linear_175_1884)" fill-opacity="0.6"/>
<path d="M513.758 896.641H516.839V897.743H508.853V896.641H512.416V884.962L509.02 886.977L508.433 886.042L512.626 883.465H513.758V896.641Z" fill="url(#paint85_linear_175_1884)" fill-opacity="0.6"/>
<path d="M512.5 907.008C513.995 907.008 515.127 907.639 515.896 908.9C516.679 910.147 517.07 911.962 517.07 914.345C517.07 916.728 516.679 918.549 515.896 919.81C515.127 921.071 513.995 921.701 512.5 921.701C511.019 921.701 509.887 921.071 509.104 919.81C508.321 918.549 507.93 916.728 507.93 914.345C507.93 911.975 508.321 910.16 509.104 908.9C509.887 907.639 511.019 907.008 512.5 907.008ZM509.419 914.345C509.419 916.035 509.572 917.358 509.88 918.314L514.533 909.107C514.044 908.456 513.366 908.131 512.5 908.131C511.536 908.131 510.781 908.643 510.236 909.669C509.691 910.68 509.419 912.239 509.419 914.345ZM512.5 920.558C513.478 920.558 514.24 920.053 514.785 919.041C515.33 918.016 515.602 916.451 515.602 914.345C515.602 912.557 515.428 911.172 515.078 910.188L510.425 919.478C510.928 920.198 511.62 920.558 512.5 920.558Z" fill="url(#paint86_linear_175_1884)" fill-opacity="0.6"/>
<path d="M513.758 944.143H516.839V945.245H508.853V944.143H512.416V932.464L509.02 934.48L508.433 933.544L512.626 930.967H513.758V944.143Z" fill="url(#paint87_linear_175_1884)" fill-opacity="0.6"/>
<path d="M512.5 954.511C513.995 954.511 515.127 955.141 515.896 956.402C516.679 957.649 517.07 959.464 517.07 961.847C517.07 964.23 516.679 966.052 515.896 967.312C515.127 968.573 513.995 969.204 512.5 969.204C511.019 969.204 509.887 968.573 509.104 967.312C508.321 966.052 507.93 964.23 507.93 961.847C507.93 959.478 508.321 957.663 509.104 956.402C509.887 955.141 511.019 954.511 512.5 954.511ZM509.419 961.847C509.419 963.537 509.572 964.86 509.88 965.816L514.533 956.61C514.044 955.958 513.366 955.633 512.5 955.633C511.536 955.633 510.781 956.145 510.236 957.171C509.691 958.182 509.419 959.741 509.419 961.847ZM512.5 968.061C513.478 968.061 514.24 967.555 514.785 966.543C515.33 965.518 515.602 963.953 515.602 961.847C515.602 960.059 515.428 958.674 515.078 957.69L510.425 966.98C510.928 967.7 511.62 968.061 512.5 968.061Z" fill="url(#paint88_linear_175_1884)" fill-opacity="0.6"/>
<path d="M551.43 740.751C552.926 740.751 554.057 741.381 554.826 742.642C555.609 743.889 556 745.704 556 748.087C556 750.47 555.609 752.292 554.826 753.553C554.057 754.814 552.926 755.444 551.43 755.444C549.949 755.444 548.817 754.814 548.034 753.553C547.252 752.292 546.86 750.47 546.86 748.087C546.86 745.718 547.252 743.903 548.034 742.642C548.817 741.381 549.949 740.751 551.43 740.751ZM548.349 748.087C548.349 749.777 548.502 751.101 548.81 752.057L553.464 742.85C552.974 742.199 552.297 741.873 551.43 741.873C550.466 741.873 549.711 742.386 549.166 743.411C548.621 744.423 548.349 745.981 548.349 748.087ZM551.43 754.301C552.408 754.301 553.17 753.795 553.715 752.784C554.26 751.759 554.533 750.193 554.533 748.087C554.533 746.3 554.358 744.914 554.009 743.931L549.355 753.22C549.858 753.941 550.55 754.301 551.43 754.301Z" fill="url(#paint89_linear_175_1884)" fill-opacity="0.6"/>
<path d="M552.688 777.886H555.769V778.987H547.783V777.886H551.346V766.206L547.95 768.222L547.363 767.287L551.556 764.71H552.688V777.886Z" fill="url(#paint90_linear_175_1884)" fill-opacity="0.6"/>
<path d="M552.688 801.637H555.769V802.738H547.783V801.637H551.346V789.957L547.95 791.973L547.363 791.038L551.556 788.461H552.688V801.637Z" fill="url(#paint91_linear_175_1884)" fill-opacity="0.6"/>
<path d="M551.43 812.004C552.926 812.004 554.057 812.635 554.826 813.895C555.609 815.142 556 816.957 556 819.34C556 821.723 555.609 823.545 554.826 824.806C554.057 826.067 552.926 826.697 551.43 826.697C549.949 826.697 548.817 826.067 548.034 824.806C547.252 823.545 546.86 821.723 546.86 819.34C546.86 816.971 547.252 815.156 548.034 813.895C548.817 812.635 549.949 812.004 551.43 812.004ZM548.349 819.34C548.349 821.031 548.502 822.354 548.81 823.31L553.464 814.103C552.974 813.452 552.297 813.126 551.43 813.126C550.466 813.126 549.711 813.639 549.166 814.664C548.621 815.676 548.349 817.234 548.349 819.34ZM551.43 825.554C552.408 825.554 553.17 825.049 553.715 824.037C554.26 823.012 554.533 821.446 554.533 819.34C554.533 817.553 554.358 816.168 554.009 815.184L549.355 824.474C549.858 825.194 550.55 825.554 551.43 825.554Z" fill="url(#paint92_linear_175_1884)" fill-opacity="0.6"/>
<path d="M551.43 835.755C552.926 835.755 554.057 836.386 554.826 837.646C555.609 838.893 556 840.708 556 843.091C556 845.474 555.609 847.296 554.826 848.557C554.057 849.818 552.926 850.448 551.43 850.448C549.949 850.448 548.817 849.818 548.034 848.557C547.252 847.296 546.86 845.474 546.86 843.091C546.86 840.722 547.252 838.907 548.034 837.646C548.817 836.386 549.949 835.755 551.43 835.755ZM548.349 843.091C548.349 844.782 548.502 846.105 548.81 847.061L553.464 837.854C552.974 837.203 552.297 836.878 551.43 836.878C550.466 836.878 549.711 837.39 549.166 838.415C548.621 839.427 548.349 840.985 548.349 843.091ZM551.43 849.305C552.408 849.305 553.17 848.8 553.715 847.788C554.26 846.763 554.533 845.197 554.533 843.091C554.533 841.304 554.358 839.919 554.009 838.935L549.355 848.225C549.858 848.945 550.55 849.305 551.43 849.305Z" fill="url(#paint93_linear_175_1884)" fill-opacity="0.6"/>
</g>
<defs>
<filter id="filter0_f_175_1884" x="-558.19" y="-716.19" width="2141.38" height="1500.38" filterUnits="userSpaceOnUse" color-interpolation-filters="sRGB">
<feFlood flood-opacity="0" result="BackgroundImageFix"/>
<feBlend mode="normal" in="SourceGraphic" in2="BackgroundImageFix" result="shape"/>
<feGaussianBlur stdDeviation="200.095" result="effect1_foregroundBlur_175_1884"/>
</filter>
<linearGradient id="paint0_linear_175_1884" x1="512.5" y1="384" x2="512.5" y2="682.818" gradientUnits="userSpaceOnUse">
<stop stop-color="#F7DD43"/>
<stop offset="1" stop-color="#F7DD43" stop-opacity="0"/>
</linearGradient>
<linearGradient id="paint1_linear_175_1884" x1="512.5" y1="384" x2="512.5" y2="682.818" gradientUnits="userSpaceOnUse">
<stop stop-color="#F7DD43"/>
<stop offset="1" stop-color="#F7DD43" stop-opacity="0"/>
</linearGradient>
<linearGradient id="paint2_linear_175_1884" x1="512.5" y1="384" x2="512.5" y2="682.818" gradientUnits="userSpaceOnUse">
<stop stop-color="#F7DD43"/>
<stop offset="1" stop-color="#F7DD43" stop-opacity="0"/>
</linearGradient>
<linearGradient id="paint3_linear_175_1884" x1="512.5" y1="384" x2="512.5" y2="682.818" gradientUnits="userSpaceOnUse">
<stop stop-color="#F7DD43"/>
<stop offset="1" stop-color="#F7DD43" stop-opacity="0"/>
</linearGradient>
<linearGradient id="paint4_linear_175_1884" x1="512.5" y1="384" x2="512.5" y2="682.818" gradientUnits="userSpaceOnUse">
<stop stop-color="#F7DD43"/>
<stop offset="1" stop-color="#F7DD43" stop-opacity="0"/>
</linearGradient>
<linearGradient id="paint5_linear_175_1884" x1="512.5" y1="384" x2="512.5" y2="682.818" gradientUnits="userSpaceOnUse">
<stop stop-color="#F7DD43"/>
<stop offset="1" stop-color="#F7DD43" stop-opacity="0"/>
</linearGradient>
<linearGradient id="paint6_linear_175_1884" x1="512.5" y1="384" x2="512.5" y2="682.818" gradientUnits="userSpaceOnUse">
<stop stop-color="#F7DD43"/>
<stop offset="1" stop-color="#F7DD43" stop-opacity="0"/>
</linearGradient>
<linearGradient id="paint7_linear_175_1884" x1="512.5" y1="384" x2="512.5" y2="682.818" gradientUnits="userSpaceOnUse">
<stop stop-color="#F7DD43"/>
<stop offset="1" stop-color="#F7DD43" stop-opacity="0"/>
</linearGradient>
<linearGradient id="paint8_linear_175_1884" x1="512.5" y1="384" x2="512.5" y2="682.818" gradientUnits="userSpaceOnUse">
<stop stop-color="#F7DD43"/>
<stop offset="1" stop-color="#F7DD43" stop-opacity="0"/>
</linearGradient>
<linearGradient id="paint9_linear_175_1884" x1="512.5" y1="384" x2="512.5" y2="682.818" gradientUnits="userSpaceOnUse">
<stop stop-color="#F7DD43"/>
<stop offset="1" stop-color="#F7DD43" stop-opacity="0"/>
</linearGradient>
<linearGradient id="paint10_linear_175_1884" x1="512.5" y1="384" x2="512.5" y2="682.818" gradientUnits="userSpaceOnUse">
<stop stop-color="#F7DD43"/>
<stop offset="1" stop-color="#F7DD43" stop-opacity="0"/>
</linearGradient>
<linearGradient id="paint11_linear_175_1884" x1="512.5" y1="384" x2="512.5" y2="682.818" gradientUnits="userSpaceOnUse">
<stop stop-color="#F7DD43"/>
<stop offset="1" stop-color="#F7DD43" stop-opacity="0"/>
</linearGradient>
<linearGradient id="paint12_linear_175_1884" x1="512.5" y1="384" x2="512.5" y2="682.818" gradientUnits="userSpaceOnUse">
<stop stop-color="#F7DD43"/>
<stop offset="1" stop-color="#F7DD43" stop-opacity="0"/>
</linearGradient>
<linearGradient id="paint13_linear_175_1884" x1="512.5" y1="384" x2="512.5" y2="682.818" gradientUnits="userSpaceOnUse">
<stop stop-color="#F7DD43"/>
<stop offset="1" stop-color="#F7DD43" stop-opacity="0"/>
</linearGradient>
<linearGradient id="paint14_linear_175_1884" x1="512.5" y1="384" x2="512.5" y2="682.818" gradientUnits="userSpaceOnUse">
<stop stop-color="#F7DD43"/>
<stop offset="1" stop-color="#F7DD43" stop-opacity="0"/>
</linearGradient>
<linearGradient id="paint15_linear_175_1884" x1="512.5" y1="384" x2="512.5" y2="682.818" gradientUnits="userSpaceOnUse">
<stop stop-color="#F7DD43"/>
<stop offset="1" stop-color="#F7DD43" stop-opacity="0"/>
</linearGradient>
<linearGradient id="paint16_linear_175_1884" x1="512.5" y1="384" x2="512.5" y2="682.818" gradientUnits="userSpaceOnUse">
<stop stop-color="#F7DD43"/>
<stop offset="1" stop-color="#F7DD43" stop-opacity="0"/>
</linearGradient>
<linearGradient id="paint17_linear_175_1884" x1="512.5" y1="384" x2="512.5" y2="682.818" gradientUnits="userSpaceOnUse">
<stop stop-color="#F7DD43"/>
<stop offset="1" stop-color="#F7DD43" stop-opacity="0"/>
</linearGradient>
<linearGradient id="paint18_linear_175_1884" x1="512.5" y1="384" x2="512.5" y2="682.818" gradientUnits="userSpaceOnUse">
<stop stop-color="#F7DD43"/>
<stop offset="1" stop-color="#F7DD43" stop-opacity="0"/>
</linearGradient>
<linearGradient id="paint19_linear_175_1884" x1="512.5" y1="384" x2="512.5" y2="682.818" gradientUnits="userSpaceOnUse">
<stop stop-color="#F7DD43"/>
<stop offset="1" stop-color="#F7DD43" stop-opacity="0"/>
</linearGradient>
<linearGradient id="paint20_linear_175_1884" x1="512.5" y1="384" x2="512.5" y2="682.818" gradientUnits="userSpaceOnUse">
<stop stop-color="#F7DD43"/>
<stop offset="1" stop-color="#F7DD43" stop-opacity="0"/>
</linearGradient>
<linearGradient id="paint21_linear_175_1884" x1="512.5" y1="384" x2="512.5" y2="682.818" gradientUnits="userSpaceOnUse">
<stop stop-color="#F7DD43"/>
<stop offset="1" stop-color="#F7DD43" stop-opacity="0"/>
</linearGradient>
<linearGradient id="paint22_linear_175_1884" x1="512.5" y1="384" x2="512.5" y2="682.818" gradientUnits="userSpaceOnUse">
<stop stop-color="#F7DD43"/>
<stop offset="1" stop-color="#F7DD43" stop-opacity="0"/>
</linearGradient>
<linearGradient id="paint23_linear_175_1884" x1="512.5" y1="384" x2="512.5" y2="682.818" gradientUnits="userSpaceOnUse">
<stop stop-color="#F7DD43"/>
<stop offset="1" stop-color="#F7DD43" stop-opacity="0"/>
</linearGradient>
<linearGradient id="paint24_linear_175_1884" x1="512.5" y1="384" x2="512.5" y2="682.818" gradientUnits="userSpaceOnUse">
<stop stop-color="#F7DD43"/>
<stop offset="1" stop-color="#F7DD43" stop-opacity="0"/>
</linearGradient>
<linearGradient id="paint25_linear_175_1884" x1="512.5" y1="384" x2="512.5" y2="682.818" gradientUnits="userSpaceOnUse">
<stop stop-color="#F7DD43"/>
<stop offset="1" stop-color="#F7DD43" stop-opacity="0"/>
</linearGradient>
<linearGradient id="paint26_linear_175_1884" x1="512.5" y1="384" x2="512.5" y2="682.818" gradientUnits="userSpaceOnUse">
<stop stop-color="#F7DD43"/>
<stop offset="1" stop-color="#F7DD43" stop-opacity="0"/>
</linearGradient>
<linearGradient id="paint27_linear_175_1884" x1="512.5" y1="384" x2="512.5" y2="682.818" gradientUnits="userSpaceOnUse">
<stop stop-color="#F7DD43"/>
<stop offset="1" stop-color="#F7DD43" stop-opacity="0"/>
</linearGradient>
<linearGradient id="paint28_linear_175_1884" x1="512.5" y1="384" x2="512.5" y2="682.818" gradientUnits="userSpaceOnUse">
<stop stop-color="#F7DD43"/>
<stop offset="1" stop-color="#F7DD43" stop-opacity="0"/>
</linearGradient>
<linearGradient id="paint29_linear_175_1884" x1="512.5" y1="384" x2="512.5" y2="682.818" gradientUnits="userSpaceOnUse">
<stop stop-color="#F7DD43"/>
<stop offset="1" stop-color="#F7DD43" stop-opacity="0"/>
</linearGradient>
<linearGradient id="paint30_linear_175_1884" x1="512.5" y1="384" x2="512.5" y2="682.818" gradientUnits="userSpaceOnUse">
<stop stop-color="#F7DD43"/>
<stop offset="1" stop-color="#F7DD43" stop-opacity="0"/>
</linearGradient>
<linearGradient id="paint31_linear_175_1884" x1="512.5" y1="384" x2="512.5" y2="682.818" gradientUnits="userSpaceOnUse">
<stop stop-color="#F7DD43"/>
<stop offset="1" stop-color="#F7DD43" stop-opacity="0"/>
</linearGradient>
<linearGradient id="paint32_linear_175_1884" x1="512.5" y1="384" x2="512.5" y2="682.818" gradientUnits="userSpaceOnUse">
<stop stop-color="#F7DD43"/>
<stop offset="1" stop-color="#F7DD43" stop-opacity="0"/>
</linearGradient>
<linearGradient id="paint33_linear_175_1884" x1="512.5" y1="384" x2="512.5" y2="682.818" gradientUnits="userSpaceOnUse">
<stop stop-color="#F7DD43"/>
<stop offset="1" stop-color="#F7DD43" stop-opacity="0"/>
</linearGradient>
<linearGradient id="paint34_linear_175_1884" x1="512.5" y1="384" x2="512.5" y2="682.818" gradientUnits="userSpaceOnUse">
<stop stop-color="#F7DD43"/>
<stop offset="1" stop-color="#F7DD43" stop-opacity="0"/>
</linearGradient>
<linearGradient id="paint35_linear_175_1884" x1="512.5" y1="384" x2="512.5" y2="682.818" gradientUnits="userSpaceOnUse">
<stop stop-color="#F7DD43"/>
<stop offset="1" stop-color="#F7DD43" stop-opacity="0"/>
</linearGradient>
<linearGradient id="paint36_linear_175_1884" x1="512.5" y1="384" x2="512.5" y2="682.818" gradientUnits="userSpaceOnUse">
<stop stop-color="#F7DD43"/>
<stop offset="1" stop-color="#F7DD43" stop-opacity="0"/>
</linearGradient>
<linearGradient id="paint37_linear_175_1884" x1="512.5" y1="384" x2="512.5" y2="682.818" gradientUnits="userSpaceOnUse">
<stop stop-color="#F7DD43"/>
<stop offset="1" stop-color="#F7DD43" stop-opacity="0"/>
</linearGradient>
<linearGradient id="paint38_linear_175_1884" x1="512.5" y1="384" x2="512.5" y2="682.818" gradientUnits="userSpaceOnUse">
<stop stop-color="#F7DD43"/>
<stop offset="1" stop-color="#F7DD43" stop-opacity="0"/>
</linearGradient>
<linearGradient id="paint39_linear_175_1884" x1="512.5" y1="384" x2="512.5" y2="682.818" gradientUnits="userSpaceOnUse">
<stop stop-color="#F7DD43"/>
<stop offset="1" stop-color="#F7DD43" stop-opacity="0"/>
</linearGradient>
<linearGradient id="paint40_linear_175_1884" x1="512.5" y1="384" x2="512.5" y2="682.818" gradientUnits="userSpaceOnUse">
<stop stop-color="#F7DD43"/>
<stop offset="1" stop-color="#F7DD43" stop-opacity="0"/>
</linearGradient>
<linearGradient id="paint41_linear_175_1884" x1="512.5" y1="384" x2="512.5" y2="682.818" gradientUnits="userSpaceOnUse">
<stop stop-color="#F7DD43"/>
<stop offset="1" stop-color="#F7DD43" stop-opacity="0"/>
</linearGradient>
<linearGradient id="paint42_linear_175_1884" x1="512.5" y1="384" x2="512.5" y2="682.818" gradientUnits="userSpaceOnUse">
<stop stop-color="#F7DD43"/>
<stop offset="1" stop-color="#F7DD43" stop-opacity="0"/>
</linearGradient>
<linearGradient id="paint43_linear_175_1884" x1="512.5" y1="384" x2="512.5" y2="682.818" gradientUnits="userSpaceOnUse">
<stop stop-color="#F7DD43"/>
<stop offset="1" stop-color="#F7DD43" stop-opacity="0"/>
</linearGradient>
<linearGradient id="paint44_linear_175_1884" x1="512.5" y1="384" x2="512.5" y2="682.818" gradientUnits="userSpaceOnUse">
<stop stop-color="#F7DD43"/>
<stop offset="1" stop-color="#F7DD43" stop-opacity="0"/>
</linearGradient>
<linearGradient id="paint45_linear_175_1884" x1="512.5" y1="384" x2="512.5" y2="682.818" gradientUnits="userSpaceOnUse">
<stop stop-color="#F7DD43"/>
<stop offset="1" stop-color="#F7DD43" stop-opacity="0"/>
</linearGradient>
<linearGradient id="paint46_linear_175_1884" x1="512.5" y1="384" x2="512.5" y2="682.818" gradientUnits="userSpaceOnUse">
<stop stop-color="#F7DD43"/>
<stop offset="1" stop-color="#F7DD43" stop-opacity="0"/>
</linearGradient>
<linearGradient id="paint47_linear_175_1884" x1="512.5" y1="717" x2="512.5" y2="1028.38" gradientUnits="userSpaceOnUse">
<stop stop-color="#F7DD43"/>
<stop offset="1" stop-color="#F7DD43" stop-opacity="0"/>
</linearGradient>
<linearGradient id="paint48_linear_175_1884" x1="512.5" y1="717" x2="512.5" y2="1028.38" gradientUnits="userSpaceOnUse">
<stop stop-color="#F7DD43"/>
<stop offset="1" stop-color="#F7DD43" stop-opacity="0"/>
</linearGradient>
<linearGradient id="paint49_linear_175_1884" x1="512.5" y1="717" x2="512.5" y2="1028.38" gradientUnits="userSpaceOnUse">
<stop stop-color="#F7DD43"/>
<stop offset="1" stop-color="#F7DD43" stop-opacity="0"/>
</linearGradient>
<linearGradient id="paint50_linear_175_1884" x1="512.5" y1="717" x2="512.5" y2="1028.38" gradientUnits="userSpaceOnUse">
<stop stop-color="#F7DD43"/>
<stop offset="1" stop-color="#F7DD43" stop-opacity="0"/>
</linearGradient>
<linearGradient id="paint51_linear_175_1884" x1="512.5" y1="717" x2="512.5" y2="1028.38" gradientUnits="userSpaceOnUse">
<stop stop-color="#F7DD43"/>
<stop offset="1" stop-color="#F7DD43" stop-opacity="0"/>
</linearGradient>
<linearGradient id="paint52_linear_175_1884" x1="512.5" y1="717" x2="512.5" y2="1028.38" gradientUnits="userSpaceOnUse">
<stop stop-color="#F7DD43"/>
<stop offset="1" stop-color="#F7DD43" stop-opacity="0"/>
</linearGradient>
<linearGradient id="paint53_linear_175_1884" x1="512.5" y1="717" x2="512.5" y2="1028.38" gradientUnits="userSpaceOnUse">
<stop stop-color="#F7DD43"/>
<stop offset="1" stop-color="#F7DD43" stop-opacity="0"/>
</linearGradient>
<linearGradient id="paint54_linear_175_1884" x1="512.5" y1="717" x2="512.5" y2="1028.38" gradientUnits="userSpaceOnUse">
<stop stop-color="#F7DD43"/>
<stop offset="1" stop-color="#F7DD43" stop-opacity="0"/>
</linearGradient>
<linearGradient id="paint55_linear_175_1884" x1="512.5" y1="717" x2="512.5" y2="1028.38" gradientUnits="userSpaceOnUse">
<stop stop-color="#F7DD43"/>
<stop offset="1" stop-color="#F7DD43" stop-opacity="0"/>
</linearGradient>
<linearGradient id="paint56_linear_175_1884" x1="512.5" y1="717" x2="512.5" y2="1028.38" gradientUnits="userSpaceOnUse">
<stop stop-color="#F7DD43"/>
<stop offset="1" stop-color="#F7DD43" stop-opacity="0"/>
</linearGradient>
<linearGradient id="paint57_linear_175_1884" x1="512.5" y1="717" x2="512.5" y2="1028.38" gradientUnits="userSpaceOnUse">
<stop stop-color="#F7DD43"/>
<stop offset="1" stop-color="#F7DD43" stop-opacity="0"/>
</linearGradient>
<linearGradient id="paint58_linear_175_1884" x1="512.5" y1="717" x2="512.5" y2="1028.38" gradientUnits="userSpaceOnUse">
<stop stop-color="#F7DD43"/>
<stop offset="1" stop-color="#F7DD43" stop-opacity="0"/>
</linearGradient>
<linearGradient id="paint59_linear_175_1884" x1="512.5" y1="717" x2="512.5" y2="1028.38" gradientUnits="userSpaceOnUse">
<stop stop-color="#F7DD43"/>
<stop offset="1" stop-color="#F7DD43" stop-opacity="0"/>
</linearGradient>
<linearGradient id="paint60_linear_175_1884" x1="512.5" y1="717" x2="512.5" y2="1028.38" gradientUnits="userSpaceOnUse">
<stop stop-color="#F7DD43"/>
<stop offset="1" stop-color="#F7DD43" stop-opacity="0"/>
</linearGradient>
<linearGradient id="paint61_linear_175_1884" x1="512.5" y1="717" x2="512.5" y2="1028.38" gradientUnits="userSpaceOnUse">
<stop stop-color="#F7DD43"/>
<stop offset="1" stop-color="#F7DD43" stop-opacity="0"/>
</linearGradient>
<linearGradient id="paint62_linear_175_1884" x1="512.5" y1="717" x2="512.5" y2="1028.38" gradientUnits="userSpaceOnUse">
<stop stop-color="#F7DD43"/>
<stop offset="1" stop-color="#F7DD43" stop-opacity="0"/>
</linearGradient>
<linearGradient id="paint63_linear_175_1884" x1="512.5" y1="717" x2="512.5" y2="1028.38" gradientUnits="userSpaceOnUse">
<stop stop-color="#F7DD43"/>
<stop offset="1" stop-color="#F7DD43" stop-opacity="0"/>
</linearGradient>
<linearGradient id="paint64_linear_175_1884" x1="512.5" y1="717" x2="512.5" y2="1028.38" gradientUnits="userSpaceOnUse">
<stop stop-color="#F7DD43"/>
<stop offset="1" stop-color="#F7DD43" stop-opacity="0"/>
</linearGradient>
<linearGradient id="paint65_linear_175_1884" x1="512.5" y1="717" x2="512.5" y2="1028.38" gradientUnits="userSpaceOnUse">
<stop stop-color="#F7DD43"/>
<stop offset="1" stop-color="#F7DD43" stop-opacity="0"/>
</linearGradient>
<linearGradient id="paint66_linear_175_1884" x1="512.5" y1="717" x2="512.5" y2="1028.38" gradientUnits="userSpaceOnUse">
<stop stop-color="#F7DD43"/>
<stop offset="1" stop-color="#F7DD43" stop-opacity="0"/>
</linearGradient>
<linearGradient id="paint67_linear_175_1884" x1="512.5" y1="717" x2="512.5" y2="1028.38" gradientUnits="userSpaceOnUse">
<stop stop-color="#F7DD43"/>
<stop offset="1" stop-color="#F7DD43" stop-opacity="0"/>
</linearGradient>
<linearGradient id="paint68_linear_175_1884" x1="512.5" y1="717" x2="512.5" y2="1028.38" gradientUnits="userSpaceOnUse">
<stop stop-color="#F7DD43"/>
<stop offset="1" stop-color="#F7DD43" stop-opacity="0"/>
</linearGradient>
<linearGradient id="paint69_linear_175_1884" x1="512.5" y1="717" x2="512.5" y2="1028.38" gradientUnits="userSpaceOnUse">
<stop stop-color="#F7DD43"/>
<stop offset="1" stop-color="#F7DD43" stop-opacity="0"/>
</linearGradient>
<linearGradient id="paint70_linear_175_1884" x1="512.5" y1="717" x2="512.5" y2="1028.38" gradientUnits="userSpaceOnUse">
<stop stop-color="#F7DD43"/>
<stop offset="1" stop-color="#F7DD43" stop-opacity="0"/>
</linearGradient>
<linearGradient id="paint71_linear_175_1884" x1="512.5" y1="717" x2="512.5" y2="1028.38" gradientUnits="userSpaceOnUse">
<stop stop-color="#F7DD43"/>
<stop offset="1" stop-color="#F7DD43" stop-opacity="0"/>
</linearGradient>
<linearGradient id="paint72_linear_175_1884" x1="512.5" y1="717" x2="512.5" y2="1028.38" gradientUnits="userSpaceOnUse">
<stop stop-color="#F7DD43"/>
<stop offset="1" stop-color="#F7DD43" stop-opacity="0"/>
</linearGradient>
<linearGradient id="paint73_linear_175_1884" x1="512.5" y1="717" x2="512.5" y2="1028.38" gradientUnits="userSpaceOnUse">
<stop stop-color="#F7DD43"/>
<stop offset="1" stop-color="#F7DD43" stop-opacity="0"/>
</linearGradient>
<linearGradient id="paint74_linear_175_1884" x1="512.5" y1="717" x2="512.5" y2="1028.38" gradientUnits="userSpaceOnUse">
<stop stop-color="#F7DD43"/>
<stop offset="1" stop-color="#F7DD43" stop-opacity="0"/>
</linearGradient>
<linearGradient id="paint75_linear_175_1884" x1="512.5" y1="717" x2="512.5" y2="1028.38" gradientUnits="userSpaceOnUse">
<stop stop-color="#F7DD43"/>
<stop offset="1" stop-color="#F7DD43" stop-opacity="0"/>
</linearGradient>
<linearGradient id="paint76_linear_175_1884" x1="512.5" y1="717" x2="512.5" y2="1028.38" gradientUnits="userSpaceOnUse">
<stop stop-color="#F7DD43"/>
<stop offset="1" stop-color="#F7DD43" stop-opacity="0"/>
</linearGradient>
<linearGradient id="paint77_linear_175_1884" x1="512.5" y1="717" x2="512.5" y2="1028.38" gradientUnits="userSpaceOnUse">
<stop stop-color="#F7DD43"/>
<stop offset="1" stop-color="#F7DD43" stop-opacity="0"/>
</linearGradient>
<linearGradient id="paint78_linear_175_1884" x1="512.5" y1="717" x2="512.5" y2="1028.38" gradientUnits="userSpaceOnUse">
<stop stop-color="#F7DD43"/>
<stop offset="1" stop-color="#F7DD43" stop-opacity="0"/>
</linearGradient>
<linearGradient id="paint79_linear_175_1884" x1="512.5" y1="717" x2="512.5" y2="1028.38" gradientUnits="userSpaceOnUse">
<stop stop-color="#F7DD43"/>
<stop offset="1" stop-color="#F7DD43" stop-opacity="0"/>
</linearGradient>
<linearGradient id="paint80_linear_175_1884" x1="512.5" y1="717" x2="512.5" y2="1028.38" gradientUnits="userSpaceOnUse">
<stop stop-color="#F7DD43"/>
<stop offset="1" stop-color="#F7DD43" stop-opacity="0"/>
</linearGradient>
<linearGradient id="paint81_linear_175_1884" x1="512.5" y1="717" x2="512.5" y2="1028.38" gradientUnits="userSpaceOnUse">
<stop stop-color="#F7DD43"/>
<stop offset="1" stop-color="#F7DD43" stop-opacity="0"/>
</linearGradient>
<linearGradient id="paint82_linear_175_1884" x1="512.5" y1="717" x2="512.5" y2="1028.38" gradientUnits="userSpaceOnUse">
<stop stop-color="#F7DD43"/>
<stop offset="1" stop-color="#F7DD43" stop-opacity="0"/>
</linearGradient>
<linearGradient id="paint83_linear_175_1884" x1="512.5" y1="717" x2="512.5" y2="1028.38" gradientUnits="userSpaceOnUse">
<stop stop-color="#F7DD43"/>
<stop offset="1" stop-color="#F7DD43" stop-opacity="0"/>
</linearGradient>
<linearGradient id="paint84_linear_175_1884" x1="512.5" y1="717" x2="512.5" y2="1028.38" gradientUnits="userSpaceOnUse">
<stop stop-color="#F7DD43"/>
<stop offset="1" stop-color="#F7DD43" stop-opacity="0"/>
</linearGradient>
<linearGradient id="paint85_linear_175_1884" x1="512.5" y1="717" x2="512.5" y2="1028.38" gradientUnits="userSpaceOnUse">
<stop stop-color="#F7DD43"/>
<stop offset="1" stop-color="#F7DD43" stop-opacity="0"/>
</linearGradient>
<linearGradient id="paint86_linear_175_1884" x1="512.5" y1="717" x2="512.5" y2="1028.38" gradientUnits="userSpaceOnUse">
<stop stop-color="#F7DD43"/>
<stop offset="1" stop-color="#F7DD43" stop-opacity="0"/>
</linearGradient>
<linearGradient id="paint87_linear_175_1884" x1="512.5" y1="717" x2="512.5" y2="1028.38" gradientUnits="userSpaceOnUse">
<stop stop-color="#F7DD43"/>
<stop offset="1" stop-color="#F7DD43" stop-opacity="0"/>
</linearGradient>
<linearGradient id="paint88_linear_175_1884" x1="512.5" y1="717" x2="512.5" y2="1028.38" gradientUnits="userSpaceOnUse">
<stop stop-color="#F7DD43"/>
<stop offset="1" stop-color="#F7DD43" stop-opacity="0"/>
</linearGradient>
<linearGradient id="paint89_linear_175_1884" x1="512.5" y1="717" x2="512.5" y2="1028.38" gradientUnits="userSpaceOnUse">
<stop stop-color="#F7DD43"/>
<stop offset="1" stop-color="#F7DD43" stop-opacity="0"/>
</linearGradient>
<linearGradient id="paint90_linear_175_1884" x1="512.5" y1="717" x2="512.5" y2="1028.38" gradientUnits="userSpaceOnUse">
<stop stop-color="#F7DD43"/>
<stop offset="1" stop-color="#F7DD43" stop-opacity="0"/>
</linearGradient>
<linearGradient id="paint91_linear_175_1884" x1="512.5" y1="717" x2="512.5" y2="1028.38" gradientUnits="userSpaceOnUse">
<stop stop-color="#F7DD43"/>
<stop offset="1" stop-color="#F7DD43" stop-opacity="0"/>
</linearGradient>
<linearGradient id="paint92_linear_175_1884" x1="512.5" y1="717" x2="512.5" y2="1028.38" gradientUnits="userSpaceOnUse">
<stop stop-color="#F7DD43"/>
<stop offset="1" stop-color="#F7DD43" stop-opacity="0"/>
</linearGradient>
<linearGradient id="paint93_linear_175_1884" x1="512.5" y1="717" x2="512.5" y2="1028.38" gradientUnits="userSpaceOnUse">
<stop stop-color="#F7DD43"/>
<stop offset="1" stop-color="#F7DD43" stop-opacity="0"/>
</linearGradient>
<clipPath id="clip0_175_1884">
<rect width="1024" height="753" fill="white"/>
</clipPath>
</defs>
</svg>
