<svg width="1024" height="753" viewBox="0 0 1024 753" fill="none" xmlns="http://www.w3.org/2000/svg">
<g clip-path="url(#clip0_175_1867)">
<rect width="1024" height="753" fill="#121214"/>
<g opacity="0.2" filter="url(#filter0_f_175_1867)">
<ellipse cx="510.5" cy="35" rx="670.5" ry="350" fill="#35875D"/>
</g>
<path d="M31.0349 271C32.5302 271 33.6622 271.63 34.4308 272.891C35.2134 274.138 35.6047 275.953 35.6047 278.336C35.6047 280.719 35.2134 282.541 34.4308 283.802C33.6622 285.063 32.5302 285.693 31.0349 285.693C29.5536 285.693 28.4216 285.063 27.639 283.802C26.8564 282.541 26.4651 280.719 26.4651 278.336C26.4651 275.967 26.8564 274.152 27.639 272.891C28.4216 271.63 29.5536 271 31.0349 271ZM27.9534 278.336C27.9534 280.026 28.1072 281.35 28.4146 282.306L33.0683 273.099C32.5791 272.448 31.9013 272.122 31.0349 272.122C30.0706 272.122 29.316 272.635 28.771 273.66C28.2259 274.672 27.9534 276.23 27.9534 278.336ZM31.0349 284.55C32.0131 284.55 32.7748 284.044 33.3198 283.033C33.8648 282.008 34.1373 280.442 34.1373 278.336C34.1373 276.549 33.9627 275.163 33.6133 274.18L28.9596 283.469C29.4627 284.19 30.1545 284.55 31.0349 284.55Z" fill="url(#paint0_linear_175_1867)" fill-opacity="0.6"/>
<path d="M32.2926 308.135H35.3741V309.236H27.3874V308.135H30.9511V296.455L27.5551 298.471L26.9682 297.536L31.1607 294.959H32.2926V308.135Z" fill="url(#paint1_linear_175_1867)" fill-opacity="0.6"/>
<path d="M31.0349 318.502C32.5302 318.502 33.6622 319.133 34.4308 320.393C35.2134 321.64 35.6047 323.455 35.6047 325.838C35.6047 328.221 35.2134 330.043 34.4308 331.304C33.6622 332.565 32.5302 333.195 31.0349 333.195C29.5536 333.195 28.4216 332.565 27.639 331.304C26.8564 330.043 26.4651 328.221 26.4651 325.838C26.4651 323.469 26.8564 321.654 27.639 320.393C28.4216 319.133 29.5536 318.502 31.0349 318.502ZM27.9534 325.838C27.9534 327.529 28.1072 328.852 28.4146 329.808L33.0683 320.601C32.5791 319.95 31.9013 319.624 31.0349 319.624C30.0706 319.624 29.316 320.137 28.771 321.162C28.2259 322.174 27.9534 323.732 27.9534 325.838ZM31.0349 332.052C32.0131 332.052 32.7748 331.546 33.3198 330.535C33.8648 329.51 34.1373 327.944 34.1373 325.838C34.1373 324.051 33.9627 322.665 33.6133 321.682L28.9596 330.971C29.4627 331.692 30.1545 332.052 31.0349 332.052Z" fill="url(#paint2_linear_175_1867)" fill-opacity="0.6"/>
<path d="M32.2926 355.637H35.3741V356.738H27.3874V355.637H30.9511V343.957L27.5551 345.973L26.9682 345.038L31.1607 342.461H32.2926V355.637Z" fill="url(#paint3_linear_175_1867)" fill-opacity="0.6"/>
<path d="M32.2926 379.388H35.3741V380.489H27.3874V379.388H30.9511V367.708L27.5551 369.724L26.9682 368.789L31.1607 366.212H32.2926V379.388Z" fill="url(#paint4_linear_175_1867)" fill-opacity="0.6"/>
<path d="M31.0349 389.755C32.5302 389.755 33.6622 390.386 34.4308 391.646C35.2134 392.893 35.6047 394.708 35.6047 397.091C35.6047 399.474 35.2134 401.296 34.4308 402.557C33.6622 403.818 32.5302 404.448 31.0349 404.448C29.5536 404.448 28.4216 403.818 27.639 402.557C26.8564 401.296 26.4651 399.474 26.4651 397.091C26.4651 394.722 26.8564 392.907 27.639 391.646C28.4216 390.386 29.5536 389.755 31.0349 389.755ZM27.9534 397.091C27.9534 398.782 28.1072 400.105 28.4146 401.061L33.0683 391.854C32.5791 391.203 31.9013 390.878 31.0349 390.878C30.0706 390.878 29.316 391.39 28.771 392.415C28.2259 393.427 27.9534 394.985 27.9534 397.091ZM31.0349 403.305C32.0131 403.305 32.7748 402.8 33.3198 401.788C33.8648 400.763 34.1373 399.197 34.1373 397.091C34.1373 395.304 33.9627 393.919 33.6133 392.935L28.9596 402.225C29.4627 402.945 30.1545 403.305 31.0349 403.305Z" fill="url(#paint5_linear_175_1867)" fill-opacity="0.6"/>
<path d="M32.2926 426.89H35.3741V427.992H27.3874V426.89H30.9511V415.21L27.5551 417.226L26.9682 416.291L31.1607 413.714H32.2926V426.89Z" fill="url(#paint6_linear_175_1867)" fill-opacity="0.6"/>
<path d="M31.0349 437.257C32.5302 437.257 33.6622 437.888 34.4308 439.149C35.2134 440.396 35.6047 442.211 35.6047 444.594C35.6047 446.977 35.2134 448.798 34.4308 450.059C33.6622 451.32 32.5302 451.95 31.0349 451.95C29.5536 451.95 28.4216 451.32 27.639 450.059C26.8564 448.798 26.4651 446.977 26.4651 444.594C26.4651 442.224 26.8564 440.409 27.639 439.149C28.4216 437.888 29.5536 437.257 31.0349 437.257ZM27.9534 444.594C27.9534 446.284 28.1072 447.607 28.4146 448.563L33.0683 439.356C32.5791 438.705 31.9013 438.38 31.0349 438.38C30.0706 438.38 29.316 438.892 28.771 439.918C28.2259 440.929 27.9534 442.488 27.9534 444.594ZM31.0349 450.807C32.0131 450.807 32.7748 450.302 33.3198 449.29C33.8648 448.265 34.1373 446.699 34.1373 444.594C34.1373 442.806 33.9627 441.421 33.6133 440.437L28.9596 449.727C29.4627 450.447 30.1545 450.807 31.0349 450.807Z" fill="url(#paint7_linear_175_1867)" fill-opacity="0.6"/>
<path d="M31.0349 461.008C32.5302 461.008 33.6622 461.639 34.4308 462.9C35.2134 464.147 35.6047 465.962 35.6047 468.345C35.6047 470.728 35.2134 472.549 34.4308 473.81C33.6622 475.071 32.5302 475.701 31.0349 475.701C29.5536 475.701 28.4216 475.071 27.639 473.81C26.8564 472.549 26.4651 470.728 26.4651 468.345C26.4651 465.975 26.8564 464.16 27.639 462.9C28.4216 461.639 29.5536 461.008 31.0349 461.008ZM27.9534 468.345C27.9534 470.035 28.1072 471.358 28.4146 472.314L33.0683 463.107C32.5791 462.456 31.9013 462.131 31.0349 462.131C30.0706 462.131 29.316 462.643 28.771 463.669C28.2259 464.68 27.9534 466.239 27.9534 468.345ZM31.0349 474.558C32.0131 474.558 32.7748 474.053 33.3198 473.041C33.8648 472.016 34.1373 470.451 34.1373 468.345C34.1373 466.557 33.9627 465.172 33.6133 464.188L28.9596 473.478C29.4627 474.198 30.1545 474.558 31.0349 474.558Z" fill="url(#paint8_linear_175_1867)" fill-opacity="0.6"/>
<path d="M32.2926 498.143H35.3741V499.245H27.3874V498.143H30.9511V486.464L27.5551 488.48L26.9682 487.544L31.1607 484.967H32.2926V498.143Z" fill="url(#paint9_linear_175_1867)" fill-opacity="0.6"/>
<path d="M31.0349 508.511C32.5302 508.511 33.6622 509.141 34.4308 510.402C35.2134 511.649 35.6047 513.464 35.6047 515.847C35.6047 518.23 35.2134 520.052 34.4308 521.312C33.6622 522.573 32.5302 523.204 31.0349 523.204C29.5536 523.204 28.4216 522.573 27.639 521.312C26.8564 520.052 26.4651 518.23 26.4651 515.847C26.4651 513.478 26.8564 511.663 27.639 510.402C28.4216 509.141 29.5536 508.511 31.0349 508.511ZM27.9534 515.847C27.9534 517.537 28.1072 518.86 28.4146 519.816L33.0683 510.61C32.5791 509.958 31.9013 509.633 31.0349 509.633C30.0706 509.633 29.316 510.145 28.771 511.171C28.2259 512.182 27.9534 513.741 27.9534 515.847ZM31.0349 522.061C32.0131 522.061 32.7748 521.555 33.3198 520.543C33.8648 519.518 34.1373 517.953 34.1373 515.847C34.1373 514.059 33.9627 512.674 33.6133 511.69L28.9596 520.98C29.4627 521.7 30.1545 522.061 31.0349 522.061Z" fill="url(#paint10_linear_175_1867)" fill-opacity="0.6"/>
<path d="M32.2926 545.645H35.3741V546.747H27.3874V545.645H30.9511V533.966L27.5551 535.982L26.9682 535.046L31.1607 532.469H32.2926V545.645Z" fill="url(#paint11_linear_175_1867)" fill-opacity="0.6"/>
<path d="M32.2926 569.396H35.3741V570.498H27.3874V569.396H30.9511V557.717L27.5551 559.733L26.9682 558.798L31.1607 556.221H32.2926V569.396Z" fill="url(#paint12_linear_175_1867)" fill-opacity="0.6"/>
<path d="M69.9651 318.502C71.4604 318.502 72.5924 319.133 73.361 320.393C74.1436 321.64 74.5349 323.455 74.5349 325.838C74.5349 328.221 74.1436 330.043 73.361 331.304C72.5924 332.565 71.4604 333.195 69.9651 333.195C68.4838 333.195 67.3518 332.565 66.5692 331.304C65.7866 330.043 65.3953 328.221 65.3953 325.838C65.3953 323.469 65.7866 321.654 66.5692 320.393C67.3518 319.133 68.4838 318.502 69.9651 318.502ZM66.8836 325.838C66.8836 327.529 67.0374 328.852 67.3448 329.808L71.9985 320.601C71.5093 319.95 70.8315 319.624 69.9651 319.624C69.0008 319.624 68.2462 320.137 67.7012 321.162C67.1561 322.174 66.8836 323.732 66.8836 325.838ZM69.9651 332.052C70.9433 332.052 71.705 331.546 72.25 330.535C72.795 329.51 73.0675 327.944 73.0675 325.838C73.0675 324.051 72.8928 322.665 72.5435 321.682L67.8898 330.971C68.3929 331.692 69.0847 332.052 69.9651 332.052Z" fill="url(#paint13_linear_175_1867)" fill-opacity="0.6"/>
<path d="M71.2228 355.637H74.3043V356.738H66.3176V355.637H69.8812V343.957L66.4853 345.973L65.8984 345.038L70.0909 342.461H71.2228V355.637Z" fill="url(#paint14_linear_175_1867)" fill-opacity="0.6"/>
<path d="M69.9651 366.004C71.4604 366.004 72.5924 366.635 73.361 367.895C74.1436 369.142 74.5349 370.957 74.5349 373.34C74.5349 375.723 74.1436 377.545 73.361 378.806C72.5924 380.067 71.4604 380.697 69.9651 380.697C68.4838 380.697 67.3518 380.067 66.5692 378.806C65.7866 377.545 65.3953 375.723 65.3953 373.34C65.3953 370.971 65.7866 369.156 66.5692 367.895C67.3518 366.635 68.4838 366.004 69.9651 366.004ZM66.8836 373.34C66.8836 375.031 67.0374 376.354 67.3448 377.31L71.9985 368.103C71.5093 367.452 70.8315 367.126 69.9651 367.126C69.0008 367.126 68.2462 367.639 67.7012 368.664C67.1561 369.676 66.8836 371.234 66.8836 373.34ZM69.9651 379.554C70.9433 379.554 71.705 379.049 72.25 378.037C72.795 377.012 73.0675 375.446 73.0675 373.34C73.0675 371.553 72.8928 370.168 72.5435 369.184L67.8898 378.474C68.3929 379.194 69.0847 379.554 69.9651 379.554Z" fill="url(#paint15_linear_175_1867)" fill-opacity="0.6"/>
<path d="M69.9651 389.755C71.4604 389.755 72.5924 390.386 73.361 391.646C74.1436 392.893 74.5349 394.708 74.5349 397.091C74.5349 399.474 74.1436 401.296 73.361 402.557C72.5924 403.818 71.4604 404.448 69.9651 404.448C68.4838 404.448 67.3518 403.818 66.5692 402.557C65.7866 401.296 65.3953 399.474 65.3953 397.091C65.3953 394.722 65.7866 392.907 66.5692 391.646C67.3518 390.386 68.4838 389.755 69.9651 389.755ZM66.8836 397.091C66.8836 398.782 67.0374 400.105 67.3448 401.061L71.9985 391.854C71.5093 391.203 70.8315 390.878 69.9651 390.878C69.0008 390.878 68.2462 391.39 67.7012 392.415C67.1561 393.427 66.8836 394.985 66.8836 397.091ZM69.9651 403.305C70.9433 403.305 71.705 402.8 72.25 401.788C72.795 400.763 73.0675 399.197 73.0675 397.091C73.0675 395.304 72.8928 393.919 72.5435 392.935L67.8898 402.225C68.3929 402.945 69.0847 403.305 69.9651 403.305Z" fill="url(#paint16_linear_175_1867)" fill-opacity="0.6"/>
<path d="M71.2228 426.89H74.3043V427.992H66.3176V426.89H69.8812V415.21L66.4853 417.226L65.8984 416.291L70.0909 413.714H71.2228V426.89Z" fill="url(#paint17_linear_175_1867)" fill-opacity="0.6"/>
<path d="M69.9651 437.257C71.4604 437.257 72.5924 437.888 73.361 439.149C74.1436 440.396 74.5349 442.211 74.5349 444.594C74.5349 446.977 74.1436 448.798 73.361 450.059C72.5924 451.32 71.4604 451.95 69.9651 451.95C68.4838 451.95 67.3518 451.32 66.5692 450.059C65.7866 448.798 65.3953 446.977 65.3953 444.594C65.3953 442.224 65.7866 440.409 66.5692 439.149C67.3518 437.888 68.4838 437.257 69.9651 437.257ZM66.8836 444.594C66.8836 446.284 67.0374 447.607 67.3448 448.563L71.9985 439.356C71.5093 438.705 70.8315 438.38 69.9651 438.38C69.0008 438.38 68.2462 438.892 67.7012 439.918C67.1561 440.929 66.8836 442.488 66.8836 444.594ZM69.9651 450.807C70.9433 450.807 71.705 450.302 72.25 449.29C72.795 448.265 73.0675 446.699 73.0675 444.594C73.0675 442.806 72.8928 441.421 72.5435 440.437L67.8898 449.727C68.3929 450.447 69.0847 450.807 69.9651 450.807Z" fill="url(#paint18_linear_175_1867)" fill-opacity="0.6"/>
<path d="M71.2228 474.392H74.3043V475.494H66.3176V474.392H69.8812V462.713L66.4853 464.728L65.8984 463.793L70.0909 461.216H71.2228V474.392Z" fill="url(#paint19_linear_175_1867)" fill-opacity="0.6"/>
<path d="M69.9651 484.76C71.4604 484.76 72.5924 485.39 73.361 486.651C74.1436 487.898 74.5349 489.713 74.5349 492.096C74.5349 494.479 74.1436 496.301 73.361 497.561C72.5924 498.822 71.4604 499.453 69.9651 499.453C68.4838 499.453 67.3518 498.822 66.5692 497.561C65.7866 496.301 65.3953 494.479 65.3953 492.096C65.3953 489.726 65.7866 487.911 66.5692 486.651C67.3518 485.39 68.4838 484.76 69.9651 484.76ZM66.8836 492.096C66.8836 493.786 67.0374 495.109 67.3448 496.065L71.9985 486.859C71.5093 486.207 70.8315 485.882 69.9651 485.882C69.0008 485.882 68.2462 486.394 67.7012 487.42C67.1561 488.431 66.8836 489.99 66.8836 492.096ZM69.9651 498.31C70.9433 498.31 71.705 497.804 72.25 496.792C72.795 495.767 73.0675 494.202 73.0675 492.096C73.0675 490.308 72.8928 488.923 72.5435 487.939L67.8898 497.229C68.3929 497.949 69.0847 498.31 69.9651 498.31Z" fill="url(#paint20_linear_175_1867)" fill-opacity="0.6"/>
<path d="M69.9651 508.511C71.4604 508.511 72.5924 509.141 73.361 510.402C74.1436 511.649 74.5349 513.464 74.5349 515.847C74.5349 518.23 74.1436 520.052 73.361 521.312C72.5924 522.573 71.4604 523.204 69.9651 523.204C68.4838 523.204 67.3518 522.573 66.5692 521.312C65.7866 520.052 65.3953 518.23 65.3953 515.847C65.3953 513.478 65.7866 511.663 66.5692 510.402C67.3518 509.141 68.4838 508.511 69.9651 508.511ZM66.8836 515.847C66.8836 517.537 67.0374 518.86 67.3448 519.816L71.9985 510.61C71.5093 509.958 70.8315 509.633 69.9651 509.633C69.0008 509.633 68.2462 510.145 67.7012 511.171C67.1561 512.182 66.8836 513.741 66.8836 515.847ZM69.9651 522.061C70.9433 522.061 71.705 521.555 72.25 520.543C72.795 519.518 73.0675 517.953 73.0675 515.847C73.0675 514.059 72.8928 512.674 72.5435 511.69L67.8898 520.98C68.3929 521.7 69.0847 522.061 69.9651 522.061Z" fill="url(#paint21_linear_175_1867)" fill-opacity="0.6"/>
<path d="M71.2228 545.645H74.3043V546.747H66.3176V545.645H69.8812V533.966L66.4853 535.982L65.8984 535.046L70.0909 532.469H71.2228V545.645Z" fill="url(#paint22_linear_175_1867)" fill-opacity="0.6"/>
<path d="M69.9651 556.013C71.4604 556.013 72.5924 556.643 73.361 557.904C74.1436 559.151 74.5349 560.966 74.5349 563.349C74.5349 565.732 74.1436 567.554 73.361 568.815C72.5924 570.075 71.4604 570.706 69.9651 570.706C68.4838 570.706 67.3518 570.075 66.5692 568.815C65.7866 567.554 65.3953 565.732 65.3953 563.349C65.3953 560.98 65.7866 559.165 66.5692 557.904C67.3518 556.643 68.4838 556.013 69.9651 556.013ZM66.8836 563.349C66.8836 565.039 67.0374 566.362 67.3448 567.318L71.9985 558.112C71.5093 557.461 70.8315 557.135 69.9651 557.135C69.0008 557.135 68.2462 557.648 67.7012 558.673C67.1561 559.684 66.8836 561.243 66.8836 563.349ZM69.9651 569.563C70.9433 569.563 71.705 569.057 72.25 568.046C72.795 567.02 73.0675 565.455 73.0675 563.349C73.0675 561.562 72.8928 560.176 72.5435 559.192L67.8898 568.482C68.3929 569.202 69.0847 569.563 69.9651 569.563Z" fill="url(#paint23_linear_175_1867)" fill-opacity="0.6"/>
<path d="M71.2228 593.148H74.3043V594.249H66.3176V593.148H69.8812V581.468L66.4853 583.484L65.8984 582.549L70.0909 579.972H71.2228V593.148Z" fill="url(#paint24_linear_175_1867)" fill-opacity="0.6"/>
<path d="M71.2228 616.899H74.3043V618H66.3176V616.899H69.8812V605.219L66.4853 607.235L65.8984 606.3L70.0909 603.723H71.2228V616.899Z" fill="url(#paint25_linear_175_1867)" fill-opacity="0.6"/>
<path d="M11.5698 342.253C13.0651 342.253 14.1971 342.884 14.9657 344.144C15.7483 345.391 16.1396 347.206 16.1396 349.589C16.1396 351.972 15.7483 353.794 14.9657 355.055C14.1971 356.316 13.0651 356.946 11.5698 356.946C10.0885 356.946 8.95649 356.316 8.1739 355.055C7.3913 353.794 7 351.972 7 349.589C7 347.22 7.3913 345.405 8.1739 344.144C8.95649 342.884 10.0885 342.253 11.5698 342.253ZM8.48833 349.589C8.48833 351.28 8.64206 352.603 8.9495 353.559L13.6032 344.352C13.114 343.701 12.4363 343.375 11.5698 343.375C10.6055 343.375 9.85089 343.888 9.30587 344.913C8.76084 345.925 8.48833 347.483 8.48833 349.589ZM11.5698 355.803C12.5481 355.803 13.3097 355.297 13.8547 354.286C14.3997 353.261 14.6722 351.695 14.6722 349.589C14.6722 347.802 14.4976 346.417 14.1482 345.433L9.49453 354.722C9.99763 355.443 10.6894 355.803 11.5698 355.803Z" fill="url(#paint26_linear_175_1867)" fill-opacity="0.6"/>
<path d="M11.5698 366.004C13.0651 366.004 14.1971 366.635 14.9657 367.895C15.7483 369.142 16.1396 370.957 16.1396 373.34C16.1396 375.723 15.7483 377.545 14.9657 378.806C14.1971 380.067 13.0651 380.697 11.5698 380.697C10.0885 380.697 8.95649 380.067 8.1739 378.806C7.3913 377.545 7 375.723 7 373.34C7 370.971 7.3913 369.156 8.1739 367.895C8.95649 366.635 10.0885 366.004 11.5698 366.004ZM8.48833 373.34C8.48833 375.031 8.64206 376.354 8.9495 377.31L13.6032 368.103C13.114 367.452 12.4363 367.126 11.5698 367.126C10.6055 367.126 9.85089 367.639 9.30587 368.664C8.76084 369.676 8.48833 371.234 8.48833 373.34ZM11.5698 379.554C12.5481 379.554 13.3097 379.049 13.8547 378.037C14.3997 377.012 14.6722 375.446 14.6722 373.34C14.6722 371.553 14.4976 370.168 14.1482 369.184L9.49453 378.474C9.99763 379.194 10.6894 379.554 11.5698 379.554Z" fill="url(#paint27_linear_175_1867)" fill-opacity="0.6"/>
<path d="M12.8276 403.139H15.909V404.24H7.92235V403.139H11.486V391.459L8.09005 393.475L7.5031 392.54L11.6956 389.963H12.8276V403.139Z" fill="url(#paint28_linear_175_1867)" fill-opacity="0.6"/>
<path d="M11.5698 413.506C13.0651 413.506 14.1971 414.137 14.9657 415.398C15.7483 416.644 16.1396 418.459 16.1396 420.842C16.1396 423.225 15.7483 425.047 14.9657 426.308C14.1971 427.569 13.0651 428.199 11.5698 428.199C10.0885 428.199 8.95649 427.569 8.1739 426.308C7.3913 425.047 7 423.225 7 420.842C7 418.473 7.3913 416.658 8.1739 415.398C8.95649 414.137 10.0885 413.506 11.5698 413.506ZM8.48833 420.842C8.48833 422.533 8.64206 423.856 8.9495 424.812L13.6032 415.605C13.114 414.954 12.4363 414.629 11.5698 414.629C10.6055 414.629 9.85089 415.141 9.30587 416.166C8.76084 417.178 8.48833 418.737 8.48833 420.842ZM11.5698 427.056C12.5481 427.056 13.3097 426.551 13.8547 425.539C14.3997 424.514 14.6722 422.948 14.6722 420.842C14.6722 419.055 14.4976 417.67 14.1482 416.686L9.49453 425.976C9.99763 426.696 10.6894 427.056 11.5698 427.056Z" fill="url(#paint29_linear_175_1867)" fill-opacity="0.6"/>
<path d="M12.8276 450.641H15.909V451.743H7.92235V450.641H11.486V438.962L8.09005 440.977L7.5031 440.042L11.6956 437.465H12.8276V450.641Z" fill="url(#paint30_linear_175_1867)" fill-opacity="0.6"/>
<path d="M12.8276 474.392H15.909V475.494H7.92235V474.392H11.486V462.713L8.09005 464.728L7.5031 463.793L11.6956 461.216H12.8276V474.392Z" fill="url(#paint31_linear_175_1867)" fill-opacity="0.6"/>
<path d="M51.7577 308.135H54.8392V309.236H46.8525V308.135H50.4162V296.455L47.0202 298.471L46.4333 297.536L50.6258 294.959H51.7577V308.135Z" fill="url(#paint32_linear_175_1867)" fill-opacity="0.6"/>
<path d="M50.5 318.502C51.9953 318.502 53.1273 319.133 53.8959 320.393C54.6785 321.64 55.0698 323.455 55.0698 325.838C55.0698 328.221 54.6785 330.043 53.8959 331.304C53.1273 332.565 51.9953 333.195 50.5 333.195C49.0187 333.195 47.8867 332.565 47.1041 331.304C46.3215 330.043 45.9302 328.221 45.9302 325.838C45.9302 323.469 46.3215 321.654 47.1041 320.393C47.8867 319.133 49.0187 318.502 50.5 318.502ZM47.4185 325.838C47.4185 327.529 47.5723 328.852 47.8797 329.808L52.5334 320.601C52.0442 319.95 51.3664 319.624 50.5 319.624C49.5357 319.624 48.7811 320.137 48.2361 321.162C47.691 322.174 47.4185 323.732 47.4185 325.838ZM50.5 332.052C51.4782 332.052 52.2399 331.546 52.7849 330.535C53.3299 329.51 53.6024 327.944 53.6024 325.838C53.6024 324.051 53.4277 322.665 53.0784 321.682L48.4247 330.971C48.9278 331.692 49.6196 332.052 50.5 332.052Z" fill="url(#paint33_linear_175_1867)" fill-opacity="0.6"/>
<path d="M51.7577 355.637H54.8392V356.738H46.8525V355.637H50.4162V343.957L47.0202 345.973L46.4333 345.038L50.6258 342.461H51.7577V355.637Z" fill="url(#paint34_linear_175_1867)" fill-opacity="0.6"/>
<path d="M51.7577 379.388H54.8392V380.489H46.8525V379.388H50.4162V367.708L47.0202 369.724L46.4333 368.789L50.6258 366.212H51.7577V379.388Z" fill="url(#paint35_linear_175_1867)" fill-opacity="0.6"/>
<path d="M50.5 389.755C51.9953 389.755 53.1273 390.386 53.8959 391.646C54.6785 392.893 55.0698 394.708 55.0698 397.091C55.0698 399.474 54.6785 401.296 53.8959 402.557C53.1273 403.818 51.9953 404.448 50.5 404.448C49.0187 404.448 47.8867 403.818 47.1041 402.557C46.3215 401.296 45.9302 399.474 45.9302 397.091C45.9302 394.722 46.3215 392.907 47.1041 391.646C47.8867 390.386 49.0187 389.755 50.5 389.755ZM47.4185 397.091C47.4185 398.782 47.5723 400.105 47.8797 401.061L52.5334 391.854C52.0442 391.203 51.3664 390.878 50.5 390.878C49.5357 390.878 48.7811 391.39 48.2361 392.415C47.691 393.427 47.4185 394.985 47.4185 397.091ZM50.5 403.305C51.4782 403.305 52.2399 402.8 52.7849 401.788C53.3299 400.763 53.6024 399.197 53.6024 397.091C53.6024 395.304 53.4277 393.919 53.0784 392.935L48.4247 402.225C48.9278 402.945 49.6196 403.305 50.5 403.305Z" fill="url(#paint36_linear_175_1867)" fill-opacity="0.6"/>
<path d="M51.7577 426.89H54.8392V427.992H46.8525V426.89H50.4162V415.21L47.0202 417.226L46.4333 416.291L50.6258 413.714H51.7577V426.89Z" fill="url(#paint37_linear_175_1867)" fill-opacity="0.6"/>
<path d="M51.7577 450.641H54.8392V451.743H46.8525V450.641H50.4162V438.962L47.0202 440.977L46.4333 440.042L50.6258 437.465H51.7577V450.641Z" fill="url(#paint38_linear_175_1867)" fill-opacity="0.6"/>
<path d="M50.5 461.008C51.9953 461.008 53.1273 461.639 53.8959 462.9C54.6785 464.147 55.0698 465.962 55.0698 468.345C55.0698 470.728 54.6785 472.549 53.8959 473.81C53.1273 475.071 51.9953 475.701 50.5 475.701C49.0187 475.701 47.8867 475.071 47.1041 473.81C46.3215 472.549 45.9302 470.728 45.9302 468.345C45.9302 465.975 46.3215 464.16 47.1041 462.9C47.8867 461.639 49.0187 461.008 50.5 461.008ZM47.4185 468.345C47.4185 470.035 47.5723 471.358 47.8797 472.314L52.5334 463.107C52.0442 462.456 51.3664 462.131 50.5 462.131C49.5357 462.131 48.7811 462.643 48.2361 463.669C47.691 464.68 47.4185 466.239 47.4185 468.345ZM50.5 474.558C51.4782 474.558 52.2399 474.053 52.7849 473.041C53.3299 472.016 53.6024 470.451 53.6024 468.345C53.6024 466.557 53.4277 465.172 53.0784 464.188L48.4247 473.478C48.9278 474.198 49.6196 474.558 50.5 474.558Z" fill="url(#paint39_linear_175_1867)" fill-opacity="0.6"/>
<path d="M51.7577 498.143H54.8392V499.245H46.8525V498.143H50.4162V486.464L47.0202 488.48L46.4333 487.544L50.6258 484.967H51.7577V498.143Z" fill="url(#paint40_linear_175_1867)" fill-opacity="0.6"/>
<path d="M50.5 508.511C51.9953 508.511 53.1273 509.141 53.8959 510.402C54.6785 511.649 55.0698 513.464 55.0698 515.847C55.0698 518.23 54.6785 520.052 53.8959 521.312C53.1273 522.573 51.9953 523.204 50.5 523.204C49.0187 523.204 47.8867 522.573 47.1041 521.312C46.3215 520.052 45.9302 518.23 45.9302 515.847C45.9302 513.478 46.3215 511.663 47.1041 510.402C47.8867 509.141 49.0187 508.511 50.5 508.511ZM47.4185 515.847C47.4185 517.537 47.5723 518.86 47.8797 519.816L52.5334 510.61C52.0442 509.958 51.3664 509.633 50.5 509.633C49.5357 509.633 48.7811 510.145 48.2361 511.171C47.691 512.182 47.4185 513.741 47.4185 515.847ZM50.5 522.061C51.4782 522.061 52.2399 521.555 52.7849 520.543C53.3299 519.518 53.6024 517.953 53.6024 515.847C53.6024 514.059 53.4277 512.674 53.0784 511.69L48.4247 520.98C48.9278 521.7 49.6196 522.061 50.5 522.061Z" fill="url(#paint41_linear_175_1867)" fill-opacity="0.6"/>
<path d="M89.4302 294.751C90.9255 294.751 92.0575 295.381 92.8261 296.642C93.6087 297.889 94 299.704 94 302.087C94 304.47 93.6087 306.292 92.8261 307.553C92.0575 308.814 90.9255 309.444 89.4302 309.444C87.9489 309.444 86.8169 308.814 86.0343 307.553C85.2517 306.292 84.8604 304.47 84.8604 302.087C84.8604 299.718 85.2517 297.903 86.0343 296.642C86.8169 295.381 87.9489 294.751 89.4302 294.751ZM86.3487 302.087C86.3487 303.777 86.5024 305.101 86.8099 306.057L91.4636 296.85C90.9744 296.199 90.2966 295.873 89.4302 295.873C88.4659 295.873 87.7113 296.386 87.1663 297.411C86.6212 298.423 86.3487 299.981 86.3487 302.087ZM89.4302 308.301C90.4084 308.301 91.1701 307.795 91.7151 306.784C92.2601 305.759 92.5326 304.193 92.5326 302.087C92.5326 300.3 92.3579 298.914 92.0086 297.931L87.3549 307.22C87.858 307.941 88.5498 308.301 89.4302 308.301Z" fill="url(#paint42_linear_175_1867)" fill-opacity="0.6"/>
<path d="M90.6879 331.886H93.7694V332.987H85.7827V331.886H89.3463V320.206L85.9504 322.222L85.3635 321.287L89.556 318.71H90.6879V331.886Z" fill="url(#paint43_linear_175_1867)" fill-opacity="0.6"/>
<path d="M90.6879 355.637H93.7694V356.738H85.7827V355.637H89.3463V343.957L85.9504 345.973L85.3635 345.038L89.556 342.461H90.6879V355.637Z" fill="url(#paint44_linear_175_1867)" fill-opacity="0.6"/>
<path d="M89.4302 366.004C90.9255 366.004 92.0575 366.635 92.8261 367.895C93.6087 369.142 94 370.957 94 373.34C94 375.723 93.6087 377.545 92.8261 378.806C92.0575 380.067 90.9255 380.697 89.4302 380.697C87.9489 380.697 86.8169 380.067 86.0343 378.806C85.2517 377.545 84.8604 375.723 84.8604 373.34C84.8604 370.971 85.2517 369.156 86.0343 367.895C86.8169 366.635 87.9489 366.004 89.4302 366.004ZM86.3487 373.34C86.3487 375.031 86.5024 376.354 86.8099 377.31L91.4636 368.103C90.9744 367.452 90.2966 367.126 89.4302 367.126C88.4659 367.126 87.7113 367.639 87.1663 368.664C86.6212 369.676 86.3487 371.234 86.3487 373.34ZM89.4302 379.554C90.4084 379.554 91.1701 379.049 91.7151 378.037C92.2601 377.012 92.5326 375.446 92.5326 373.34C92.5326 371.553 92.3579 370.168 92.0086 369.184L87.3549 378.474C87.858 379.194 88.5498 379.554 89.4302 379.554Z" fill="url(#paint45_linear_175_1867)" fill-opacity="0.6"/>
<path d="M89.4302 389.755C90.9255 389.755 92.0575 390.386 92.8261 391.646C93.6087 392.893 94 394.708 94 397.091C94 399.474 93.6087 401.296 92.8261 402.557C92.0575 403.818 90.9255 404.448 89.4302 404.448C87.9489 404.448 86.8169 403.818 86.0343 402.557C85.2517 401.296 84.8604 399.474 84.8604 397.091C84.8604 394.722 85.2517 392.907 86.0343 391.646C86.8169 390.386 87.9489 389.755 89.4302 389.755ZM86.3487 397.091C86.3487 398.782 86.5024 400.105 86.8099 401.061L91.4636 391.854C90.9744 391.203 90.2966 390.878 89.4302 390.878C88.4659 390.878 87.7113 391.39 87.1663 392.415C86.6212 393.427 86.3487 394.985 86.3487 397.091ZM89.4302 403.305C90.4084 403.305 91.1701 402.8 91.7151 401.788C92.2601 400.763 92.5326 399.197 92.5326 397.091C92.5326 395.304 92.3579 393.919 92.0086 392.935L87.3549 402.225C87.858 402.945 88.5498 403.305 89.4302 403.305Z" fill="url(#paint46_linear_175_1867)" fill-opacity="0.6"/>
<g opacity="0.6">
<path d="M917.93 -29C919.356 -29 920.436 -28.395 921.17 -27.1851C921.916 -25.9885 922.29 -24.2468 922.29 -21.9599C922.29 -19.673 921.916 -17.9246 921.17 -16.7147C920.436 -15.5048 919.356 -14.8998 917.93 -14.8998C916.517 -14.8998 915.437 -15.5048 914.69 -16.7147C913.943 -17.9246 913.57 -19.673 913.57 -21.9599C913.57 -24.2335 913.943 -25.9752 914.69 -27.1851C915.437 -28.395 916.517 -29 917.93 -29ZM914.99 -21.9599C914.99 -20.3378 915.137 -19.068 915.43 -18.1506L919.87 -26.9857C919.403 -27.6106 918.756 -27.923 917.93 -27.923C917.01 -27.923 916.29 -27.4311 915.77 -26.4472C915.25 -25.4766 914.99 -23.9808 914.99 -21.9599ZM917.93 -15.9967C918.863 -15.9967 919.59 -16.482 920.11 -17.4526C920.63 -18.4365 920.89 -19.9389 920.89 -21.9599C920.89 -23.675 920.723 -25.0046 920.39 -25.9486L915.95 -17.0338C916.43 -16.3424 917.09 -15.9967 917.93 -15.9967Z" fill="url(#paint47_linear_175_1867)"/>
<path d="M919.13 6.63655H922.07V7.69356H914.45V6.63655H917.85V-4.57181L914.61 -2.63727L914.05 -3.53474L918.05 -6.00776H919.13V6.63655Z" fill="url(#paint48_linear_175_1867)"/>
<path d="M917.93 16.5856C919.356 16.5856 920.436 17.1906 921.17 18.4005C921.916 19.5971 922.29 21.3389 922.29 23.6257C922.29 25.9126 921.916 27.661 921.17 28.8709C920.436 30.0808 919.356 30.6858 917.93 30.6858C916.517 30.6858 915.437 30.0808 914.69 28.8709C913.943 27.661 913.57 25.9126 913.57 23.6257C913.57 21.3522 913.943 19.6104 914.69 18.4005C915.437 17.1906 916.517 16.5856 917.93 16.5856ZM914.99 23.6257C914.99 25.2478 915.137 26.5176 915.43 27.435L919.87 18.5999C919.403 17.975 918.756 17.6626 917.93 17.6626C917.01 17.6626 916.29 18.1545 915.77 19.1384C915.25 20.109 914.99 21.6048 914.99 23.6257ZM917.93 29.5889C918.863 29.5889 919.59 29.1036 920.11 28.133C920.63 27.1491 920.89 25.6467 920.89 23.6257C920.89 21.9106 920.723 20.581 920.39 19.637L915.95 28.5518C916.43 29.2432 917.09 29.5889 917.93 29.5889Z" fill="url(#paint49_linear_175_1867)"/>
<path d="M919.13 52.2221H922.07V53.2792H914.45V52.2221H917.85V41.0138L914.61 42.9483L914.05 42.0509L918.05 39.5778H919.13V52.2221Z" fill="url(#paint50_linear_175_1867)"/>
<path d="M919.13 75.015H922.07V76.072H914.45V75.015H917.85V63.8066L914.61 65.7411L914.05 64.8437L918.05 62.3706H919.13V75.015Z" fill="url(#paint51_linear_175_1867)"/>
<path d="M917.93 84.964C919.356 84.964 920.436 85.569 921.17 86.7789C921.916 87.9755 922.29 89.7173 922.29 92.0041C922.29 94.291 921.916 96.0394 921.17 97.2493C920.436 98.4593 919.356 99.0642 917.93 99.0642C916.517 99.0642 915.437 98.4593 914.69 97.2493C913.943 96.0394 913.57 94.291 913.57 92.0041C913.57 89.7306 913.943 87.9888 914.69 86.7789C915.437 85.569 916.517 84.964 917.93 84.964ZM914.99 92.0041C914.99 93.6262 915.137 94.896 915.43 95.8134L919.87 86.9783C919.403 86.3534 918.756 86.041 917.93 86.041C917.01 86.041 916.29 86.5329 915.77 87.5168C915.25 88.4874 914.99 89.9832 914.99 92.0041ZM917.93 97.9673C918.863 97.9673 919.59 97.482 920.11 96.5114C920.63 95.5275 920.89 94.0251 920.89 92.0041C920.89 90.289 920.723 88.9594 920.39 88.0154L915.95 96.9302C916.43 97.6216 917.09 97.9673 917.93 97.9673Z" fill="url(#paint52_linear_175_1867)"/>
<path d="M919.13 120.601H922.07V121.658H914.45V120.601H917.85V109.392L914.61 111.327L914.05 110.429L918.05 107.956H919.13V120.601Z" fill="url(#paint53_linear_175_1867)"/>
<path d="M917.93 130.55C919.356 130.55 920.436 131.155 921.17 132.365C921.916 133.561 922.29 135.303 922.29 137.59C922.29 139.877 921.916 141.625 921.17 142.835C920.436 144.045 919.356 144.65 917.93 144.65C916.517 144.65 915.437 144.045 914.69 142.835C913.943 141.625 913.57 139.877 913.57 137.59C913.57 135.316 913.943 133.574 914.69 132.365C915.437 131.155 916.517 130.55 917.93 130.55ZM914.99 137.59C914.99 139.212 915.137 140.482 915.43 141.399L919.87 132.564C919.403 131.939 918.756 131.627 917.93 131.627C917.01 131.627 916.29 132.119 915.77 133.102C915.25 134.073 914.99 135.569 914.99 137.59ZM917.93 143.553C918.863 143.553 919.59 143.068 920.11 142.097C920.63 141.113 920.89 139.611 920.89 137.59C920.89 135.875 920.723 134.545 920.39 133.601L915.95 142.516C916.43 143.207 917.09 143.553 917.93 143.553Z" fill="url(#paint54_linear_175_1867)"/>
<path d="M917.93 153.342C919.356 153.342 920.436 153.947 921.17 155.157C921.916 156.354 922.29 158.096 922.29 160.383C922.29 162.669 921.916 164.418 921.17 165.628C920.436 166.838 919.356 167.443 917.93 167.443C916.517 167.443 915.437 166.838 914.69 165.628C913.943 164.418 913.57 162.669 913.57 160.383C913.57 158.109 913.943 156.367 914.69 155.157C915.437 153.947 916.517 153.342 917.93 153.342ZM914.99 160.383C914.99 162.005 915.137 163.274 915.43 164.192L919.87 155.357C919.403 154.732 918.756 154.419 917.93 154.419C917.01 154.419 916.29 154.911 915.77 155.895C915.25 156.866 914.99 158.362 914.99 160.383ZM917.93 166.346C918.863 166.346 919.59 165.86 920.11 164.89C920.63 163.906 920.89 162.404 920.89 160.383C920.89 158.667 920.723 157.338 920.39 156.394L915.95 165.309C916.43 166 917.09 166.346 917.93 166.346Z" fill="url(#paint55_linear_175_1867)"/>
<path d="M919.13 188.979H922.07V190.036H914.45V188.979H917.85V177.771L914.61 179.705L914.05 178.808L918.05 176.335H919.13V188.979Z" fill="url(#paint56_linear_175_1867)"/>
<path d="M917.93 198.928C919.356 198.928 920.436 199.533 921.17 200.743C921.916 201.94 922.29 203.681 922.29 205.968C922.29 208.255 921.916 210.003 921.17 211.213C920.436 212.423 919.356 213.028 917.93 213.028C916.517 213.028 915.437 212.423 914.69 211.213C913.943 210.003 913.57 208.255 913.57 205.968C913.57 203.695 913.943 201.953 914.69 200.743C915.437 199.533 916.517 198.928 917.93 198.928ZM914.99 205.968C914.99 207.59 915.137 208.86 915.43 209.777L919.87 200.942C919.403 200.317 918.756 200.005 917.93 200.005C917.01 200.005 916.29 200.497 915.77 201.481C915.25 202.451 914.99 203.947 914.99 205.968ZM917.93 211.931C918.863 211.931 919.59 211.446 920.11 210.475C920.63 209.492 920.89 207.989 920.89 205.968C920.89 204.253 920.723 202.923 920.39 201.979L915.95 210.894C916.43 211.586 917.09 211.931 917.93 211.931Z" fill="url(#paint57_linear_175_1867)"/>
<path d="M919.13 234.565H922.07V235.622H914.45V234.565H917.85V223.356L914.61 225.291L914.05 224.393L918.05 221.92H919.13V234.565Z" fill="url(#paint58_linear_175_1867)"/>
<path d="M919.13 257.357H922.07V258.414H914.45V257.357H917.85V246.149L914.61 248.084L914.05 247.186L918.05 244.713H919.13V257.357Z" fill="url(#paint59_linear_175_1867)"/>
<path d="M955.07 16.5856C956.497 16.5856 957.577 17.1906 958.31 18.4005C959.057 19.5971 959.43 21.3389 959.43 23.6257C959.43 25.9126 959.057 27.661 958.31 28.8709C957.577 30.0808 956.497 30.6858 955.07 30.6858C953.657 30.6858 952.577 30.0808 951.83 28.8709C951.084 27.661 950.71 25.9126 950.71 23.6257C950.71 21.3522 951.084 19.6104 951.83 18.4005C952.577 17.1906 953.657 16.5856 955.07 16.5856ZM952.13 23.6257C952.13 25.2478 952.277 26.5176 952.57 27.435L957.01 18.5999C956.543 17.975 955.897 17.6626 955.07 17.6626C954.15 17.6626 953.43 18.1545 952.91 19.1384C952.39 20.109 952.13 21.6048 952.13 23.6257ZM955.07 29.5889C956.003 29.5889 956.73 29.1036 957.25 28.133C957.77 27.1491 958.03 25.6467 958.03 23.6257C958.03 21.9106 957.863 20.581 957.53 19.637L953.09 28.5518C953.57 29.2432 954.23 29.5889 955.07 29.5889Z" fill="url(#paint60_linear_175_1867)"/>
<path d="M956.27 52.2221H959.21V53.2792H951.59V52.2221H954.99V41.0138L951.75 42.9483L951.19 42.0509L955.19 39.5778H956.27V52.2221Z" fill="url(#paint61_linear_175_1867)"/>
<path d="M955.07 62.1712C956.497 62.1712 957.577 62.7762 958.31 63.9861C959.057 65.1827 959.43 66.9245 959.43 69.2113C959.43 71.4982 959.057 73.2466 958.31 74.4565C957.577 75.6664 956.497 76.2714 955.07 76.2714C953.657 76.2714 952.577 75.6664 951.83 74.4565C951.084 73.2466 950.71 71.4982 950.71 69.2113C950.71 66.9378 951.084 65.196 951.83 63.9861C952.577 62.7762 953.657 62.1712 955.07 62.1712ZM952.13 69.2113C952.13 70.8334 952.277 72.1032 952.57 73.0206L957.01 64.1855C956.543 63.5606 955.897 63.2482 955.07 63.2482C954.15 63.2482 953.43 63.7401 952.91 64.724C952.39 65.6946 952.13 67.1904 952.13 69.2113ZM955.07 75.1745C956.003 75.1745 956.73 74.6892 957.25 73.7186C957.77 72.7347 958.03 71.2323 958.03 69.2113C958.03 67.4962 957.863 66.1666 957.53 65.2226L953.09 74.1374C953.57 74.8288 954.23 75.1745 955.07 75.1745Z" fill="url(#paint62_linear_175_1867)"/>
<path d="M955.07 84.964C956.497 84.964 957.577 85.569 958.31 86.7789C959.057 87.9755 959.43 89.7173 959.43 92.0041C959.43 94.291 959.057 96.0394 958.31 97.2493C957.577 98.4593 956.497 99.0642 955.07 99.0642C953.657 99.0642 952.577 98.4593 951.83 97.2493C951.084 96.0394 950.71 94.291 950.71 92.0041C950.71 89.7306 951.084 87.9888 951.83 86.7789C952.577 85.569 953.657 84.964 955.07 84.964ZM952.13 92.0041C952.13 93.6262 952.277 94.896 952.57 95.8134L957.01 86.9783C956.543 86.3534 955.897 86.041 955.07 86.041C954.15 86.041 953.43 86.5329 952.91 87.5168C952.39 88.4874 952.13 89.9832 952.13 92.0041ZM955.07 97.9673C956.003 97.9673 956.73 97.482 957.25 96.5114C957.77 95.5275 958.03 94.0251 958.03 92.0041C958.03 90.289 957.863 88.9594 957.53 88.0154L953.09 96.9302C953.57 97.6216 954.23 97.9673 955.07 97.9673Z" fill="url(#paint63_linear_175_1867)"/>
<path d="M956.27 120.601H959.21V121.658H951.59V120.601H954.99V109.392L951.75 111.327L951.19 110.429L955.19 107.956H956.27V120.601Z" fill="url(#paint64_linear_175_1867)"/>
<path d="M955.07 130.55C956.497 130.55 957.577 131.155 958.31 132.365C959.057 133.561 959.43 135.303 959.43 137.59C959.43 139.877 959.057 141.625 958.31 142.835C957.577 144.045 956.497 144.65 955.07 144.65C953.657 144.65 952.577 144.045 951.83 142.835C951.084 141.625 950.71 139.877 950.71 137.59C950.71 135.316 951.084 133.574 951.83 132.365C952.577 131.155 953.657 130.55 955.07 130.55ZM952.13 137.59C952.13 139.212 952.277 140.482 952.57 141.399L957.01 132.564C956.543 131.939 955.897 131.627 955.07 131.627C954.15 131.627 953.43 132.119 952.91 133.102C952.39 134.073 952.13 135.569 952.13 137.59ZM955.07 143.553C956.003 143.553 956.73 143.068 957.25 142.097C957.77 141.113 958.03 139.611 958.03 137.59C958.03 135.875 957.863 134.545 957.53 133.601L953.09 142.516C953.57 143.207 954.23 143.553 955.07 143.553Z" fill="url(#paint65_linear_175_1867)"/>
<path d="M956.27 166.186H959.21V167.243H951.59V166.186H954.99V154.978L951.75 156.912L951.19 156.015L955.19 153.542H956.27V166.186Z" fill="url(#paint66_linear_175_1867)"/>
<path d="M955.07 176.135C956.497 176.135 957.577 176.74 958.31 177.95C959.057 179.147 959.43 180.888 959.43 183.175C959.43 185.462 959.057 187.211 958.31 188.421C957.577 189.63 956.497 190.235 955.07 190.235C953.657 190.235 952.577 189.63 951.83 188.421C951.084 187.211 950.71 185.462 950.71 183.175C950.71 180.902 951.084 179.16 951.83 177.95C952.577 176.74 953.657 176.135 955.07 176.135ZM952.13 183.175C952.13 184.797 952.277 186.067 952.57 186.985L957.01 178.15C956.543 177.525 955.897 177.212 955.07 177.212C954.15 177.212 953.43 177.704 952.91 178.688C952.39 179.659 952.13 181.154 952.13 183.175ZM955.07 189.139C956.003 189.139 956.73 188.653 957.25 187.683C957.77 186.699 958.03 185.196 958.03 183.175C958.03 181.46 957.863 180.131 957.53 179.187L953.09 188.101C953.57 188.793 954.23 189.139 955.07 189.139Z" fill="url(#paint67_linear_175_1867)"/>
<path d="M955.07 198.928C956.497 198.928 957.577 199.533 958.31 200.743C959.057 201.94 959.43 203.681 959.43 205.968C959.43 208.255 959.057 210.003 958.31 211.213C957.577 212.423 956.497 213.028 955.07 213.028C953.657 213.028 952.577 212.423 951.83 211.213C951.084 210.003 950.71 208.255 950.71 205.968C950.71 203.695 951.084 201.953 951.83 200.743C952.577 199.533 953.657 198.928 955.07 198.928ZM952.13 205.968C952.13 207.59 952.277 208.86 952.57 209.777L957.01 200.942C956.543 200.317 955.897 200.005 955.07 200.005C954.15 200.005 953.43 200.497 952.91 201.481C952.39 202.451 952.13 203.947 952.13 205.968ZM955.07 211.931C956.003 211.931 956.73 211.446 957.25 210.475C957.77 209.492 958.03 207.989 958.03 205.968C958.03 204.253 957.863 202.923 957.53 201.979L953.09 210.894C953.57 211.586 954.23 211.931 955.07 211.931Z" fill="url(#paint68_linear_175_1867)"/>
<path d="M956.27 234.565H959.21V235.622H951.59V234.565H954.99V223.356L951.75 225.291L951.19 224.393L955.19 221.92H956.27V234.565Z" fill="url(#paint69_linear_175_1867)"/>
<path d="M955.07 244.514C956.497 244.514 957.577 245.119 958.31 246.329C959.057 247.525 959.43 249.267 959.43 251.554C959.43 253.841 959.057 255.589 958.31 256.799C957.577 258.009 956.497 258.614 955.07 258.614C953.657 258.614 952.577 258.009 951.83 256.799C951.084 255.589 950.71 253.841 950.71 251.554C950.71 249.28 951.084 247.538 951.83 246.329C952.577 245.119 953.657 244.514 955.07 244.514ZM952.13 251.554C952.13 253.176 952.277 254.446 952.57 255.363L957.01 246.528C956.543 245.903 955.897 245.591 955.07 245.591C954.15 245.591 953.43 246.083 952.91 247.066C952.39 248.037 952.13 249.533 952.13 251.554ZM955.07 257.517C956.003 257.517 956.73 257.032 957.25 256.061C957.77 255.077 958.03 253.575 958.03 251.554C958.03 249.839 957.863 248.509 957.53 247.565L953.09 256.48C953.57 257.171 954.23 257.517 955.07 257.517Z" fill="url(#paint70_linear_175_1867)"/>
<path d="M956.27 280.15H959.21V281.207H951.59V280.15H954.99V268.942L951.75 270.876L951.19 269.979L955.19 267.506H956.27V280.15Z" fill="url(#paint71_linear_175_1867)"/>
<path d="M956.27 302.943H959.21V304H951.59V302.943H954.99V291.735L951.75 293.669L951.19 292.772L955.19 290.299H956.27V302.943Z" fill="url(#paint72_linear_175_1867)"/>
<path d="M899.36 39.3784C900.786 39.3784 901.866 39.9834 902.599 41.1933C903.346 42.3899 903.719 44.1317 903.719 46.4185C903.719 48.7054 903.346 50.4538 902.599 51.6637C901.866 52.8736 900.786 53.4786 899.36 53.4786C897.946 53.4786 896.867 52.8736 896.12 51.6637C895.373 50.4538 895 48.7054 895 46.4185C895 44.145 895.373 42.4032 896.12 41.1933C896.867 39.9834 897.946 39.3784 899.36 39.3784ZM896.42 46.4185C896.42 48.0406 896.567 49.3104 896.86 50.2278L901.3 41.3927C900.833 40.7678 900.186 40.4554 899.36 40.4554C898.44 40.4554 897.72 40.9473 897.2 41.9312C896.68 42.9018 896.42 44.3976 896.42 46.4185ZM899.36 52.3817C900.293 52.3817 901.02 51.8964 901.54 50.9258C902.06 49.9419 902.319 48.4395 902.319 46.4185C902.319 44.7034 902.153 43.3738 901.82 42.4298L897.38 51.3446C897.86 52.036 898.52 52.3817 899.36 52.3817Z" fill="url(#paint73_linear_175_1867)"/>
<path d="M899.36 62.1712C900.786 62.1712 901.866 62.7762 902.599 63.9861C903.346 65.1827 903.719 66.9245 903.719 69.2113C903.719 71.4982 903.346 73.2466 902.599 74.4565C901.866 75.6664 900.786 76.2714 899.36 76.2714C897.946 76.2714 896.867 75.6664 896.12 74.4565C895.373 73.2466 895 71.4982 895 69.2113C895 66.9378 895.373 65.196 896.12 63.9861C896.867 62.7762 897.946 62.1712 899.36 62.1712ZM896.42 69.2113C896.42 70.8334 896.567 72.1032 896.86 73.0206L901.3 64.1855C900.833 63.5606 900.186 63.2482 899.36 63.2482C898.44 63.2482 897.72 63.7401 897.2 64.724C896.68 65.6946 896.42 67.1904 896.42 69.2113ZM899.36 75.1745C900.293 75.1745 901.02 74.6892 901.54 73.7186C902.06 72.7347 902.319 71.2323 902.319 69.2113C902.319 67.4962 902.153 66.1666 901.82 65.2226L897.38 74.1374C897.86 74.8288 898.52 75.1745 899.36 75.1745Z" fill="url(#paint74_linear_175_1867)"/>
<path d="M900.56 97.8078H903.499V98.8648H895.88V97.8078H899.28V86.5994L896.04 88.5339L895.48 87.6365L899.48 85.1635H900.56V97.8078Z" fill="url(#paint75_linear_175_1867)"/>
<path d="M899.36 107.757C900.786 107.757 901.866 108.362 902.599 109.572C903.346 110.768 903.719 112.51 903.719 114.797C903.719 117.084 903.346 118.832 902.599 120.042C901.866 121.252 900.786 121.857 899.36 121.857C897.946 121.857 896.867 121.252 896.12 120.042C895.373 118.832 895 117.084 895 114.797C895 112.523 895.373 110.782 896.12 109.572C896.867 108.362 897.946 107.757 899.36 107.757ZM896.42 114.797C896.42 116.419 896.567 117.689 896.86 118.606L901.3 109.771C900.833 109.146 900.186 108.834 899.36 108.834C898.44 108.834 897.72 109.326 897.2 110.31C896.68 111.28 896.42 112.776 896.42 114.797ZM899.36 120.76C900.293 120.76 901.02 120.275 901.54 119.304C902.06 118.32 902.319 116.818 902.319 114.797C902.319 113.082 902.153 111.752 901.82 110.808L897.38 119.723C897.86 120.414 898.52 120.76 899.36 120.76Z" fill="url(#paint76_linear_175_1867)"/>
<path d="M900.56 143.393H903.499V144.45H895.88V143.393H899.28V132.185L896.04 134.12L895.48 133.222L899.48 130.749H900.56V143.393Z" fill="url(#paint77_linear_175_1867)"/>
<path d="M900.56 166.186H903.499V167.243H895.88V166.186H899.28V154.978L896.04 156.912L895.48 156.015L899.48 153.542H900.56V166.186Z" fill="url(#paint78_linear_175_1867)"/>
<path d="M937.7 6.63655H940.64V7.69356H933.02V6.63655H936.42V-4.57181L933.18 -2.63727L932.62 -3.53474L936.62 -6.00776H937.7V6.63655Z" fill="url(#paint79_linear_175_1867)"/>
<path d="M936.5 16.5856C937.927 16.5856 939.006 17.1906 939.74 18.4005C940.486 19.5971 940.86 21.3389 940.86 23.6257C940.86 25.9126 940.486 27.661 939.74 28.8709C939.006 30.0808 937.927 30.6858 936.5 30.6858C935.087 30.6858 934.007 30.0808 933.26 28.8709C932.514 27.661 932.14 25.9126 932.14 23.6257C932.14 21.3522 932.514 19.6104 933.26 18.4005C934.007 17.1906 935.087 16.5856 936.5 16.5856ZM933.56 23.6257C933.56 25.2478 933.707 26.5176 934 27.435L938.44 18.5999C937.973 17.975 937.327 17.6626 936.5 17.6626C935.58 17.6626 934.86 18.1545 934.34 19.1384C933.82 20.109 933.56 21.6048 933.56 23.6257ZM936.5 29.5889C937.433 29.5889 938.16 29.1036 938.68 28.133C939.2 27.1491 939.46 25.6467 939.46 23.6257C939.46 21.9106 939.293 20.581 938.96 19.637L934.52 28.5518C935 29.2432 935.66 29.5889 936.5 29.5889Z" fill="url(#paint80_linear_175_1867)"/>
<path d="M937.7 52.2221H940.64V53.2792H933.02V52.2221H936.42V41.0138L933.18 42.9483L932.62 42.0509L936.62 39.5778H937.7V52.2221Z" fill="url(#paint81_linear_175_1867)"/>
<path d="M937.7 75.015H940.64V76.072H933.02V75.015H936.42V63.8066L933.18 65.7411L932.62 64.8437L936.62 62.3706H937.7V75.015Z" fill="url(#paint82_linear_175_1867)"/>
<path d="M936.5 84.964C937.927 84.964 939.006 85.569 939.74 86.7789C940.486 87.9755 940.86 89.7173 940.86 92.0041C940.86 94.291 940.486 96.0394 939.74 97.2493C939.006 98.4593 937.927 99.0642 936.5 99.0642C935.087 99.0642 934.007 98.4593 933.26 97.2493C932.514 96.0394 932.14 94.291 932.14 92.0041C932.14 89.7306 932.514 87.9888 933.26 86.7789C934.007 85.569 935.087 84.964 936.5 84.964ZM933.56 92.0041C933.56 93.6262 933.707 94.896 934 95.8134L938.44 86.9783C937.973 86.3534 937.327 86.041 936.5 86.041C935.58 86.041 934.86 86.5329 934.34 87.5168C933.82 88.4874 933.56 89.9832 933.56 92.0041ZM936.5 97.9673C937.433 97.9673 938.16 97.482 938.68 96.5114C939.2 95.5275 939.46 94.0251 939.46 92.0041C939.46 90.289 939.293 88.9594 938.96 88.0154L934.52 96.9302C935 97.6216 935.66 97.9673 936.5 97.9673Z" fill="url(#paint83_linear_175_1867)"/>
<path d="M937.7 120.601H940.64V121.658H933.02V120.601H936.42V109.392L933.18 111.327L932.62 110.429L936.62 107.956H937.7V120.601Z" fill="url(#paint84_linear_175_1867)"/>
<path d="M937.7 143.393H940.64V144.45H933.02V143.393H936.42V132.185L933.18 134.12L932.62 133.222L936.62 130.749H937.7V143.393Z" fill="url(#paint85_linear_175_1867)"/>
<path d="M936.5 153.342C937.927 153.342 939.006 153.947 939.74 155.157C940.486 156.354 940.86 158.096 940.86 160.383C940.86 162.669 940.486 164.418 939.74 165.628C939.006 166.838 937.927 167.443 936.5 167.443C935.087 167.443 934.007 166.838 933.26 165.628C932.514 164.418 932.14 162.669 932.14 160.383C932.14 158.109 932.514 156.367 933.26 155.157C934.007 153.947 935.087 153.342 936.5 153.342ZM933.56 160.383C933.56 162.005 933.707 163.274 934 164.192L938.44 155.357C937.973 154.732 937.327 154.419 936.5 154.419C935.58 154.419 934.86 154.911 934.34 155.895C933.82 156.866 933.56 158.362 933.56 160.383ZM936.5 166.346C937.433 166.346 938.16 165.86 938.68 164.89C939.2 163.906 939.46 162.404 939.46 160.383C939.46 158.667 939.293 157.338 938.96 156.394L934.52 165.309C935 166 935.66 166.346 936.5 166.346Z" fill="url(#paint86_linear_175_1867)"/>
<path d="M937.7 188.979H940.64V190.036H933.02V188.979H936.42V177.771L933.18 179.705L932.62 178.808L936.62 176.335H937.7V188.979Z" fill="url(#paint87_linear_175_1867)"/>
<path d="M936.5 198.928C937.927 198.928 939.006 199.533 939.74 200.743C940.486 201.94 940.86 203.681 940.86 205.968C940.86 208.255 940.486 210.003 939.74 211.213C939.006 212.423 937.927 213.028 936.5 213.028C935.087 213.028 934.007 212.423 933.26 211.213C932.514 210.003 932.14 208.255 932.14 205.968C932.14 203.695 932.514 201.953 933.26 200.743C934.007 199.533 935.087 198.928 936.5 198.928ZM933.56 205.968C933.56 207.59 933.707 208.86 934 209.777L938.44 200.942C937.973 200.317 937.327 200.005 936.5 200.005C935.58 200.005 934.86 200.497 934.34 201.481C933.82 202.451 933.56 203.947 933.56 205.968ZM936.5 211.931C937.433 211.931 938.16 211.446 938.68 210.475C939.2 209.492 939.46 207.989 939.46 205.968C939.46 204.253 939.293 202.923 938.96 201.979L934.52 210.894C935 211.586 935.66 211.931 936.5 211.931Z" fill="url(#paint88_linear_175_1867)"/>
<path d="M973.64 -6.2072C975.067 -6.2072 976.147 -5.60224 976.88 -4.39232C977.627 -3.1957 978 -1.45395 978 0.832928C978 3.11981 977.627 4.86821 976.88 6.07812C976.147 7.28804 975.067 7.893 973.64 7.893C972.227 7.893 971.147 7.28804 970.401 6.07812C969.654 4.86821 969.281 3.11981 969.281 0.832928C969.281 -1.44065 969.654 -3.1824 970.401 -4.39232C971.147 -5.60224 972.227 -6.2072 973.64 -6.2072ZM970.7 0.832928C970.7 2.45502 970.847 3.72477 971.14 4.64218L975.58 -4.19288C975.114 -4.81779 974.467 -5.13024 973.64 -5.13024C972.72 -5.13024 972 -4.63829 971.48 -3.6544C970.96 -2.68381 970.7 -1.18803 970.7 0.832928ZM973.64 6.7961C974.574 6.7961 975.3 6.3108 975.82 5.34021C976.34 4.35632 976.6 2.85389 976.6 0.832928C976.6 -0.88223 976.433 -2.21181 976.1 -3.15581L971.66 5.75902C972.14 6.4504 972.8 6.7961 973.64 6.7961Z" fill="url(#paint89_linear_175_1867)"/>
<path d="M974.84 29.4293H977.78V30.4864H970.161V29.4293H973.56V18.221L970.321 20.1555L969.761 19.2581L973.76 16.785H974.84V29.4293Z" fill="url(#paint90_linear_175_1867)"/>
<path d="M974.84 52.2221H977.78V53.2792H970.161V52.2221H973.56V41.0138L970.321 42.9483L969.761 42.0509L973.76 39.5778H974.84V52.2221Z" fill="url(#paint91_linear_175_1867)"/>
<path d="M973.64 62.1712C975.067 62.1712 976.147 62.7762 976.88 63.9861C977.627 65.1827 978 66.9245 978 69.2113C978 71.4982 977.627 73.2466 976.88 74.4565C976.147 75.6664 975.067 76.2714 973.64 76.2714C972.227 76.2714 971.147 75.6664 970.401 74.4565C969.654 73.2466 969.281 71.4982 969.281 69.2113C969.281 66.9378 969.654 65.196 970.401 63.9861C971.147 62.7762 972.227 62.1712 973.64 62.1712ZM970.7 69.2113C970.7 70.8334 970.847 72.1032 971.14 73.0206L975.58 64.1855C975.114 63.5606 974.467 63.2482 973.64 63.2482C972.72 63.2482 972 63.7401 971.48 64.724C970.96 65.6946 970.7 67.1904 970.7 69.2113ZM973.64 75.1745C974.574 75.1745 975.3 74.6892 975.82 73.7186C976.34 72.7347 976.6 71.2323 976.6 69.2113C976.6 67.4962 976.433 66.1666 976.1 65.2226L971.66 74.1374C972.14 74.8288 972.8 75.1745 973.64 75.1745Z" fill="url(#paint92_linear_175_1867)"/>
<path d="M973.64 84.964C975.067 84.964 976.147 85.569 976.88 86.7789C977.627 87.9755 978 89.7173 978 92.0041C978 94.291 977.627 96.0394 976.88 97.2493C976.147 98.4593 975.067 99.0642 973.64 99.0642C972.227 99.0642 971.147 98.4593 970.401 97.2493C969.654 96.0394 969.281 94.291 969.281 92.0041C969.281 89.7306 969.654 87.9888 970.401 86.7789C971.147 85.569 972.227 84.964 973.64 84.964ZM970.7 92.0041C970.7 93.6262 970.847 94.896 971.14 95.8134L975.58 86.9783C975.114 86.3534 974.467 86.041 973.64 86.041C972.72 86.041 972 86.5329 971.48 87.5168C970.96 88.4874 970.7 89.9832 970.7 92.0041ZM973.64 97.9673C974.574 97.9673 975.3 97.482 975.82 96.5114C976.34 95.5275 976.6 94.0251 976.6 92.0041C976.6 90.289 976.433 88.9594 976.1 88.0154L971.66 96.9302C972.14 97.6216 972.8 97.9673 973.64 97.9673Z" fill="url(#paint93_linear_175_1867)"/>
</g>
</g>
<defs>
<filter id="filter0_f_175_1867" x="-560.19" y="-715.19" width="2141.38" height="1500.38" filterUnits="userSpaceOnUse" color-interpolation-filters="sRGB">
<feFlood flood-opacity="0" result="BackgroundImageFix"/>
<feBlend mode="normal" in="SourceGraphic" in2="BackgroundImageFix" result="shape"/>
<feGaussianBlur stdDeviation="200.095" result="effect1_foregroundBlur_175_1867"/>
</filter>
<linearGradient id="paint0_linear_175_1867" x1="50.5" y1="271" x2="50.5" y2="582.381" gradientUnits="userSpaceOnUse">
<stop stop-color="#F7DD43"/>
<stop offset="1" stop-color="#F7DD43" stop-opacity="0"/>
</linearGradient>
<linearGradient id="paint1_linear_175_1867" x1="50.5" y1="271" x2="50.5" y2="582.381" gradientUnits="userSpaceOnUse">
<stop stop-color="#F7DD43"/>
<stop offset="1" stop-color="#F7DD43" stop-opacity="0"/>
</linearGradient>
<linearGradient id="paint2_linear_175_1867" x1="50.5" y1="271" x2="50.5" y2="582.381" gradientUnits="userSpaceOnUse">
<stop stop-color="#F7DD43"/>
<stop offset="1" stop-color="#F7DD43" stop-opacity="0"/>
</linearGradient>
<linearGradient id="paint3_linear_175_1867" x1="50.5" y1="271" x2="50.5" y2="582.381" gradientUnits="userSpaceOnUse">
<stop stop-color="#F7DD43"/>
<stop offset="1" stop-color="#F7DD43" stop-opacity="0"/>
</linearGradient>
<linearGradient id="paint4_linear_175_1867" x1="50.5" y1="271" x2="50.5" y2="582.381" gradientUnits="userSpaceOnUse">
<stop stop-color="#F7DD43"/>
<stop offset="1" stop-color="#F7DD43" stop-opacity="0"/>
</linearGradient>
<linearGradient id="paint5_linear_175_1867" x1="50.5" y1="271" x2="50.5" y2="582.381" gradientUnits="userSpaceOnUse">
<stop stop-color="#F7DD43"/>
<stop offset="1" stop-color="#F7DD43" stop-opacity="0"/>
</linearGradient>
<linearGradient id="paint6_linear_175_1867" x1="50.5" y1="271" x2="50.5" y2="582.381" gradientUnits="userSpaceOnUse">
<stop stop-color="#F7DD43"/>
<stop offset="1" stop-color="#F7DD43" stop-opacity="0"/>
</linearGradient>
<linearGradient id="paint7_linear_175_1867" x1="50.5" y1="271" x2="50.5" y2="582.381" gradientUnits="userSpaceOnUse">
<stop stop-color="#F7DD43"/>
<stop offset="1" stop-color="#F7DD43" stop-opacity="0"/>
</linearGradient>
<linearGradient id="paint8_linear_175_1867" x1="50.5" y1="271" x2="50.5" y2="582.381" gradientUnits="userSpaceOnUse">
<stop stop-color="#F7DD43"/>
<stop offset="1" stop-color="#F7DD43" stop-opacity="0"/>
</linearGradient>
<linearGradient id="paint9_linear_175_1867" x1="50.5" y1="271" x2="50.5" y2="582.381" gradientUnits="userSpaceOnUse">
<stop stop-color="#F7DD43"/>
<stop offset="1" stop-color="#F7DD43" stop-opacity="0"/>
</linearGradient>
<linearGradient id="paint10_linear_175_1867" x1="50.5" y1="271" x2="50.5" y2="582.381" gradientUnits="userSpaceOnUse">
<stop stop-color="#F7DD43"/>
<stop offset="1" stop-color="#F7DD43" stop-opacity="0"/>
</linearGradient>
<linearGradient id="paint11_linear_175_1867" x1="50.5" y1="271" x2="50.5" y2="582.381" gradientUnits="userSpaceOnUse">
<stop stop-color="#F7DD43"/>
<stop offset="1" stop-color="#F7DD43" stop-opacity="0"/>
</linearGradient>
<linearGradient id="paint12_linear_175_1867" x1="50.5" y1="271" x2="50.5" y2="582.381" gradientUnits="userSpaceOnUse">
<stop stop-color="#F7DD43"/>
<stop offset="1" stop-color="#F7DD43" stop-opacity="0"/>
</linearGradient>
<linearGradient id="paint13_linear_175_1867" x1="50.5" y1="271" x2="50.5" y2="582.381" gradientUnits="userSpaceOnUse">
<stop stop-color="#F7DD43"/>
<stop offset="1" stop-color="#F7DD43" stop-opacity="0"/>
</linearGradient>
<linearGradient id="paint14_linear_175_1867" x1="50.5" y1="271" x2="50.5" y2="582.381" gradientUnits="userSpaceOnUse">
<stop stop-color="#F7DD43"/>
<stop offset="1" stop-color="#F7DD43" stop-opacity="0"/>
</linearGradient>
<linearGradient id="paint15_linear_175_1867" x1="50.5" y1="271" x2="50.5" y2="582.381" gradientUnits="userSpaceOnUse">
<stop stop-color="#F7DD43"/>
<stop offset="1" stop-color="#F7DD43" stop-opacity="0"/>
</linearGradient>
<linearGradient id="paint16_linear_175_1867" x1="50.5" y1="271" x2="50.5" y2="582.381" gradientUnits="userSpaceOnUse">
<stop stop-color="#F7DD43"/>
<stop offset="1" stop-color="#F7DD43" stop-opacity="0"/>
</linearGradient>
<linearGradient id="paint17_linear_175_1867" x1="50.5" y1="271" x2="50.5" y2="582.381" gradientUnits="userSpaceOnUse">
<stop stop-color="#F7DD43"/>
<stop offset="1" stop-color="#F7DD43" stop-opacity="0"/>
</linearGradient>
<linearGradient id="paint18_linear_175_1867" x1="50.5" y1="271" x2="50.5" y2="582.381" gradientUnits="userSpaceOnUse">
<stop stop-color="#F7DD43"/>
<stop offset="1" stop-color="#F7DD43" stop-opacity="0"/>
</linearGradient>
<linearGradient id="paint19_linear_175_1867" x1="50.5" y1="271" x2="50.5" y2="582.381" gradientUnits="userSpaceOnUse">
<stop stop-color="#F7DD43"/>
<stop offset="1" stop-color="#F7DD43" stop-opacity="0"/>
</linearGradient>
<linearGradient id="paint20_linear_175_1867" x1="50.5" y1="271" x2="50.5" y2="582.381" gradientUnits="userSpaceOnUse">
<stop stop-color="#F7DD43"/>
<stop offset="1" stop-color="#F7DD43" stop-opacity="0"/>
</linearGradient>
<linearGradient id="paint21_linear_175_1867" x1="50.5" y1="271" x2="50.5" y2="582.381" gradientUnits="userSpaceOnUse">
<stop stop-color="#F7DD43"/>
<stop offset="1" stop-color="#F7DD43" stop-opacity="0"/>
</linearGradient>
<linearGradient id="paint22_linear_175_1867" x1="50.5" y1="271" x2="50.5" y2="582.381" gradientUnits="userSpaceOnUse">
<stop stop-color="#F7DD43"/>
<stop offset="1" stop-color="#F7DD43" stop-opacity="0"/>
</linearGradient>
<linearGradient id="paint23_linear_175_1867" x1="50.5" y1="271" x2="50.5" y2="582.381" gradientUnits="userSpaceOnUse">
<stop stop-color="#F7DD43"/>
<stop offset="1" stop-color="#F7DD43" stop-opacity="0"/>
</linearGradient>
<linearGradient id="paint24_linear_175_1867" x1="50.5" y1="271" x2="50.5" y2="582.381" gradientUnits="userSpaceOnUse">
<stop stop-color="#F7DD43"/>
<stop offset="1" stop-color="#F7DD43" stop-opacity="0"/>
</linearGradient>
<linearGradient id="paint25_linear_175_1867" x1="50.5" y1="271" x2="50.5" y2="582.381" gradientUnits="userSpaceOnUse">
<stop stop-color="#F7DD43"/>
<stop offset="1" stop-color="#F7DD43" stop-opacity="0"/>
</linearGradient>
<linearGradient id="paint26_linear_175_1867" x1="50.5" y1="271" x2="50.5" y2="582.381" gradientUnits="userSpaceOnUse">
<stop stop-color="#F7DD43"/>
<stop offset="1" stop-color="#F7DD43" stop-opacity="0"/>
</linearGradient>
<linearGradient id="paint27_linear_175_1867" x1="50.5" y1="271" x2="50.5" y2="582.381" gradientUnits="userSpaceOnUse">
<stop stop-color="#F7DD43"/>
<stop offset="1" stop-color="#F7DD43" stop-opacity="0"/>
</linearGradient>
<linearGradient id="paint28_linear_175_1867" x1="50.5" y1="271" x2="50.5" y2="582.381" gradientUnits="userSpaceOnUse">
<stop stop-color="#F7DD43"/>
<stop offset="1" stop-color="#F7DD43" stop-opacity="0"/>
</linearGradient>
<linearGradient id="paint29_linear_175_1867" x1="50.5" y1="271" x2="50.5" y2="582.381" gradientUnits="userSpaceOnUse">
<stop stop-color="#F7DD43"/>
<stop offset="1" stop-color="#F7DD43" stop-opacity="0"/>
</linearGradient>
<linearGradient id="paint30_linear_175_1867" x1="50.5" y1="271" x2="50.5" y2="582.381" gradientUnits="userSpaceOnUse">
<stop stop-color="#F7DD43"/>
<stop offset="1" stop-color="#F7DD43" stop-opacity="0"/>
</linearGradient>
<linearGradient id="paint31_linear_175_1867" x1="50.5" y1="271" x2="50.5" y2="582.381" gradientUnits="userSpaceOnUse">
<stop stop-color="#F7DD43"/>
<stop offset="1" stop-color="#F7DD43" stop-opacity="0"/>
</linearGradient>
<linearGradient id="paint32_linear_175_1867" x1="50.5" y1="271" x2="50.5" y2="582.381" gradientUnits="userSpaceOnUse">
<stop stop-color="#F7DD43"/>
<stop offset="1" stop-color="#F7DD43" stop-opacity="0"/>
</linearGradient>
<linearGradient id="paint33_linear_175_1867" x1="50.5" y1="271" x2="50.5" y2="582.381" gradientUnits="userSpaceOnUse">
<stop stop-color="#F7DD43"/>
<stop offset="1" stop-color="#F7DD43" stop-opacity="0"/>
</linearGradient>
<linearGradient id="paint34_linear_175_1867" x1="50.5" y1="271" x2="50.5" y2="582.381" gradientUnits="userSpaceOnUse">
<stop stop-color="#F7DD43"/>
<stop offset="1" stop-color="#F7DD43" stop-opacity="0"/>
</linearGradient>
<linearGradient id="paint35_linear_175_1867" x1="50.5" y1="271" x2="50.5" y2="582.381" gradientUnits="userSpaceOnUse">
<stop stop-color="#F7DD43"/>
<stop offset="1" stop-color="#F7DD43" stop-opacity="0"/>
</linearGradient>
<linearGradient id="paint36_linear_175_1867" x1="50.5" y1="271" x2="50.5" y2="582.381" gradientUnits="userSpaceOnUse">
<stop stop-color="#F7DD43"/>
<stop offset="1" stop-color="#F7DD43" stop-opacity="0"/>
</linearGradient>
<linearGradient id="paint37_linear_175_1867" x1="50.5" y1="271" x2="50.5" y2="582.381" gradientUnits="userSpaceOnUse">
<stop stop-color="#F7DD43"/>
<stop offset="1" stop-color="#F7DD43" stop-opacity="0"/>
</linearGradient>
<linearGradient id="paint38_linear_175_1867" x1="50.5" y1="271" x2="50.5" y2="582.381" gradientUnits="userSpaceOnUse">
<stop stop-color="#F7DD43"/>
<stop offset="1" stop-color="#F7DD43" stop-opacity="0"/>
</linearGradient>
<linearGradient id="paint39_linear_175_1867" x1="50.5" y1="271" x2="50.5" y2="582.381" gradientUnits="userSpaceOnUse">
<stop stop-color="#F7DD43"/>
<stop offset="1" stop-color="#F7DD43" stop-opacity="0"/>
</linearGradient>
<linearGradient id="paint40_linear_175_1867" x1="50.5" y1="271" x2="50.5" y2="582.381" gradientUnits="userSpaceOnUse">
<stop stop-color="#F7DD43"/>
<stop offset="1" stop-color="#F7DD43" stop-opacity="0"/>
</linearGradient>
<linearGradient id="paint41_linear_175_1867" x1="50.5" y1="271" x2="50.5" y2="582.381" gradientUnits="userSpaceOnUse">
<stop stop-color="#F7DD43"/>
<stop offset="1" stop-color="#F7DD43" stop-opacity="0"/>
</linearGradient>
<linearGradient id="paint42_linear_175_1867" x1="50.5" y1="271" x2="50.5" y2="582.381" gradientUnits="userSpaceOnUse">
<stop stop-color="#F7DD43"/>
<stop offset="1" stop-color="#F7DD43" stop-opacity="0"/>
</linearGradient>
<linearGradient id="paint43_linear_175_1867" x1="50.5" y1="271" x2="50.5" y2="582.381" gradientUnits="userSpaceOnUse">
<stop stop-color="#F7DD43"/>
<stop offset="1" stop-color="#F7DD43" stop-opacity="0"/>
</linearGradient>
<linearGradient id="paint44_linear_175_1867" x1="50.5" y1="271" x2="50.5" y2="582.381" gradientUnits="userSpaceOnUse">
<stop stop-color="#F7DD43"/>
<stop offset="1" stop-color="#F7DD43" stop-opacity="0"/>
</linearGradient>
<linearGradient id="paint45_linear_175_1867" x1="50.5" y1="271" x2="50.5" y2="582.381" gradientUnits="userSpaceOnUse">
<stop stop-color="#F7DD43"/>
<stop offset="1" stop-color="#F7DD43" stop-opacity="0"/>
</linearGradient>
<linearGradient id="paint46_linear_175_1867" x1="50.5" y1="271" x2="50.5" y2="582.381" gradientUnits="userSpaceOnUse">
<stop stop-color="#F7DD43"/>
<stop offset="1" stop-color="#F7DD43" stop-opacity="0"/>
</linearGradient>
<linearGradient id="paint47_linear_175_1867" x1="936.5" y1="-29" x2="936.5" y2="269.818" gradientUnits="userSpaceOnUse">
<stop stop-color="#F7DD43"/>
<stop offset="1" stop-color="#F7DD43" stop-opacity="0"/>
</linearGradient>
<linearGradient id="paint48_linear_175_1867" x1="936.5" y1="-29" x2="936.5" y2="269.818" gradientUnits="userSpaceOnUse">
<stop stop-color="#F7DD43"/>
<stop offset="1" stop-color="#F7DD43" stop-opacity="0"/>
</linearGradient>
<linearGradient id="paint49_linear_175_1867" x1="936.5" y1="-29" x2="936.5" y2="269.818" gradientUnits="userSpaceOnUse">
<stop stop-color="#F7DD43"/>
<stop offset="1" stop-color="#F7DD43" stop-opacity="0"/>
</linearGradient>
<linearGradient id="paint50_linear_175_1867" x1="936.5" y1="-29" x2="936.5" y2="269.818" gradientUnits="userSpaceOnUse">
<stop stop-color="#F7DD43"/>
<stop offset="1" stop-color="#F7DD43" stop-opacity="0"/>
</linearGradient>
<linearGradient id="paint51_linear_175_1867" x1="936.5" y1="-29" x2="936.5" y2="269.818" gradientUnits="userSpaceOnUse">
<stop stop-color="#F7DD43"/>
<stop offset="1" stop-color="#F7DD43" stop-opacity="0"/>
</linearGradient>
<linearGradient id="paint52_linear_175_1867" x1="936.5" y1="-29" x2="936.5" y2="269.818" gradientUnits="userSpaceOnUse">
<stop stop-color="#F7DD43"/>
<stop offset="1" stop-color="#F7DD43" stop-opacity="0"/>
</linearGradient>
<linearGradient id="paint53_linear_175_1867" x1="936.5" y1="-29" x2="936.5" y2="269.818" gradientUnits="userSpaceOnUse">
<stop stop-color="#F7DD43"/>
<stop offset="1" stop-color="#F7DD43" stop-opacity="0"/>
</linearGradient>
<linearGradient id="paint54_linear_175_1867" x1="936.5" y1="-29" x2="936.5" y2="269.818" gradientUnits="userSpaceOnUse">
<stop stop-color="#F7DD43"/>
<stop offset="1" stop-color="#F7DD43" stop-opacity="0"/>
</linearGradient>
<linearGradient id="paint55_linear_175_1867" x1="936.5" y1="-29" x2="936.5" y2="269.818" gradientUnits="userSpaceOnUse">
<stop stop-color="#F7DD43"/>
<stop offset="1" stop-color="#F7DD43" stop-opacity="0"/>
</linearGradient>
<linearGradient id="paint56_linear_175_1867" x1="936.5" y1="-29" x2="936.5" y2="269.818" gradientUnits="userSpaceOnUse">
<stop stop-color="#F7DD43"/>
<stop offset="1" stop-color="#F7DD43" stop-opacity="0"/>
</linearGradient>
<linearGradient id="paint57_linear_175_1867" x1="936.5" y1="-29" x2="936.5" y2="269.818" gradientUnits="userSpaceOnUse">
<stop stop-color="#F7DD43"/>
<stop offset="1" stop-color="#F7DD43" stop-opacity="0"/>
</linearGradient>
<linearGradient id="paint58_linear_175_1867" x1="936.5" y1="-29" x2="936.5" y2="269.818" gradientUnits="userSpaceOnUse">
<stop stop-color="#F7DD43"/>
<stop offset="1" stop-color="#F7DD43" stop-opacity="0"/>
</linearGradient>
<linearGradient id="paint59_linear_175_1867" x1="936.5" y1="-29" x2="936.5" y2="269.818" gradientUnits="userSpaceOnUse">
<stop stop-color="#F7DD43"/>
<stop offset="1" stop-color="#F7DD43" stop-opacity="0"/>
</linearGradient>
<linearGradient id="paint60_linear_175_1867" x1="936.5" y1="-29" x2="936.5" y2="269.818" gradientUnits="userSpaceOnUse">
<stop stop-color="#F7DD43"/>
<stop offset="1" stop-color="#F7DD43" stop-opacity="0"/>
</linearGradient>
<linearGradient id="paint61_linear_175_1867" x1="936.5" y1="-29" x2="936.5" y2="269.818" gradientUnits="userSpaceOnUse">
<stop stop-color="#F7DD43"/>
<stop offset="1" stop-color="#F7DD43" stop-opacity="0"/>
</linearGradient>
<linearGradient id="paint62_linear_175_1867" x1="936.5" y1="-29" x2="936.5" y2="269.818" gradientUnits="userSpaceOnUse">
<stop stop-color="#F7DD43"/>
<stop offset="1" stop-color="#F7DD43" stop-opacity="0"/>
</linearGradient>
<linearGradient id="paint63_linear_175_1867" x1="936.5" y1="-29" x2="936.5" y2="269.818" gradientUnits="userSpaceOnUse">
<stop stop-color="#F7DD43"/>
<stop offset="1" stop-color="#F7DD43" stop-opacity="0"/>
</linearGradient>
<linearGradient id="paint64_linear_175_1867" x1="936.5" y1="-29" x2="936.5" y2="269.818" gradientUnits="userSpaceOnUse">
<stop stop-color="#F7DD43"/>
<stop offset="1" stop-color="#F7DD43" stop-opacity="0"/>
</linearGradient>
<linearGradient id="paint65_linear_175_1867" x1="936.5" y1="-29" x2="936.5" y2="269.818" gradientUnits="userSpaceOnUse">
<stop stop-color="#F7DD43"/>
<stop offset="1" stop-color="#F7DD43" stop-opacity="0"/>
</linearGradient>
<linearGradient id="paint66_linear_175_1867" x1="936.5" y1="-29" x2="936.5" y2="269.818" gradientUnits="userSpaceOnUse">
<stop stop-color="#F7DD43"/>
<stop offset="1" stop-color="#F7DD43" stop-opacity="0"/>
</linearGradient>
<linearGradient id="paint67_linear_175_1867" x1="936.5" y1="-29" x2="936.5" y2="269.818" gradientUnits="userSpaceOnUse">
<stop stop-color="#F7DD43"/>
<stop offset="1" stop-color="#F7DD43" stop-opacity="0"/>
</linearGradient>
<linearGradient id="paint68_linear_175_1867" x1="936.5" y1="-29" x2="936.5" y2="269.818" gradientUnits="userSpaceOnUse">
<stop stop-color="#F7DD43"/>
<stop offset="1" stop-color="#F7DD43" stop-opacity="0"/>
</linearGradient>
<linearGradient id="paint69_linear_175_1867" x1="936.5" y1="-29" x2="936.5" y2="269.818" gradientUnits="userSpaceOnUse">
<stop stop-color="#F7DD43"/>
<stop offset="1" stop-color="#F7DD43" stop-opacity="0"/>
</linearGradient>
<linearGradient id="paint70_linear_175_1867" x1="936.5" y1="-29" x2="936.5" y2="269.818" gradientUnits="userSpaceOnUse">
<stop stop-color="#F7DD43"/>
<stop offset="1" stop-color="#F7DD43" stop-opacity="0"/>
</linearGradient>
<linearGradient id="paint71_linear_175_1867" x1="936.5" y1="-29" x2="936.5" y2="269.818" gradientUnits="userSpaceOnUse">
<stop stop-color="#F7DD43"/>
<stop offset="1" stop-color="#F7DD43" stop-opacity="0"/>
</linearGradient>
<linearGradient id="paint72_linear_175_1867" x1="936.5" y1="-29" x2="936.5" y2="269.818" gradientUnits="userSpaceOnUse">
<stop stop-color="#F7DD43"/>
<stop offset="1" stop-color="#F7DD43" stop-opacity="0"/>
</linearGradient>
<linearGradient id="paint73_linear_175_1867" x1="936.5" y1="-29" x2="936.5" y2="269.818" gradientUnits="userSpaceOnUse">
<stop stop-color="#F7DD43"/>
<stop offset="1" stop-color="#F7DD43" stop-opacity="0"/>
</linearGradient>
<linearGradient id="paint74_linear_175_1867" x1="936.5" y1="-29" x2="936.5" y2="269.818" gradientUnits="userSpaceOnUse">
<stop stop-color="#F7DD43"/>
<stop offset="1" stop-color="#F7DD43" stop-opacity="0"/>
</linearGradient>
<linearGradient id="paint75_linear_175_1867" x1="936.5" y1="-29" x2="936.5" y2="269.818" gradientUnits="userSpaceOnUse">
<stop stop-color="#F7DD43"/>
<stop offset="1" stop-color="#F7DD43" stop-opacity="0"/>
</linearGradient>
<linearGradient id="paint76_linear_175_1867" x1="936.5" y1="-29" x2="936.5" y2="269.818" gradientUnits="userSpaceOnUse">
<stop stop-color="#F7DD43"/>
<stop offset="1" stop-color="#F7DD43" stop-opacity="0"/>
</linearGradient>
<linearGradient id="paint77_linear_175_1867" x1="936.5" y1="-29" x2="936.5" y2="269.818" gradientUnits="userSpaceOnUse">
<stop stop-color="#F7DD43"/>
<stop offset="1" stop-color="#F7DD43" stop-opacity="0"/>
</linearGradient>
<linearGradient id="paint78_linear_175_1867" x1="936.5" y1="-29" x2="936.5" y2="269.818" gradientUnits="userSpaceOnUse">
<stop stop-color="#F7DD43"/>
<stop offset="1" stop-color="#F7DD43" stop-opacity="0"/>
</linearGradient>
<linearGradient id="paint79_linear_175_1867" x1="936.5" y1="-29" x2="936.5" y2="269.818" gradientUnits="userSpaceOnUse">
<stop stop-color="#F7DD43"/>
<stop offset="1" stop-color="#F7DD43" stop-opacity="0"/>
</linearGradient>
<linearGradient id="paint80_linear_175_1867" x1="936.5" y1="-29" x2="936.5" y2="269.818" gradientUnits="userSpaceOnUse">
<stop stop-color="#F7DD43"/>
<stop offset="1" stop-color="#F7DD43" stop-opacity="0"/>
</linearGradient>
<linearGradient id="paint81_linear_175_1867" x1="936.5" y1="-29" x2="936.5" y2="269.818" gradientUnits="userSpaceOnUse">
<stop stop-color="#F7DD43"/>
<stop offset="1" stop-color="#F7DD43" stop-opacity="0"/>
</linearGradient>
<linearGradient id="paint82_linear_175_1867" x1="936.5" y1="-29" x2="936.5" y2="269.818" gradientUnits="userSpaceOnUse">
<stop stop-color="#F7DD43"/>
<stop offset="1" stop-color="#F7DD43" stop-opacity="0"/>
</linearGradient>
<linearGradient id="paint83_linear_175_1867" x1="936.5" y1="-29" x2="936.5" y2="269.818" gradientUnits="userSpaceOnUse">
<stop stop-color="#F7DD43"/>
<stop offset="1" stop-color="#F7DD43" stop-opacity="0"/>
</linearGradient>
<linearGradient id="paint84_linear_175_1867" x1="936.5" y1="-29" x2="936.5" y2="269.818" gradientUnits="userSpaceOnUse">
<stop stop-color="#F7DD43"/>
<stop offset="1" stop-color="#F7DD43" stop-opacity="0"/>
</linearGradient>
<linearGradient id="paint85_linear_175_1867" x1="936.5" y1="-29" x2="936.5" y2="269.818" gradientUnits="userSpaceOnUse">
<stop stop-color="#F7DD43"/>
<stop offset="1" stop-color="#F7DD43" stop-opacity="0"/>
</linearGradient>
<linearGradient id="paint86_linear_175_1867" x1="936.5" y1="-29" x2="936.5" y2="269.818" gradientUnits="userSpaceOnUse">
<stop stop-color="#F7DD43"/>
<stop offset="1" stop-color="#F7DD43" stop-opacity="0"/>
</linearGradient>
<linearGradient id="paint87_linear_175_1867" x1="936.5" y1="-29" x2="936.5" y2="269.818" gradientUnits="userSpaceOnUse">
<stop stop-color="#F7DD43"/>
<stop offset="1" stop-color="#F7DD43" stop-opacity="0"/>
</linearGradient>
<linearGradient id="paint88_linear_175_1867" x1="936.5" y1="-29" x2="936.5" y2="269.818" gradientUnits="userSpaceOnUse">
<stop stop-color="#F7DD43"/>
<stop offset="1" stop-color="#F7DD43" stop-opacity="0"/>
</linearGradient>
<linearGradient id="paint89_linear_175_1867" x1="936.5" y1="-29" x2="936.5" y2="269.818" gradientUnits="userSpaceOnUse">
<stop stop-color="#F7DD43"/>
<stop offset="1" stop-color="#F7DD43" stop-opacity="0"/>
</linearGradient>
<linearGradient id="paint90_linear_175_1867" x1="936.5" y1="-29" x2="936.5" y2="269.818" gradientUnits="userSpaceOnUse">
<stop stop-color="#F7DD43"/>
<stop offset="1" stop-color="#F7DD43" stop-opacity="0"/>
</linearGradient>
<linearGradient id="paint91_linear_175_1867" x1="936.5" y1="-29" x2="936.5" y2="269.818" gradientUnits="userSpaceOnUse">
<stop stop-color="#F7DD43"/>
<stop offset="1" stop-color="#F7DD43" stop-opacity="0"/>
</linearGradient>
<linearGradient id="paint92_linear_175_1867" x1="936.5" y1="-29" x2="936.5" y2="269.818" gradientUnits="userSpaceOnUse">
<stop stop-color="#F7DD43"/>
<stop offset="1" stop-color="#F7DD43" stop-opacity="0"/>
</linearGradient>
<linearGradient id="paint93_linear_175_1867" x1="936.5" y1="-29" x2="936.5" y2="269.818" gradientUnits="userSpaceOnUse">
<stop stop-color="#F7DD43"/>
<stop offset="1" stop-color="#F7DD43" stop-opacity="0"/>
</linearGradient>
<clipPath id="clip0_175_1867">
<rect width="1024" height="753" fill="white"/>
</clipPath>
</defs>
</svg>
