<svg width="1361" height="1781" viewBox="0 0 1361 1781" fill="none" xmlns="http://www.w3.org/2000/svg">
<g opacity="0.2" filter="url(#filter0_f_175_190)">
<ellipse cx="690.5" cy="751" rx="670.5" ry="350" fill="#338AF3"/>
</g>
<g opacity="0.6">
<path d="M671.93 1101C673.356 1101 674.436 1101.6 675.17 1102.81C675.916 1104.01 676.29 1105.75 676.29 1108.04C676.29 1110.33 675.916 1112.08 675.17 1113.29C674.436 1114.5 673.356 1115.1 671.93 1115.1C670.517 1115.1 669.437 1114.5 668.69 1113.29C667.943 1112.08 667.57 1110.33 667.57 1108.04C667.57 1105.77 667.943 1104.02 668.69 1102.81C669.437 1101.6 670.517 1101 671.93 1101ZM668.99 1108.04C668.99 1109.66 669.137 1110.93 669.43 1111.85L673.87 1103.01C673.403 1102.39 672.756 1102.08 671.93 1102.08C671.01 1102.08 670.29 1102.57 669.77 1103.55C669.25 1104.52 668.99 1106.02 668.99 1108.04ZM671.93 1114C672.863 1114 673.59 1113.52 674.11 1112.55C674.63 1111.56 674.89 1110.06 674.89 1108.04C674.89 1106.32 674.723 1105 674.39 1104.05L669.95 1112.97C670.43 1113.66 671.09 1114 671.93 1114Z" fill="url(#paint0_linear_175_190)"/>
<path d="M673.13 1136.64H676.07V1137.69H668.45V1136.64H671.85V1125.43L668.61 1127.36L668.05 1126.47L672.05 1123.99H673.13V1136.64Z" fill="url(#paint1_linear_175_190)"/>
<path d="M671.93 1146.59C673.356 1146.59 674.436 1147.19 675.17 1148.4C675.916 1149.6 676.29 1151.34 676.29 1153.63C676.29 1155.91 675.916 1157.66 675.17 1158.87C674.436 1160.08 673.356 1160.69 671.93 1160.69C670.517 1160.69 669.437 1160.08 668.69 1158.87C667.943 1157.66 667.57 1155.91 667.57 1153.63C667.57 1151.35 667.943 1149.61 668.69 1148.4C669.437 1147.19 670.517 1146.59 671.93 1146.59ZM668.99 1153.63C668.99 1155.25 669.137 1156.52 669.43 1157.43L673.87 1148.6C673.403 1147.98 672.756 1147.66 671.93 1147.66C671.01 1147.66 670.29 1148.15 669.77 1149.14C669.25 1150.11 668.99 1151.6 668.99 1153.63ZM671.93 1159.59C672.863 1159.59 673.59 1159.1 674.11 1158.13C674.63 1157.15 674.89 1155.65 674.89 1153.63C674.89 1151.91 674.723 1150.58 674.39 1149.64L669.95 1158.55C670.43 1159.24 671.09 1159.59 671.93 1159.59Z" fill="url(#paint2_linear_175_190)"/>
<path d="M673.13 1182.22H676.07V1183.28H668.45V1182.22H671.85V1171.01L668.61 1172.95L668.05 1172.05L672.05 1169.58H673.13V1182.22Z" fill="url(#paint3_linear_175_190)"/>
<path d="M673.13 1205.01H676.07V1206.07H668.45V1205.01H671.85V1193.81L668.61 1195.74L668.05 1194.84L672.05 1192.37H673.13V1205.01Z" fill="url(#paint4_linear_175_190)"/>
<path d="M671.93 1214.96C673.356 1214.96 674.436 1215.57 675.17 1216.78C675.916 1217.98 676.29 1219.72 676.29 1222C676.29 1224.29 675.916 1226.04 675.17 1227.25C674.436 1228.46 673.356 1229.06 671.93 1229.06C670.517 1229.06 669.437 1228.46 668.69 1227.25C667.943 1226.04 667.57 1224.29 667.57 1222C667.57 1219.73 667.943 1217.99 668.69 1216.78C669.437 1215.57 670.517 1214.96 671.93 1214.96ZM668.99 1222C668.99 1223.63 669.137 1224.9 669.43 1225.81L673.87 1216.98C673.403 1216.35 672.756 1216.04 671.93 1216.04C671.01 1216.04 670.29 1216.53 669.77 1217.52C669.25 1218.49 668.99 1219.98 668.99 1222ZM671.93 1227.97C672.863 1227.97 673.59 1227.48 674.11 1226.51C674.63 1225.53 674.89 1224.03 674.89 1222C674.89 1220.29 674.723 1218.96 674.39 1218.02L669.95 1226.93C670.43 1227.62 671.09 1227.97 671.93 1227.97Z" fill="url(#paint5_linear_175_190)"/>
<path d="M673.13 1250.6H676.07V1251.66H668.45V1250.6H671.85V1239.39L668.61 1241.33L668.05 1240.43L672.05 1237.96H673.13V1250.6Z" fill="url(#paint6_linear_175_190)"/>
<path d="M671.93 1260.55C673.356 1260.55 674.436 1261.15 675.17 1262.36C675.916 1263.56 676.29 1265.3 676.29 1267.59C676.29 1269.88 675.916 1271.63 675.17 1272.83C674.436 1274.04 673.356 1274.65 671.93 1274.65C670.517 1274.65 669.437 1274.04 668.69 1272.83C667.943 1271.63 667.57 1269.88 667.57 1267.59C667.57 1265.32 667.943 1263.57 668.69 1262.36C669.437 1261.15 670.517 1260.55 671.93 1260.55ZM668.99 1267.59C668.99 1269.21 669.137 1270.48 669.43 1271.4L673.87 1262.56C673.403 1261.94 672.756 1261.63 671.93 1261.63C671.01 1261.63 670.29 1262.12 669.77 1263.1C669.25 1264.07 668.99 1265.57 668.99 1267.59ZM671.93 1273.55C672.863 1273.55 673.59 1273.07 674.11 1272.1C674.63 1271.11 674.89 1269.61 674.89 1267.59C674.89 1265.87 674.723 1264.55 674.39 1263.6L669.95 1272.52C670.43 1273.21 671.09 1273.55 671.93 1273.55Z" fill="url(#paint7_linear_175_190)"/>
<path d="M671.93 1283.34C673.356 1283.34 674.436 1283.95 675.17 1285.16C675.916 1286.35 676.29 1288.1 676.29 1290.38C676.29 1292.67 675.916 1294.42 675.17 1295.63C674.436 1296.84 673.356 1297.44 671.93 1297.44C670.517 1297.44 669.437 1296.84 668.69 1295.63C667.943 1294.42 667.57 1292.67 667.57 1290.38C667.57 1288.11 667.943 1286.37 668.69 1285.16C669.437 1283.95 670.517 1283.34 671.93 1283.34ZM668.99 1290.38C668.99 1292 669.137 1293.27 669.43 1294.19L673.87 1285.36C673.403 1284.73 672.756 1284.42 671.93 1284.42C671.01 1284.42 670.29 1284.91 669.77 1285.9C669.25 1286.87 668.99 1288.36 668.99 1290.38ZM671.93 1296.35C672.863 1296.35 673.59 1295.86 674.11 1294.89C674.63 1293.91 674.89 1292.4 674.89 1290.38C674.89 1288.67 674.723 1287.34 674.39 1286.39L669.95 1295.31C670.43 1296 671.09 1296.35 671.93 1296.35Z" fill="url(#paint8_linear_175_190)"/>
<path d="M673.13 1318.98H676.07V1320.04H668.45V1318.98H671.85V1307.77L668.61 1309.71L668.05 1308.81L672.05 1306.33H673.13V1318.98Z" fill="url(#paint9_linear_175_190)"/>
<path d="M671.93 1328.93C673.356 1328.93 674.436 1329.53 675.17 1330.74C675.916 1331.94 676.29 1333.68 676.29 1335.97C676.29 1338.26 675.916 1340 675.17 1341.21C674.436 1342.42 673.356 1343.03 671.93 1343.03C670.517 1343.03 669.437 1342.42 668.69 1341.21C667.943 1340 667.57 1338.26 667.57 1335.97C667.57 1333.69 667.943 1331.95 668.69 1330.74C669.437 1329.53 670.517 1328.93 671.93 1328.93ZM668.99 1335.97C668.99 1337.59 669.137 1338.86 669.43 1339.78L673.87 1330.94C673.403 1330.32 672.756 1330 671.93 1330C671.01 1330 670.29 1330.5 669.77 1331.48C669.25 1332.45 668.99 1333.95 668.99 1335.97ZM671.93 1341.93C672.863 1341.93 673.59 1341.45 674.11 1340.48C674.63 1339.49 674.89 1337.99 674.89 1335.97C674.89 1334.25 674.723 1332.92 674.39 1331.98L669.95 1340.89C670.43 1341.59 671.09 1341.93 671.93 1341.93Z" fill="url(#paint10_linear_175_190)"/>
<path d="M673.13 1364.56H676.07V1365.62H668.45V1364.56H671.85V1353.36L668.61 1355.29L668.05 1354.39L672.05 1351.92H673.13V1364.56Z" fill="url(#paint11_linear_175_190)"/>
<path d="M673.13 1387.36H676.07V1388.41H668.45V1387.36H671.85V1376.15L668.61 1378.08L668.05 1377.19L672.05 1374.71H673.13V1387.36Z" fill="url(#paint12_linear_175_190)"/>
<path d="M709.07 1146.59C710.497 1146.59 711.577 1147.19 712.31 1148.4C713.057 1149.6 713.43 1151.34 713.43 1153.63C713.43 1155.91 713.057 1157.66 712.31 1158.87C711.577 1160.08 710.497 1160.69 709.07 1160.69C707.657 1160.69 706.577 1160.08 705.83 1158.87C705.084 1157.66 704.71 1155.91 704.71 1153.63C704.71 1151.35 705.084 1149.61 705.83 1148.4C706.577 1147.19 707.657 1146.59 709.07 1146.59ZM706.13 1153.63C706.13 1155.25 706.277 1156.52 706.57 1157.43L711.01 1148.6C710.543 1147.98 709.897 1147.66 709.07 1147.66C708.15 1147.66 707.43 1148.15 706.91 1149.14C706.39 1150.11 706.13 1151.6 706.13 1153.63ZM709.07 1159.59C710.003 1159.59 710.73 1159.1 711.25 1158.13C711.77 1157.15 712.03 1155.65 712.03 1153.63C712.03 1151.91 711.863 1150.58 711.53 1149.64L707.09 1158.55C707.57 1159.24 708.23 1159.59 709.07 1159.59Z" fill="url(#paint13_linear_175_190)"/>
<path d="M710.27 1182.22H713.21V1183.28H705.59V1182.22H708.99V1171.01L705.75 1172.95L705.19 1172.05L709.19 1169.58H710.27V1182.22Z" fill="url(#paint14_linear_175_190)"/>
<path d="M709.07 1192.17C710.497 1192.17 711.577 1192.78 712.31 1193.99C713.057 1195.18 713.43 1196.92 713.43 1199.21C713.43 1201.5 713.057 1203.25 712.31 1204.46C711.577 1205.67 710.497 1206.27 709.07 1206.27C707.657 1206.27 706.577 1205.67 705.83 1204.46C705.084 1203.25 704.71 1201.5 704.71 1199.21C704.71 1196.94 705.084 1195.2 705.83 1193.99C706.577 1192.78 707.657 1192.17 709.07 1192.17ZM706.13 1199.21C706.13 1200.83 706.277 1202.1 706.57 1203.02L711.01 1194.19C710.543 1193.56 709.897 1193.25 709.07 1193.25C708.15 1193.25 707.43 1193.74 706.91 1194.72C706.39 1195.69 706.13 1197.19 706.13 1199.21ZM709.07 1205.17C710.003 1205.17 710.73 1204.69 711.25 1203.72C711.77 1202.73 712.03 1201.23 712.03 1199.21C712.03 1197.5 711.863 1196.17 711.53 1195.22L707.09 1204.14C707.57 1204.83 708.23 1205.17 709.07 1205.17Z" fill="url(#paint15_linear_175_190)"/>
<path d="M709.07 1214.96C710.497 1214.96 711.577 1215.57 712.31 1216.78C713.057 1217.98 713.43 1219.72 713.43 1222C713.43 1224.29 713.057 1226.04 712.31 1227.25C711.577 1228.46 710.497 1229.06 709.07 1229.06C707.657 1229.06 706.577 1228.46 705.83 1227.25C705.084 1226.04 704.71 1224.29 704.71 1222C704.71 1219.73 705.084 1217.99 705.83 1216.78C706.577 1215.57 707.657 1214.96 709.07 1214.96ZM706.13 1222C706.13 1223.63 706.277 1224.9 706.57 1225.81L711.01 1216.98C710.543 1216.35 709.897 1216.04 709.07 1216.04C708.15 1216.04 707.43 1216.53 706.91 1217.52C706.39 1218.49 706.13 1219.98 706.13 1222ZM709.07 1227.97C710.003 1227.97 710.73 1227.48 711.25 1226.51C711.77 1225.53 712.03 1224.03 712.03 1222C712.03 1220.29 711.863 1218.96 711.53 1218.02L707.09 1226.93C707.57 1227.62 708.23 1227.97 709.07 1227.97Z" fill="url(#paint16_linear_175_190)"/>
<path d="M710.27 1250.6H713.21V1251.66H705.59V1250.6H708.99V1239.39L705.75 1241.33L705.19 1240.43L709.19 1237.96H710.27V1250.6Z" fill="url(#paint17_linear_175_190)"/>
<path d="M709.07 1260.55C710.497 1260.55 711.577 1261.15 712.31 1262.36C713.057 1263.56 713.43 1265.3 713.43 1267.59C713.43 1269.88 713.057 1271.63 712.31 1272.83C711.577 1274.04 710.497 1274.65 709.07 1274.65C707.657 1274.65 706.577 1274.04 705.83 1272.83C705.084 1271.63 704.71 1269.88 704.71 1267.59C704.71 1265.32 705.084 1263.57 705.83 1262.36C706.577 1261.15 707.657 1260.55 709.07 1260.55ZM706.13 1267.59C706.13 1269.21 706.277 1270.48 706.57 1271.4L711.01 1262.56C710.543 1261.94 709.897 1261.63 709.07 1261.63C708.15 1261.63 707.43 1262.12 706.91 1263.1C706.39 1264.07 706.13 1265.57 706.13 1267.59ZM709.07 1273.55C710.003 1273.55 710.73 1273.07 711.25 1272.1C711.77 1271.11 712.03 1269.61 712.03 1267.59C712.03 1265.87 711.863 1264.55 711.53 1263.6L707.09 1272.52C707.57 1273.21 708.23 1273.55 709.07 1273.55Z" fill="url(#paint18_linear_175_190)"/>
<path d="M710.27 1296.19H713.21V1297.24H705.59V1296.19H708.99V1284.98L705.75 1286.91L705.19 1286.01L709.19 1283.54H710.27V1296.19Z" fill="url(#paint19_linear_175_190)"/>
<path d="M709.07 1306.14C710.497 1306.14 711.577 1306.74 712.31 1307.95C713.057 1309.15 713.43 1310.89 713.43 1313.18C713.43 1315.46 713.057 1317.21 712.31 1318.42C711.577 1319.63 710.497 1320.24 709.07 1320.24C707.657 1320.24 706.577 1319.63 705.83 1318.42C705.084 1317.21 704.71 1315.46 704.71 1313.18C704.71 1310.9 705.084 1309.16 705.83 1307.95C706.577 1306.74 707.657 1306.14 709.07 1306.14ZM706.13 1313.18C706.13 1314.8 706.277 1316.07 706.57 1316.98L711.01 1308.15C710.543 1307.52 709.897 1307.21 709.07 1307.21C708.15 1307.21 707.43 1307.7 706.91 1308.69C706.39 1309.66 706.13 1311.15 706.13 1313.18ZM709.07 1319.14C710.003 1319.14 710.73 1318.65 711.25 1317.68C711.77 1316.7 712.03 1315.2 712.03 1313.18C712.03 1311.46 711.863 1310.13 711.53 1309.19L707.09 1318.1C707.57 1318.79 708.23 1319.14 709.07 1319.14Z" fill="url(#paint20_linear_175_190)"/>
<path d="M709.07 1328.93C710.497 1328.93 711.577 1329.53 712.31 1330.74C713.057 1331.94 713.43 1333.68 713.43 1335.97C713.43 1338.26 713.057 1340 712.31 1341.21C711.577 1342.42 710.497 1343.03 709.07 1343.03C707.657 1343.03 706.577 1342.42 705.83 1341.21C705.084 1340 704.71 1338.26 704.71 1335.97C704.71 1333.69 705.084 1331.95 705.83 1330.74C706.577 1329.53 707.657 1328.93 709.07 1328.93ZM706.13 1335.97C706.13 1337.59 706.277 1338.86 706.57 1339.78L711.01 1330.94C710.543 1330.32 709.897 1330 709.07 1330C708.15 1330 707.43 1330.5 706.91 1331.48C706.39 1332.45 706.13 1333.95 706.13 1335.97ZM709.07 1341.93C710.003 1341.93 710.73 1341.45 711.25 1340.48C711.77 1339.49 712.03 1337.99 712.03 1335.97C712.03 1334.25 711.863 1332.92 711.53 1331.98L707.09 1340.89C707.57 1341.59 708.23 1341.93 709.07 1341.93Z" fill="url(#paint21_linear_175_190)"/>
<path d="M710.27 1364.56H713.21V1365.62H705.59V1364.56H708.99V1353.36L705.75 1355.29L705.19 1354.39L709.19 1351.92H710.27V1364.56Z" fill="url(#paint22_linear_175_190)"/>
<path d="M709.07 1374.51C710.497 1374.51 711.577 1375.12 712.31 1376.33C713.057 1377.53 713.43 1379.27 713.43 1381.55C713.43 1383.84 713.057 1385.59 712.31 1386.8C711.577 1388.01 710.497 1388.61 709.07 1388.61C707.657 1388.61 706.577 1388.01 705.83 1386.8C705.084 1385.59 704.71 1383.84 704.71 1381.55C704.71 1379.28 705.084 1377.54 705.83 1376.33C706.577 1375.12 707.657 1374.51 709.07 1374.51ZM706.13 1381.55C706.13 1383.18 706.277 1384.45 706.57 1385.36L711.01 1376.53C710.543 1375.9 709.897 1375.59 709.07 1375.59C708.15 1375.59 707.43 1376.08 706.91 1377.07C706.39 1378.04 706.13 1379.53 706.13 1381.55ZM709.07 1387.52C710.003 1387.52 710.73 1387.03 711.25 1386.06C711.77 1385.08 712.03 1383.57 712.03 1381.55C712.03 1379.84 711.863 1378.51 711.53 1377.57L707.09 1386.48C707.57 1387.17 708.23 1387.52 709.07 1387.52Z" fill="url(#paint23_linear_175_190)"/>
<path d="M710.27 1410.15H713.21V1411.21H705.59V1410.15H708.99V1398.94L705.75 1400.88L705.19 1399.98L709.19 1397.51H710.27V1410.15Z" fill="url(#paint24_linear_175_190)"/>
<path d="M710.27 1432.94H713.21V1434H705.59V1432.94H708.99V1421.73L705.75 1423.67L705.19 1422.77L709.19 1420.3H710.27V1432.94Z" fill="url(#paint25_linear_175_190)"/>
<path d="M653.36 1169.38C654.786 1169.38 655.866 1169.98 656.599 1171.19C657.346 1172.39 657.719 1174.13 657.719 1176.42C657.719 1178.71 657.346 1180.45 656.599 1181.66C655.866 1182.87 654.786 1183.48 653.36 1183.48C651.946 1183.48 650.867 1182.87 650.12 1181.66C649.373 1180.45 649 1178.71 649 1176.42C649 1174.14 649.373 1172.4 650.12 1171.19C650.867 1169.98 651.946 1169.38 653.36 1169.38ZM650.42 1176.42C650.42 1178.04 650.567 1179.31 650.86 1180.23L655.3 1171.39C654.833 1170.77 654.186 1170.46 653.36 1170.46C652.44 1170.46 651.72 1170.95 651.2 1171.93C650.68 1172.9 650.42 1174.4 650.42 1176.42ZM653.36 1182.38C654.293 1182.38 655.02 1181.9 655.54 1180.93C656.06 1179.94 656.319 1178.44 656.319 1176.42C656.319 1174.7 656.153 1173.37 655.82 1172.43L651.38 1181.34C651.86 1182.04 652.52 1182.38 653.36 1182.38Z" fill="url(#paint26_linear_175_190)"/>
<path d="M653.36 1192.17C654.786 1192.17 655.866 1192.78 656.599 1193.99C657.346 1195.18 657.719 1196.92 657.719 1199.21C657.719 1201.5 657.346 1203.25 656.599 1204.46C655.866 1205.67 654.786 1206.27 653.36 1206.27C651.946 1206.27 650.867 1205.67 650.12 1204.46C649.373 1203.25 649 1201.5 649 1199.21C649 1196.94 649.373 1195.2 650.12 1193.99C650.867 1192.78 651.946 1192.17 653.36 1192.17ZM650.42 1199.21C650.42 1200.83 650.567 1202.1 650.86 1203.02L655.3 1194.19C654.833 1193.56 654.186 1193.25 653.36 1193.25C652.44 1193.25 651.72 1193.74 651.2 1194.72C650.68 1195.69 650.42 1197.19 650.42 1199.21ZM653.36 1205.17C654.293 1205.17 655.02 1204.69 655.54 1203.72C656.06 1202.73 656.319 1201.23 656.319 1199.21C656.319 1197.5 656.153 1196.17 655.82 1195.22L651.38 1204.14C651.86 1204.83 652.52 1205.17 653.36 1205.17Z" fill="url(#paint27_linear_175_190)"/>
<path d="M654.56 1227.81H657.499V1228.86H649.88V1227.81H653.28V1216.6L650.04 1218.53L649.48 1217.64L653.48 1215.16H654.56V1227.81Z" fill="url(#paint28_linear_175_190)"/>
<path d="M653.36 1237.76C654.786 1237.76 655.866 1238.36 656.599 1239.57C657.346 1240.77 657.719 1242.51 657.719 1244.8C657.719 1247.08 657.346 1248.83 656.599 1250.04C655.866 1251.25 654.786 1251.86 653.36 1251.86C651.946 1251.86 650.867 1251.25 650.12 1250.04C649.373 1248.83 649 1247.08 649 1244.8C649 1242.52 649.373 1240.78 650.12 1239.57C650.867 1238.36 651.946 1237.76 653.36 1237.76ZM650.42 1244.8C650.42 1246.42 650.567 1247.69 650.86 1248.61L655.3 1239.77C654.833 1239.15 654.186 1238.83 653.36 1238.83C652.44 1238.83 651.72 1239.33 651.2 1240.31C650.68 1241.28 650.42 1242.78 650.42 1244.8ZM653.36 1250.76C654.293 1250.76 655.02 1250.27 655.54 1249.3C656.06 1248.32 656.319 1246.82 656.319 1244.8C656.319 1243.08 656.153 1241.75 655.82 1240.81L651.38 1249.72C651.86 1250.41 652.52 1250.76 653.36 1250.76Z" fill="url(#paint29_linear_175_190)"/>
<path d="M654.56 1273.39H657.499V1274.45H649.88V1273.39H653.28V1262.19L650.04 1264.12L649.48 1263.22L653.48 1260.75H654.56V1273.39Z" fill="url(#paint30_linear_175_190)"/>
<path d="M654.56 1296.19H657.499V1297.24H649.88V1296.19H653.28V1284.98L650.04 1286.91L649.48 1286.01L653.48 1283.54H654.56V1296.19Z" fill="url(#paint31_linear_175_190)"/>
<path d="M691.7 1136.64H694.64V1137.69H687.02V1136.64H690.42V1125.43L687.18 1127.36L686.62 1126.47L690.62 1123.99H691.7V1136.64Z" fill="url(#paint32_linear_175_190)"/>
<path d="M690.5 1146.59C691.927 1146.59 693.006 1147.19 693.74 1148.4C694.486 1149.6 694.86 1151.34 694.86 1153.63C694.86 1155.91 694.486 1157.66 693.74 1158.87C693.006 1160.08 691.927 1160.69 690.5 1160.69C689.087 1160.69 688.007 1160.08 687.26 1158.87C686.514 1157.66 686.14 1155.91 686.14 1153.63C686.14 1151.35 686.514 1149.61 687.26 1148.4C688.007 1147.19 689.087 1146.59 690.5 1146.59ZM687.56 1153.63C687.56 1155.25 687.707 1156.52 688 1157.43L692.44 1148.6C691.973 1147.98 691.327 1147.66 690.5 1147.66C689.58 1147.66 688.86 1148.15 688.34 1149.14C687.82 1150.11 687.56 1151.6 687.56 1153.63ZM690.5 1159.59C691.433 1159.59 692.16 1159.1 692.68 1158.13C693.2 1157.15 693.46 1155.65 693.46 1153.63C693.46 1151.91 693.293 1150.58 692.96 1149.64L688.52 1158.55C689 1159.24 689.66 1159.59 690.5 1159.59Z" fill="url(#paint33_linear_175_190)"/>
<path d="M691.7 1182.22H694.64V1183.28H687.02V1182.22H690.42V1171.01L687.18 1172.95L686.62 1172.05L690.62 1169.58H691.7V1182.22Z" fill="url(#paint34_linear_175_190)"/>
<path d="M691.7 1205.01H694.64V1206.07H687.02V1205.01H690.42V1193.81L687.18 1195.74L686.62 1194.84L690.62 1192.37H691.7V1205.01Z" fill="url(#paint35_linear_175_190)"/>
<path d="M690.5 1214.96C691.927 1214.96 693.006 1215.57 693.74 1216.78C694.486 1217.98 694.86 1219.72 694.86 1222C694.86 1224.29 694.486 1226.04 693.74 1227.25C693.006 1228.46 691.927 1229.06 690.5 1229.06C689.087 1229.06 688.007 1228.46 687.26 1227.25C686.514 1226.04 686.14 1224.29 686.14 1222C686.14 1219.73 686.514 1217.99 687.26 1216.78C688.007 1215.57 689.087 1214.96 690.5 1214.96ZM687.56 1222C687.56 1223.63 687.707 1224.9 688 1225.81L692.44 1216.98C691.973 1216.35 691.327 1216.04 690.5 1216.04C689.58 1216.04 688.86 1216.53 688.34 1217.52C687.82 1218.49 687.56 1219.98 687.56 1222ZM690.5 1227.97C691.433 1227.97 692.16 1227.48 692.68 1226.51C693.2 1225.53 693.46 1224.03 693.46 1222C693.46 1220.29 693.293 1218.96 692.96 1218.02L688.52 1226.93C689 1227.62 689.66 1227.97 690.5 1227.97Z" fill="url(#paint36_linear_175_190)"/>
<path d="M691.7 1250.6H694.64V1251.66H687.02V1250.6H690.42V1239.39L687.18 1241.33L686.62 1240.43L690.62 1237.96H691.7V1250.6Z" fill="url(#paint37_linear_175_190)"/>
<path d="M691.7 1273.39H694.64V1274.45H687.02V1273.39H690.42V1262.19L687.18 1264.12L686.62 1263.22L690.62 1260.75H691.7V1273.39Z" fill="url(#paint38_linear_175_190)"/>
<path d="M690.5 1283.34C691.927 1283.34 693.006 1283.95 693.74 1285.16C694.486 1286.35 694.86 1288.1 694.86 1290.38C694.86 1292.67 694.486 1294.42 693.74 1295.63C693.006 1296.84 691.927 1297.44 690.5 1297.44C689.087 1297.44 688.007 1296.84 687.26 1295.63C686.514 1294.42 686.14 1292.67 686.14 1290.38C686.14 1288.11 686.514 1286.37 687.26 1285.16C688.007 1283.95 689.087 1283.34 690.5 1283.34ZM687.56 1290.38C687.56 1292 687.707 1293.27 688 1294.19L692.44 1285.36C691.973 1284.73 691.327 1284.42 690.5 1284.42C689.58 1284.42 688.86 1284.91 688.34 1285.9C687.82 1286.87 687.56 1288.36 687.56 1290.38ZM690.5 1296.35C691.433 1296.35 692.16 1295.86 692.68 1294.89C693.2 1293.91 693.46 1292.4 693.46 1290.38C693.46 1288.67 693.293 1287.34 692.96 1286.39L688.52 1295.31C689 1296 689.66 1296.35 690.5 1296.35Z" fill="url(#paint39_linear_175_190)"/>
<path d="M691.7 1318.98H694.64V1320.04H687.02V1318.98H690.42V1307.77L687.18 1309.71L686.62 1308.81L690.62 1306.33H691.7V1318.98Z" fill="url(#paint40_linear_175_190)"/>
<path d="M690.5 1328.93C691.927 1328.93 693.006 1329.53 693.74 1330.74C694.486 1331.94 694.86 1333.68 694.86 1335.97C694.86 1338.26 694.486 1340 693.74 1341.21C693.006 1342.42 691.927 1343.03 690.5 1343.03C689.087 1343.03 688.007 1342.42 687.26 1341.21C686.514 1340 686.14 1338.26 686.14 1335.97C686.14 1333.69 686.514 1331.95 687.26 1330.74C688.007 1329.53 689.087 1328.93 690.5 1328.93ZM687.56 1335.97C687.56 1337.59 687.707 1338.86 688 1339.78L692.44 1330.94C691.973 1330.32 691.327 1330 690.5 1330C689.58 1330 688.86 1330.5 688.34 1331.48C687.82 1332.45 687.56 1333.95 687.56 1335.97ZM690.5 1341.93C691.433 1341.93 692.16 1341.45 692.68 1340.48C693.2 1339.49 693.46 1337.99 693.46 1335.97C693.46 1334.25 693.293 1332.92 692.96 1331.98L688.52 1340.89C689 1341.59 689.66 1341.93 690.5 1341.93Z" fill="url(#paint41_linear_175_190)"/>
<path d="M727.64 1123.79C729.067 1123.79 730.147 1124.4 730.88 1125.61C731.627 1126.8 732 1128.55 732 1130.83C732 1133.12 731.627 1134.87 730.88 1136.08C730.147 1137.29 729.067 1137.89 727.64 1137.89C726.227 1137.89 725.147 1137.29 724.401 1136.08C723.654 1134.87 723.281 1133.12 723.281 1130.83C723.281 1128.56 723.654 1126.82 724.401 1125.61C725.147 1124.4 726.227 1123.79 727.64 1123.79ZM724.701 1130.83C724.701 1132.46 724.847 1133.72 725.14 1134.64L729.58 1125.81C729.114 1125.18 728.467 1124.87 727.64 1124.87C726.72 1124.87 726 1125.36 725.48 1126.35C724.96 1127.32 724.701 1128.81 724.701 1130.83ZM727.64 1136.8C728.574 1136.8 729.3 1136.31 729.82 1135.34C730.34 1134.36 730.6 1132.85 730.6 1130.83C730.6 1129.12 730.433 1127.79 730.1 1126.84L725.66 1135.76C726.14 1136.45 726.8 1136.8 727.64 1136.8Z" fill="url(#paint42_linear_175_190)"/>
<path d="M728.84 1159.43H731.78V1160.49H724.161V1159.43H727.56V1148.22L724.321 1150.16L723.761 1149.26L727.76 1146.79H728.84V1159.43Z" fill="url(#paint43_linear_175_190)"/>
<path d="M728.84 1182.22H731.78V1183.28H724.161V1182.22H727.56V1171.01L724.321 1172.95L723.761 1172.05L727.76 1169.58H728.84V1182.22Z" fill="url(#paint44_linear_175_190)"/>
<path d="M727.64 1192.17C729.067 1192.17 730.147 1192.78 730.88 1193.99C731.627 1195.18 732 1196.92 732 1199.21C732 1201.5 731.627 1203.25 730.88 1204.46C730.147 1205.67 729.067 1206.27 727.64 1206.27C726.227 1206.27 725.147 1205.67 724.401 1204.46C723.654 1203.25 723.281 1201.5 723.281 1199.21C723.281 1196.94 723.654 1195.2 724.401 1193.99C725.147 1192.78 726.227 1192.17 727.64 1192.17ZM724.701 1199.21C724.701 1200.83 724.847 1202.1 725.14 1203.02L729.58 1194.19C729.114 1193.56 728.467 1193.25 727.64 1193.25C726.72 1193.25 726 1193.74 725.48 1194.72C724.96 1195.69 724.701 1197.19 724.701 1199.21ZM727.64 1205.17C728.574 1205.17 729.3 1204.69 729.82 1203.72C730.34 1202.73 730.6 1201.23 730.6 1199.21C730.6 1197.5 730.433 1196.17 730.1 1195.22L725.66 1204.14C726.14 1204.83 726.8 1205.17 727.64 1205.17Z" fill="url(#paint45_linear_175_190)"/>
<path d="M727.64 1214.96C729.067 1214.96 730.147 1215.57 730.88 1216.78C731.627 1217.98 732 1219.72 732 1222C732 1224.29 731.627 1226.04 730.88 1227.25C730.147 1228.46 729.067 1229.06 727.64 1229.06C726.227 1229.06 725.147 1228.46 724.401 1227.25C723.654 1226.04 723.281 1224.29 723.281 1222C723.281 1219.73 723.654 1217.99 724.401 1216.78C725.147 1215.57 726.227 1214.96 727.64 1214.96ZM724.701 1222C724.701 1223.63 724.847 1224.9 725.14 1225.81L729.58 1216.98C729.114 1216.35 728.467 1216.04 727.64 1216.04C726.72 1216.04 726 1216.53 725.48 1217.52C724.96 1218.49 724.701 1219.98 724.701 1222ZM727.64 1227.97C728.574 1227.97 729.3 1227.48 729.82 1226.51C730.34 1225.53 730.6 1224.03 730.6 1222C730.6 1220.29 730.433 1218.96 730.1 1218.02L725.66 1226.93C726.14 1227.62 726.8 1227.97 727.64 1227.97Z" fill="url(#paint46_linear_175_190)"/>
</g>
<path d="M671.035 1434C672.53 1434 673.662 1434.63 674.431 1435.89C675.213 1437.14 675.605 1438.95 675.605 1441.34C675.605 1443.72 675.213 1445.54 674.431 1446.8C673.662 1448.06 672.53 1448.69 671.035 1448.69C669.554 1448.69 668.422 1448.06 667.639 1446.8C666.856 1445.54 666.465 1443.72 666.465 1441.34C666.465 1438.97 666.856 1437.15 667.639 1435.89C668.422 1434.63 669.554 1434 671.035 1434ZM667.953 1441.34C667.953 1443.03 668.107 1444.35 668.415 1445.31L673.068 1436.1C672.579 1435.45 671.901 1435.12 671.035 1435.12C670.071 1435.12 669.316 1435.63 668.771 1436.66C668.226 1437.67 667.953 1439.23 667.953 1441.34ZM671.035 1447.55C672.013 1447.55 672.775 1447.04 673.32 1446.03C673.865 1445.01 674.137 1443.44 674.137 1441.34C674.137 1439.55 673.963 1438.16 673.613 1437.18L668.96 1446.47C669.463 1447.19 670.154 1447.55 671.035 1447.55Z" fill="url(#paint47_linear_175_190)" fill-opacity="0.6"/>
<path d="M672.293 1471.13H675.374V1472.24H667.387V1471.13H670.951V1459.46L667.555 1461.47L666.968 1460.54L671.161 1457.96H672.293V1471.13Z" fill="url(#paint48_linear_175_190)" fill-opacity="0.6"/>
<path d="M671.035 1481.5C672.53 1481.5 673.662 1482.13 674.431 1483.39C675.213 1484.64 675.605 1486.46 675.605 1488.84C675.605 1491.22 675.213 1493.04 674.431 1494.3C673.662 1495.56 672.53 1496.2 671.035 1496.2C669.554 1496.2 668.422 1495.56 667.639 1494.3C666.856 1493.04 666.465 1491.22 666.465 1488.84C666.465 1486.47 666.856 1484.65 667.639 1483.39C668.422 1482.13 669.554 1481.5 671.035 1481.5ZM667.953 1488.84C667.953 1490.53 668.107 1491.85 668.415 1492.81L673.068 1483.6C672.579 1482.95 671.901 1482.62 671.035 1482.62C670.071 1482.62 669.316 1483.14 668.771 1484.16C668.226 1485.17 667.953 1486.73 667.953 1488.84ZM671.035 1495.05C672.013 1495.05 672.775 1494.55 673.32 1493.53C673.865 1492.51 674.137 1490.94 674.137 1488.84C674.137 1487.05 673.963 1485.67 673.613 1484.68L668.96 1493.97C669.463 1494.69 670.154 1495.05 671.035 1495.05Z" fill="url(#paint49_linear_175_190)" fill-opacity="0.6"/>
<path d="M672.293 1518.64H675.374V1519.74H667.387V1518.64H670.951V1506.96L667.555 1508.97L666.968 1508.04L671.161 1505.46H672.293V1518.64Z" fill="url(#paint50_linear_175_190)" fill-opacity="0.6"/>
<path d="M672.293 1542.39H675.374V1543.49H667.387V1542.39H670.951V1530.71L667.555 1532.72L666.968 1531.79L671.161 1529.21H672.293V1542.39Z" fill="url(#paint51_linear_175_190)" fill-opacity="0.6"/>
<path d="M671.035 1552.76C672.53 1552.76 673.662 1553.39 674.431 1554.65C675.213 1555.89 675.605 1557.71 675.605 1560.09C675.605 1562.47 675.213 1564.3 674.431 1565.56C673.662 1566.82 672.53 1567.45 671.035 1567.45C669.554 1567.45 668.422 1566.82 667.639 1565.56C666.856 1564.3 666.465 1562.47 666.465 1560.09C666.465 1557.72 666.856 1555.91 667.639 1554.65C668.422 1553.39 669.554 1552.76 671.035 1552.76ZM667.953 1560.09C667.953 1561.78 668.107 1563.1 668.415 1564.06L673.068 1554.85C672.579 1554.2 671.901 1553.88 671.035 1553.88C670.071 1553.88 669.316 1554.39 668.771 1555.42C668.226 1556.43 667.953 1557.99 667.953 1560.09ZM671.035 1566.31C672.013 1566.31 672.775 1565.8 673.32 1564.79C673.865 1563.76 674.137 1562.2 674.137 1560.09C674.137 1558.3 673.963 1556.92 673.613 1555.93L668.96 1565.22C669.463 1565.95 670.154 1566.31 671.035 1566.31Z" fill="url(#paint52_linear_175_190)" fill-opacity="0.6"/>
<path d="M672.293 1589.89H675.374V1590.99H667.387V1589.89H670.951V1578.21L667.555 1580.23L666.968 1579.29L671.161 1576.71H672.293V1589.89Z" fill="url(#paint53_linear_175_190)" fill-opacity="0.6"/>
<path d="M671.035 1600.26C672.53 1600.26 673.662 1600.89 674.431 1602.15C675.213 1603.4 675.605 1605.21 675.605 1607.59C675.605 1609.98 675.213 1611.8 674.431 1613.06C673.662 1614.32 672.53 1614.95 671.035 1614.95C669.554 1614.95 668.422 1614.32 667.639 1613.06C666.856 1611.8 666.465 1609.98 666.465 1607.59C666.465 1605.22 666.856 1603.41 667.639 1602.15C668.422 1600.89 669.554 1600.26 671.035 1600.26ZM667.953 1607.59C667.953 1609.28 668.107 1610.61 668.415 1611.56L673.068 1602.36C672.579 1601.71 671.901 1601.38 671.035 1601.38C670.071 1601.38 669.316 1601.89 668.771 1602.92C668.226 1603.93 667.953 1605.49 667.953 1607.59ZM671.035 1613.81C672.013 1613.81 672.775 1613.3 673.32 1612.29C673.865 1611.27 674.137 1609.7 674.137 1607.59C674.137 1605.81 673.963 1604.42 673.613 1603.44L668.96 1612.73C669.463 1613.45 670.154 1613.81 671.035 1613.81Z" fill="url(#paint54_linear_175_190)" fill-opacity="0.6"/>
<path d="M671.035 1624.01C672.53 1624.01 673.662 1624.64 674.431 1625.9C675.213 1627.15 675.605 1628.96 675.605 1631.34C675.605 1633.73 675.213 1635.55 674.431 1636.81C673.662 1638.07 672.53 1638.7 671.035 1638.7C669.554 1638.7 668.422 1638.07 667.639 1636.81C666.856 1635.55 666.465 1633.73 666.465 1631.34C666.465 1628.98 666.856 1627.16 667.639 1625.9C668.422 1624.64 669.554 1624.01 671.035 1624.01ZM667.953 1631.34C667.953 1633.03 668.107 1634.36 668.415 1635.31L673.068 1626.11C672.579 1625.46 671.901 1625.13 671.035 1625.13C670.071 1625.13 669.316 1625.64 668.771 1626.67C668.226 1627.68 667.953 1629.24 667.953 1631.34ZM671.035 1637.56C672.013 1637.56 672.775 1637.05 673.32 1636.04C673.865 1635.02 674.137 1633.45 674.137 1631.34C674.137 1629.56 673.963 1628.17 673.613 1627.19L668.96 1636.48C669.463 1637.2 670.154 1637.56 671.035 1637.56Z" fill="url(#paint55_linear_175_190)" fill-opacity="0.6"/>
<path d="M672.293 1661.14H675.374V1662.24H667.387V1661.14H670.951V1649.46L667.555 1651.48L666.968 1650.54L671.161 1647.97H672.293V1661.14Z" fill="url(#paint56_linear_175_190)" fill-opacity="0.6"/>
<path d="M671.035 1671.51C672.53 1671.51 673.662 1672.14 674.431 1673.4C675.213 1674.65 675.605 1676.46 675.605 1678.85C675.605 1681.23 675.213 1683.05 674.431 1684.31C673.662 1685.57 672.53 1686.2 671.035 1686.2C669.554 1686.2 668.422 1685.57 667.639 1684.31C666.856 1683.05 666.465 1681.23 666.465 1678.85C666.465 1676.48 666.856 1674.66 667.639 1673.4C668.422 1672.14 669.554 1671.51 671.035 1671.51ZM667.953 1678.85C667.953 1680.54 668.107 1681.86 668.415 1682.82L673.068 1673.61C672.579 1672.96 671.901 1672.63 671.035 1672.63C670.071 1672.63 669.316 1673.15 668.771 1674.17C668.226 1675.18 667.953 1676.74 667.953 1678.85ZM671.035 1685.06C672.013 1685.06 672.775 1684.55 673.32 1683.54C673.865 1682.52 674.137 1680.95 674.137 1678.85C674.137 1677.06 673.963 1675.67 673.613 1674.69L668.96 1683.98C669.463 1684.7 670.154 1685.06 671.035 1685.06Z" fill="url(#paint57_linear_175_190)" fill-opacity="0.6"/>
<path d="M672.293 1708.65H675.374V1709.75H667.387V1708.65H670.951V1696.97L667.555 1698.98L666.968 1698.05L671.161 1695.47H672.293V1708.65Z" fill="url(#paint58_linear_175_190)" fill-opacity="0.6"/>
<path d="M672.293 1732.4H675.374V1733.5H667.387V1732.4H670.951V1720.72L667.555 1722.73L666.968 1721.8L671.161 1719.22H672.293V1732.4Z" fill="url(#paint59_linear_175_190)" fill-opacity="0.6"/>
<path d="M709.965 1481.5C711.46 1481.5 712.592 1482.13 713.361 1483.39C714.144 1484.64 714.535 1486.46 714.535 1488.84C714.535 1491.22 714.144 1493.04 713.361 1494.3C712.592 1495.56 711.46 1496.2 709.965 1496.2C708.484 1496.2 707.352 1495.56 706.569 1494.3C705.787 1493.04 705.395 1491.22 705.395 1488.84C705.395 1486.47 705.787 1484.65 706.569 1483.39C707.352 1482.13 708.484 1481.5 709.965 1481.5ZM706.884 1488.84C706.884 1490.53 707.037 1491.85 707.345 1492.81L711.998 1483.6C711.509 1482.95 710.832 1482.62 709.965 1482.62C709.001 1482.62 708.246 1483.14 707.701 1484.16C707.156 1485.17 706.884 1486.73 706.884 1488.84ZM709.965 1495.05C710.943 1495.05 711.705 1494.55 712.25 1493.53C712.795 1492.51 713.068 1490.94 713.068 1488.84C713.068 1487.05 712.893 1485.67 712.543 1484.68L707.89 1493.97C708.393 1494.69 709.085 1495.05 709.965 1495.05Z" fill="url(#paint60_linear_175_190)" fill-opacity="0.6"/>
<path d="M711.223 1518.64H714.304V1519.74H706.318V1518.64H709.881V1506.96L706.485 1508.97L705.898 1508.04L710.091 1505.46H711.223V1518.64Z" fill="url(#paint61_linear_175_190)" fill-opacity="0.6"/>
<path d="M709.965 1529C711.46 1529 712.592 1529.63 713.361 1530.9C714.144 1532.14 714.535 1533.96 714.535 1536.34C714.535 1538.72 714.144 1540.55 713.361 1541.81C712.592 1543.07 711.46 1543.7 709.965 1543.7C708.484 1543.7 707.352 1543.07 706.569 1541.81C705.787 1540.55 705.395 1538.72 705.395 1536.34C705.395 1533.97 705.787 1532.16 706.569 1530.9C707.352 1529.63 708.484 1529 709.965 1529ZM706.884 1536.34C706.884 1538.03 707.037 1539.35 707.345 1540.31L711.998 1531.1C711.509 1530.45 710.832 1530.13 709.965 1530.13C709.001 1530.13 708.246 1530.64 707.701 1531.66C707.156 1532.68 706.884 1534.23 706.884 1536.34ZM709.965 1542.55C710.943 1542.55 711.705 1542.05 712.25 1541.04C712.795 1540.01 713.068 1538.45 713.068 1536.34C713.068 1534.55 712.893 1533.17 712.543 1532.18L707.89 1541.47C708.393 1542.19 709.085 1542.55 709.965 1542.55Z" fill="url(#paint62_linear_175_190)" fill-opacity="0.6"/>
<path d="M709.965 1552.76C711.46 1552.76 712.592 1553.39 713.361 1554.65C714.144 1555.89 714.535 1557.71 714.535 1560.09C714.535 1562.47 714.144 1564.3 713.361 1565.56C712.592 1566.82 711.46 1567.45 709.965 1567.45C708.484 1567.45 707.352 1566.82 706.569 1565.56C705.787 1564.3 705.395 1562.47 705.395 1560.09C705.395 1557.72 705.787 1555.91 706.569 1554.65C707.352 1553.39 708.484 1552.76 709.965 1552.76ZM706.884 1560.09C706.884 1561.78 707.037 1563.1 707.345 1564.06L711.998 1554.85C711.509 1554.2 710.832 1553.88 709.965 1553.88C709.001 1553.88 708.246 1554.39 707.701 1555.42C707.156 1556.43 706.884 1557.99 706.884 1560.09ZM709.965 1566.31C710.943 1566.31 711.705 1565.8 712.25 1564.79C712.795 1563.76 713.068 1562.2 713.068 1560.09C713.068 1558.3 712.893 1556.92 712.543 1555.93L707.89 1565.22C708.393 1565.95 709.085 1566.31 709.965 1566.31Z" fill="url(#paint63_linear_175_190)" fill-opacity="0.6"/>
<path d="M711.223 1589.89H714.304V1590.99H706.318V1589.89H709.881V1578.21L706.485 1580.23L705.898 1579.29L710.091 1576.71H711.223V1589.89Z" fill="url(#paint64_linear_175_190)" fill-opacity="0.6"/>
<path d="M709.965 1600.26C711.46 1600.26 712.592 1600.89 713.361 1602.15C714.144 1603.4 714.535 1605.21 714.535 1607.59C714.535 1609.98 714.144 1611.8 713.361 1613.06C712.592 1614.32 711.46 1614.95 709.965 1614.95C708.484 1614.95 707.352 1614.32 706.569 1613.06C705.787 1611.8 705.395 1609.98 705.395 1607.59C705.395 1605.22 705.787 1603.41 706.569 1602.15C707.352 1600.89 708.484 1600.26 709.965 1600.26ZM706.884 1607.59C706.884 1609.28 707.037 1610.61 707.345 1611.56L711.998 1602.36C711.509 1601.71 710.832 1601.38 709.965 1601.38C709.001 1601.38 708.246 1601.89 707.701 1602.92C707.156 1603.93 706.884 1605.49 706.884 1607.59ZM709.965 1613.81C710.943 1613.81 711.705 1613.3 712.25 1612.29C712.795 1611.27 713.068 1609.7 713.068 1607.59C713.068 1605.81 712.893 1604.42 712.543 1603.44L707.89 1612.73C708.393 1613.45 709.085 1613.81 709.965 1613.81Z" fill="url(#paint65_linear_175_190)" fill-opacity="0.6"/>
<path d="M711.223 1637.39H714.304V1638.49H706.318V1637.39H709.881V1625.71L706.485 1627.73L705.898 1626.79L710.091 1624.22H711.223V1637.39Z" fill="url(#paint66_linear_175_190)" fill-opacity="0.6"/>
<path d="M709.965 1647.76C711.46 1647.76 712.592 1648.39 713.361 1649.65C714.144 1650.9 714.535 1652.71 714.535 1655.1C714.535 1657.48 714.144 1659.3 713.361 1660.56C712.592 1661.82 711.46 1662.45 709.965 1662.45C708.484 1662.45 707.352 1661.82 706.569 1660.56C705.787 1659.3 705.395 1657.48 705.395 1655.1C705.395 1652.73 705.787 1650.91 706.569 1649.65C707.352 1648.39 708.484 1647.76 709.965 1647.76ZM706.884 1655.1C706.884 1656.79 707.037 1658.11 707.345 1659.07L711.998 1649.86C711.509 1649.21 710.832 1648.88 709.965 1648.88C709.001 1648.88 708.246 1649.39 707.701 1650.42C707.156 1651.43 706.884 1652.99 706.884 1655.1ZM709.965 1661.31C710.943 1661.31 711.705 1660.8 712.25 1659.79C712.795 1658.77 713.068 1657.2 713.068 1655.1C713.068 1653.31 712.893 1651.92 712.543 1650.94L707.89 1660.23C708.393 1660.95 709.085 1661.31 709.965 1661.31Z" fill="url(#paint67_linear_175_190)" fill-opacity="0.6"/>
<path d="M709.965 1671.51C711.46 1671.51 712.592 1672.14 713.361 1673.4C714.144 1674.65 714.535 1676.46 714.535 1678.85C714.535 1681.23 714.144 1683.05 713.361 1684.31C712.592 1685.57 711.46 1686.2 709.965 1686.2C708.484 1686.2 707.352 1685.57 706.569 1684.31C705.787 1683.05 705.395 1681.23 705.395 1678.85C705.395 1676.48 705.787 1674.66 706.569 1673.4C707.352 1672.14 708.484 1671.51 709.965 1671.51ZM706.884 1678.85C706.884 1680.54 707.037 1681.86 707.345 1682.82L711.998 1673.61C711.509 1672.96 710.832 1672.63 709.965 1672.63C709.001 1672.63 708.246 1673.15 707.701 1674.17C707.156 1675.18 706.884 1676.74 706.884 1678.85ZM709.965 1685.06C710.943 1685.06 711.705 1684.55 712.25 1683.54C712.795 1682.52 713.068 1680.95 713.068 1678.85C713.068 1677.06 712.893 1675.67 712.543 1674.69L707.89 1683.98C708.393 1684.7 709.085 1685.06 709.965 1685.06Z" fill="url(#paint68_linear_175_190)" fill-opacity="0.6"/>
<path d="M711.223 1708.65H714.304V1709.75H706.318V1708.65H709.881V1696.97L706.485 1698.98L705.898 1698.05L710.091 1695.47H711.223V1708.65Z" fill="url(#paint69_linear_175_190)" fill-opacity="0.6"/>
<path d="M709.965 1719.01C711.46 1719.01 712.592 1719.64 713.361 1720.9C714.144 1722.15 714.535 1723.97 714.535 1726.35C714.535 1728.73 714.144 1730.55 713.361 1731.81C712.592 1733.08 711.46 1733.71 709.965 1733.71C708.484 1733.71 707.352 1733.08 706.569 1731.81C705.787 1730.55 705.395 1728.73 705.395 1726.35C705.395 1723.98 705.787 1722.16 706.569 1720.9C707.352 1719.64 708.484 1719.01 709.965 1719.01ZM706.884 1726.35C706.884 1728.04 707.037 1729.36 707.345 1730.32L711.998 1721.11C711.509 1720.46 710.832 1720.13 709.965 1720.13C709.001 1720.13 708.246 1720.65 707.701 1721.67C707.156 1722.68 706.884 1724.24 706.884 1726.35ZM709.965 1732.56C710.943 1732.56 711.705 1732.06 712.25 1731.05C712.795 1730.02 713.068 1728.45 713.068 1726.35C713.068 1724.56 712.893 1723.18 712.543 1722.19L707.89 1731.48C708.393 1732.2 709.085 1732.56 709.965 1732.56Z" fill="url(#paint70_linear_175_190)" fill-opacity="0.6"/>
<path d="M711.223 1756.15H714.304V1757.25H706.318V1756.15H709.881V1744.47L706.485 1746.48L705.898 1745.55L710.091 1742.97H711.223V1756.15Z" fill="url(#paint71_linear_175_190)" fill-opacity="0.6"/>
<path d="M711.223 1779.9H714.304V1781H706.318V1779.9H709.881V1768.22L706.485 1770.23L705.898 1769.3L710.091 1766.72H711.223V1779.9Z" fill="url(#paint72_linear_175_190)" fill-opacity="0.6"/>
<path d="M651.57 1505.25C653.065 1505.25 654.197 1505.88 654.966 1507.14C655.748 1508.39 656.14 1510.21 656.14 1512.59C656.14 1514.97 655.748 1516.79 654.966 1518.05C654.197 1519.32 653.065 1519.95 651.57 1519.95C650.088 1519.95 648.956 1519.32 648.174 1518.05C647.391 1516.79 647 1514.97 647 1512.59C647 1510.22 647.391 1508.41 648.174 1507.14C648.956 1505.88 650.088 1505.25 651.57 1505.25ZM648.488 1512.59C648.488 1514.28 648.642 1515.6 648.95 1516.56L653.603 1507.35C653.114 1506.7 652.436 1506.38 651.57 1506.38C650.606 1506.38 649.851 1506.89 649.306 1507.91C648.761 1508.92 648.488 1510.48 648.488 1512.59ZM651.57 1518.8C652.548 1518.8 653.31 1518.3 653.855 1517.29C654.4 1516.26 654.672 1514.7 654.672 1512.59C654.672 1510.8 654.498 1509.42 654.148 1508.43L649.495 1517.72C649.998 1518.44 650.689 1518.8 651.57 1518.8Z" fill="url(#paint73_linear_175_190)" fill-opacity="0.6"/>
<path d="M651.57 1529C653.065 1529 654.197 1529.63 654.966 1530.9C655.748 1532.14 656.14 1533.96 656.14 1536.34C656.14 1538.72 655.748 1540.55 654.966 1541.81C654.197 1543.07 653.065 1543.7 651.57 1543.7C650.088 1543.7 648.956 1543.07 648.174 1541.81C647.391 1540.55 647 1538.72 647 1536.34C647 1533.97 647.391 1532.16 648.174 1530.9C648.956 1529.63 650.088 1529 651.57 1529ZM648.488 1536.34C648.488 1538.03 648.642 1539.35 648.95 1540.31L653.603 1531.1C653.114 1530.45 652.436 1530.13 651.57 1530.13C650.606 1530.13 649.851 1530.64 649.306 1531.66C648.761 1532.68 648.488 1534.23 648.488 1536.34ZM651.57 1542.55C652.548 1542.55 653.31 1542.05 653.855 1541.04C654.4 1540.01 654.672 1538.45 654.672 1536.34C654.672 1534.55 654.498 1533.17 654.148 1532.18L649.495 1541.47C649.998 1542.19 650.689 1542.55 651.57 1542.55Z" fill="url(#paint74_linear_175_190)" fill-opacity="0.6"/>
<path d="M652.828 1566.14H655.909V1567.24H647.922V1566.14H651.486V1554.46L648.09 1556.48L647.503 1555.54L651.696 1552.96H652.828V1566.14Z" fill="url(#paint75_linear_175_190)" fill-opacity="0.6"/>
<path d="M651.57 1576.51C653.065 1576.51 654.197 1577.14 654.966 1578.4C655.748 1579.64 656.14 1581.46 656.14 1583.84C656.14 1586.23 655.748 1588.05 654.966 1589.31C654.197 1590.57 653.065 1591.2 651.57 1591.2C650.088 1591.2 648.956 1590.57 648.174 1589.31C647.391 1588.05 647 1586.23 647 1583.84C647 1581.47 647.391 1579.66 648.174 1578.4C648.956 1577.14 650.088 1576.51 651.57 1576.51ZM648.488 1583.84C648.488 1585.53 648.642 1586.86 648.95 1587.81L653.603 1578.61C653.114 1577.95 652.436 1577.63 651.57 1577.63C650.606 1577.63 649.851 1578.14 649.306 1579.17C648.761 1580.18 648.488 1581.74 648.488 1583.84ZM651.57 1590.06C652.548 1590.06 653.31 1589.55 653.855 1588.54C654.4 1587.51 654.672 1585.95 654.672 1583.84C654.672 1582.06 654.498 1580.67 654.148 1579.69L649.495 1588.98C649.998 1589.7 650.689 1590.06 651.57 1590.06Z" fill="url(#paint76_linear_175_190)" fill-opacity="0.6"/>
<path d="M652.828 1613.64H655.909V1614.74H647.922V1613.64H651.486V1601.96L648.09 1603.98L647.503 1603.04L651.696 1600.47H652.828V1613.64Z" fill="url(#paint77_linear_175_190)" fill-opacity="0.6"/>
<path d="M652.828 1637.39H655.909V1638.49H647.922V1637.39H651.486V1625.71L648.09 1627.73L647.503 1626.79L651.696 1624.22H652.828V1637.39Z" fill="url(#paint78_linear_175_190)" fill-opacity="0.6"/>
<path d="M691.758 1471.13H694.839V1472.24H686.853V1471.13H690.416V1459.46L687.02 1461.47L686.433 1460.54L690.626 1457.96H691.758V1471.13Z" fill="url(#paint79_linear_175_190)" fill-opacity="0.6"/>
<path d="M690.5 1481.5C691.995 1481.5 693.127 1482.13 693.896 1483.39C694.679 1484.64 695.07 1486.46 695.07 1488.84C695.07 1491.22 694.679 1493.04 693.896 1494.3C693.127 1495.56 691.995 1496.2 690.5 1496.2C689.019 1496.2 687.887 1495.56 687.104 1494.3C686.321 1493.04 685.93 1491.22 685.93 1488.84C685.93 1486.47 686.321 1484.65 687.104 1483.39C687.887 1482.13 689.019 1481.5 690.5 1481.5ZM687.419 1488.84C687.419 1490.53 687.572 1491.85 687.88 1492.81L692.533 1483.6C692.044 1482.95 691.366 1482.62 690.5 1482.62C689.536 1482.62 688.781 1483.14 688.236 1484.16C687.691 1485.17 687.419 1486.73 687.419 1488.84ZM690.5 1495.05C691.478 1495.05 692.24 1494.55 692.785 1493.53C693.33 1492.51 693.602 1490.94 693.602 1488.84C693.602 1487.05 693.428 1485.67 693.078 1484.68L688.425 1493.97C688.928 1494.69 689.62 1495.05 690.5 1495.05Z" fill="url(#paint80_linear_175_190)" fill-opacity="0.6"/>
<path d="M691.758 1518.64H694.839V1519.74H686.853V1518.64H690.416V1506.96L687.02 1508.97L686.433 1508.04L690.626 1505.46H691.758V1518.64Z" fill="url(#paint81_linear_175_190)" fill-opacity="0.6"/>
<path d="M691.758 1542.39H694.839V1543.49H686.853V1542.39H690.416V1530.71L687.02 1532.72L686.433 1531.79L690.626 1529.21H691.758V1542.39Z" fill="url(#paint82_linear_175_190)" fill-opacity="0.6"/>
<path d="M690.5 1552.76C691.995 1552.76 693.127 1553.39 693.896 1554.65C694.679 1555.89 695.07 1557.71 695.07 1560.09C695.07 1562.47 694.679 1564.3 693.896 1565.56C693.127 1566.82 691.995 1567.45 690.5 1567.45C689.019 1567.45 687.887 1566.82 687.104 1565.56C686.321 1564.3 685.93 1562.47 685.93 1560.09C685.93 1557.72 686.321 1555.91 687.104 1554.65C687.887 1553.39 689.019 1552.76 690.5 1552.76ZM687.419 1560.09C687.419 1561.78 687.572 1563.1 687.88 1564.06L692.533 1554.85C692.044 1554.2 691.366 1553.88 690.5 1553.88C689.536 1553.88 688.781 1554.39 688.236 1555.42C687.691 1556.43 687.419 1557.99 687.419 1560.09ZM690.5 1566.31C691.478 1566.31 692.24 1565.8 692.785 1564.79C693.33 1563.76 693.602 1562.2 693.602 1560.09C693.602 1558.3 693.428 1556.92 693.078 1555.93L688.425 1565.22C688.928 1565.95 689.62 1566.31 690.5 1566.31Z" fill="url(#paint83_linear_175_190)" fill-opacity="0.6"/>
<path d="M691.758 1589.89H694.839V1590.99H686.853V1589.89H690.416V1578.21L687.02 1580.23L686.433 1579.29L690.626 1576.71H691.758V1589.89Z" fill="url(#paint84_linear_175_190)" fill-opacity="0.6"/>
<path d="M691.758 1613.64H694.839V1614.74H686.853V1613.64H690.416V1601.96L687.02 1603.98L686.433 1603.04L690.626 1600.47H691.758V1613.64Z" fill="url(#paint85_linear_175_190)" fill-opacity="0.6"/>
<path d="M690.5 1624.01C691.995 1624.01 693.127 1624.64 693.896 1625.9C694.679 1627.15 695.07 1628.96 695.07 1631.34C695.07 1633.73 694.679 1635.55 693.896 1636.81C693.127 1638.07 691.995 1638.7 690.5 1638.7C689.019 1638.7 687.887 1638.07 687.104 1636.81C686.321 1635.55 685.93 1633.73 685.93 1631.34C685.93 1628.98 686.321 1627.16 687.104 1625.9C687.887 1624.64 689.019 1624.01 690.5 1624.01ZM687.419 1631.34C687.419 1633.03 687.572 1634.36 687.88 1635.31L692.533 1626.11C692.044 1625.46 691.366 1625.13 690.5 1625.13C689.536 1625.13 688.781 1625.64 688.236 1626.67C687.691 1627.68 687.419 1629.24 687.419 1631.34ZM690.5 1637.56C691.478 1637.56 692.24 1637.05 692.785 1636.04C693.33 1635.02 693.602 1633.45 693.602 1631.34C693.602 1629.56 693.428 1628.17 693.078 1627.19L688.425 1636.48C688.928 1637.2 689.62 1637.56 690.5 1637.56Z" fill="url(#paint86_linear_175_190)" fill-opacity="0.6"/>
<path d="M691.758 1661.14H694.839V1662.24H686.853V1661.14H690.416V1649.46L687.02 1651.48L686.433 1650.54L690.626 1647.97H691.758V1661.14Z" fill="url(#paint87_linear_175_190)" fill-opacity="0.6"/>
<path d="M690.5 1671.51C691.995 1671.51 693.127 1672.14 693.896 1673.4C694.679 1674.65 695.07 1676.46 695.07 1678.85C695.07 1681.23 694.679 1683.05 693.896 1684.31C693.127 1685.57 691.995 1686.2 690.5 1686.2C689.019 1686.2 687.887 1685.57 687.104 1684.31C686.321 1683.05 685.93 1681.23 685.93 1678.85C685.93 1676.48 686.321 1674.66 687.104 1673.4C687.887 1672.14 689.019 1671.51 690.5 1671.51ZM687.419 1678.85C687.419 1680.54 687.572 1681.86 687.88 1682.82L692.533 1673.61C692.044 1672.96 691.366 1672.63 690.5 1672.63C689.536 1672.63 688.781 1673.15 688.236 1674.17C687.691 1675.18 687.419 1676.74 687.419 1678.85ZM690.5 1685.06C691.478 1685.06 692.24 1684.55 692.785 1683.54C693.33 1682.52 693.602 1680.95 693.602 1678.85C693.602 1677.06 693.428 1675.67 693.078 1674.69L688.425 1683.98C688.928 1684.7 689.62 1685.06 690.5 1685.06Z" fill="url(#paint88_linear_175_190)" fill-opacity="0.6"/>
<path d="M729.43 1457.75C730.926 1457.75 732.057 1458.38 732.826 1459.64C733.609 1460.89 734 1462.7 734 1465.09C734 1467.47 733.609 1469.29 732.826 1470.55C732.057 1471.81 730.926 1472.44 729.43 1472.44C727.949 1472.44 726.817 1471.81 726.034 1470.55C725.252 1469.29 724.86 1467.47 724.86 1465.09C724.86 1462.72 725.252 1460.9 726.034 1459.64C726.817 1458.38 727.949 1457.75 729.43 1457.75ZM726.349 1465.09C726.349 1466.78 726.502 1468.1 726.81 1469.06L731.464 1459.85C730.974 1459.2 730.297 1458.87 729.43 1458.87C728.466 1458.87 727.711 1459.39 727.166 1460.41C726.621 1461.42 726.349 1462.98 726.349 1465.09ZM729.43 1471.3C730.408 1471.3 731.17 1470.8 731.715 1469.78C732.26 1468.76 732.533 1467.19 732.533 1465.09C732.533 1463.3 732.358 1461.91 732.009 1460.93L727.355 1470.22C727.858 1470.94 728.55 1471.3 729.43 1471.3Z" fill="url(#paint89_linear_175_190)" fill-opacity="0.6"/>
<path d="M730.688 1494.89H733.769V1495.99H725.783V1494.89H729.346V1483.21L725.95 1485.22L725.363 1484.29L729.556 1481.71H730.688V1494.89Z" fill="url(#paint90_linear_175_190)" fill-opacity="0.6"/>
<path d="M730.688 1518.64H733.769V1519.74H725.783V1518.64H729.346V1506.96L725.95 1508.97L725.363 1508.04L729.556 1505.46H730.688V1518.64Z" fill="url(#paint91_linear_175_190)" fill-opacity="0.6"/>
<path d="M729.43 1529C730.926 1529 732.057 1529.63 732.826 1530.9C733.609 1532.14 734 1533.96 734 1536.34C734 1538.72 733.609 1540.55 732.826 1541.81C732.057 1543.07 730.926 1543.7 729.43 1543.7C727.949 1543.7 726.817 1543.07 726.034 1541.81C725.252 1540.55 724.86 1538.72 724.86 1536.34C724.86 1533.97 725.252 1532.16 726.034 1530.9C726.817 1529.63 727.949 1529 729.43 1529ZM726.349 1536.34C726.349 1538.03 726.502 1539.35 726.81 1540.31L731.464 1531.1C730.974 1530.45 730.297 1530.13 729.43 1530.13C728.466 1530.13 727.711 1530.64 727.166 1531.66C726.621 1532.68 726.349 1534.23 726.349 1536.34ZM729.43 1542.55C730.408 1542.55 731.17 1542.05 731.715 1541.04C732.26 1540.01 732.533 1538.45 732.533 1536.34C732.533 1534.55 732.358 1533.17 732.009 1532.18L727.355 1541.47C727.858 1542.19 728.55 1542.55 729.43 1542.55Z" fill="url(#paint92_linear_175_190)" fill-opacity="0.6"/>
<path d="M729.43 1552.76C730.926 1552.76 732.057 1553.39 732.826 1554.65C733.609 1555.89 734 1557.71 734 1560.09C734 1562.47 733.609 1564.3 732.826 1565.56C732.057 1566.82 730.926 1567.45 729.43 1567.45C727.949 1567.45 726.817 1566.82 726.034 1565.56C725.252 1564.3 724.86 1562.47 724.86 1560.09C724.86 1557.72 725.252 1555.91 726.034 1554.65C726.817 1553.39 727.949 1552.76 729.43 1552.76ZM726.349 1560.09C726.349 1561.78 726.502 1563.1 726.81 1564.06L731.464 1554.85C730.974 1554.2 730.297 1553.88 729.43 1553.88C728.466 1553.88 727.711 1554.39 727.166 1555.42C726.621 1556.43 726.349 1557.99 726.349 1560.09ZM729.43 1566.31C730.408 1566.31 731.17 1565.8 731.715 1564.79C732.26 1563.76 732.533 1562.2 732.533 1560.09C732.533 1558.3 732.358 1556.92 732.009 1555.93L727.355 1565.22C727.858 1565.95 728.55 1566.31 729.43 1566.31Z" fill="url(#paint93_linear_175_190)" fill-opacity="0.6"/>
<defs>
<filter id="filter0_f_175_190" x="-380.19" y="0.809998" width="2141.38" height="1500.38" filterUnits="userSpaceOnUse" color-interpolation-filters="sRGB">
<feFlood flood-opacity="0" result="BackgroundImageFix"/>
<feBlend mode="normal" in="SourceGraphic" in2="BackgroundImageFix" result="shape"/>
<feGaussianBlur stdDeviation="200.095" result="effect1_foregroundBlur_175_190"/>
</filter>
<linearGradient id="paint0_linear_175_190" x1="690.5" y1="1101" x2="690.5" y2="1399.82" gradientUnits="userSpaceOnUse">
<stop stop-color="#F7DD43"/>
<stop offset="1" stop-color="#F7DD43" stop-opacity="0"/>
</linearGradient>
<linearGradient id="paint1_linear_175_190" x1="690.5" y1="1101" x2="690.5" y2="1399.82" gradientUnits="userSpaceOnUse">
<stop stop-color="#F7DD43"/>
<stop offset="1" stop-color="#F7DD43" stop-opacity="0"/>
</linearGradient>
<linearGradient id="paint2_linear_175_190" x1="690.5" y1="1101" x2="690.5" y2="1399.82" gradientUnits="userSpaceOnUse">
<stop stop-color="#F7DD43"/>
<stop offset="1" stop-color="#F7DD43" stop-opacity="0"/>
</linearGradient>
<linearGradient id="paint3_linear_175_190" x1="690.5" y1="1101" x2="690.5" y2="1399.82" gradientUnits="userSpaceOnUse">
<stop stop-color="#F7DD43"/>
<stop offset="1" stop-color="#F7DD43" stop-opacity="0"/>
</linearGradient>
<linearGradient id="paint4_linear_175_190" x1="690.5" y1="1101" x2="690.5" y2="1399.82" gradientUnits="userSpaceOnUse">
<stop stop-color="#F7DD43"/>
<stop offset="1" stop-color="#F7DD43" stop-opacity="0"/>
</linearGradient>
<linearGradient id="paint5_linear_175_190" x1="690.5" y1="1101" x2="690.5" y2="1399.82" gradientUnits="userSpaceOnUse">
<stop stop-color="#F7DD43"/>
<stop offset="1" stop-color="#F7DD43" stop-opacity="0"/>
</linearGradient>
<linearGradient id="paint6_linear_175_190" x1="690.5" y1="1101" x2="690.5" y2="1399.82" gradientUnits="userSpaceOnUse">
<stop stop-color="#F7DD43"/>
<stop offset="1" stop-color="#F7DD43" stop-opacity="0"/>
</linearGradient>
<linearGradient id="paint7_linear_175_190" x1="690.5" y1="1101" x2="690.5" y2="1399.82" gradientUnits="userSpaceOnUse">
<stop stop-color="#F7DD43"/>
<stop offset="1" stop-color="#F7DD43" stop-opacity="0"/>
</linearGradient>
<linearGradient id="paint8_linear_175_190" x1="690.5" y1="1101" x2="690.5" y2="1399.82" gradientUnits="userSpaceOnUse">
<stop stop-color="#F7DD43"/>
<stop offset="1" stop-color="#F7DD43" stop-opacity="0"/>
</linearGradient>
<linearGradient id="paint9_linear_175_190" x1="690.5" y1="1101" x2="690.5" y2="1399.82" gradientUnits="userSpaceOnUse">
<stop stop-color="#F7DD43"/>
<stop offset="1" stop-color="#F7DD43" stop-opacity="0"/>
</linearGradient>
<linearGradient id="paint10_linear_175_190" x1="690.5" y1="1101" x2="690.5" y2="1399.82" gradientUnits="userSpaceOnUse">
<stop stop-color="#F7DD43"/>
<stop offset="1" stop-color="#F7DD43" stop-opacity="0"/>
</linearGradient>
<linearGradient id="paint11_linear_175_190" x1="690.5" y1="1101" x2="690.5" y2="1399.82" gradientUnits="userSpaceOnUse">
<stop stop-color="#F7DD43"/>
<stop offset="1" stop-color="#F7DD43" stop-opacity="0"/>
</linearGradient>
<linearGradient id="paint12_linear_175_190" x1="690.5" y1="1101" x2="690.5" y2="1399.82" gradientUnits="userSpaceOnUse">
<stop stop-color="#F7DD43"/>
<stop offset="1" stop-color="#F7DD43" stop-opacity="0"/>
</linearGradient>
<linearGradient id="paint13_linear_175_190" x1="690.5" y1="1101" x2="690.5" y2="1399.82" gradientUnits="userSpaceOnUse">
<stop stop-color="#F7DD43"/>
<stop offset="1" stop-color="#F7DD43" stop-opacity="0"/>
</linearGradient>
<linearGradient id="paint14_linear_175_190" x1="690.5" y1="1101" x2="690.5" y2="1399.82" gradientUnits="userSpaceOnUse">
<stop stop-color="#F7DD43"/>
<stop offset="1" stop-color="#F7DD43" stop-opacity="0"/>
</linearGradient>
<linearGradient id="paint15_linear_175_190" x1="690.5" y1="1101" x2="690.5" y2="1399.82" gradientUnits="userSpaceOnUse">
<stop stop-color="#F7DD43"/>
<stop offset="1" stop-color="#F7DD43" stop-opacity="0"/>
</linearGradient>
<linearGradient id="paint16_linear_175_190" x1="690.5" y1="1101" x2="690.5" y2="1399.82" gradientUnits="userSpaceOnUse">
<stop stop-color="#F7DD43"/>
<stop offset="1" stop-color="#F7DD43" stop-opacity="0"/>
</linearGradient>
<linearGradient id="paint17_linear_175_190" x1="690.5" y1="1101" x2="690.5" y2="1399.82" gradientUnits="userSpaceOnUse">
<stop stop-color="#F7DD43"/>
<stop offset="1" stop-color="#F7DD43" stop-opacity="0"/>
</linearGradient>
<linearGradient id="paint18_linear_175_190" x1="690.5" y1="1101" x2="690.5" y2="1399.82" gradientUnits="userSpaceOnUse">
<stop stop-color="#F7DD43"/>
<stop offset="1" stop-color="#F7DD43" stop-opacity="0"/>
</linearGradient>
<linearGradient id="paint19_linear_175_190" x1="690.5" y1="1101" x2="690.5" y2="1399.82" gradientUnits="userSpaceOnUse">
<stop stop-color="#F7DD43"/>
<stop offset="1" stop-color="#F7DD43" stop-opacity="0"/>
</linearGradient>
<linearGradient id="paint20_linear_175_190" x1="690.5" y1="1101" x2="690.5" y2="1399.82" gradientUnits="userSpaceOnUse">
<stop stop-color="#F7DD43"/>
<stop offset="1" stop-color="#F7DD43" stop-opacity="0"/>
</linearGradient>
<linearGradient id="paint21_linear_175_190" x1="690.5" y1="1101" x2="690.5" y2="1399.82" gradientUnits="userSpaceOnUse">
<stop stop-color="#F7DD43"/>
<stop offset="1" stop-color="#F7DD43" stop-opacity="0"/>
</linearGradient>
<linearGradient id="paint22_linear_175_190" x1="690.5" y1="1101" x2="690.5" y2="1399.82" gradientUnits="userSpaceOnUse">
<stop stop-color="#F7DD43"/>
<stop offset="1" stop-color="#F7DD43" stop-opacity="0"/>
</linearGradient>
<linearGradient id="paint23_linear_175_190" x1="690.5" y1="1101" x2="690.5" y2="1399.82" gradientUnits="userSpaceOnUse">
<stop stop-color="#F7DD43"/>
<stop offset="1" stop-color="#F7DD43" stop-opacity="0"/>
</linearGradient>
<linearGradient id="paint24_linear_175_190" x1="690.5" y1="1101" x2="690.5" y2="1399.82" gradientUnits="userSpaceOnUse">
<stop stop-color="#F7DD43"/>
<stop offset="1" stop-color="#F7DD43" stop-opacity="0"/>
</linearGradient>
<linearGradient id="paint25_linear_175_190" x1="690.5" y1="1101" x2="690.5" y2="1399.82" gradientUnits="userSpaceOnUse">
<stop stop-color="#F7DD43"/>
<stop offset="1" stop-color="#F7DD43" stop-opacity="0"/>
</linearGradient>
<linearGradient id="paint26_linear_175_190" x1="690.5" y1="1101" x2="690.5" y2="1399.82" gradientUnits="userSpaceOnUse">
<stop stop-color="#F7DD43"/>
<stop offset="1" stop-color="#F7DD43" stop-opacity="0"/>
</linearGradient>
<linearGradient id="paint27_linear_175_190" x1="690.5" y1="1101" x2="690.5" y2="1399.82" gradientUnits="userSpaceOnUse">
<stop stop-color="#F7DD43"/>
<stop offset="1" stop-color="#F7DD43" stop-opacity="0"/>
</linearGradient>
<linearGradient id="paint28_linear_175_190" x1="690.5" y1="1101" x2="690.5" y2="1399.82" gradientUnits="userSpaceOnUse">
<stop stop-color="#F7DD43"/>
<stop offset="1" stop-color="#F7DD43" stop-opacity="0"/>
</linearGradient>
<linearGradient id="paint29_linear_175_190" x1="690.5" y1="1101" x2="690.5" y2="1399.82" gradientUnits="userSpaceOnUse">
<stop stop-color="#F7DD43"/>
<stop offset="1" stop-color="#F7DD43" stop-opacity="0"/>
</linearGradient>
<linearGradient id="paint30_linear_175_190" x1="690.5" y1="1101" x2="690.5" y2="1399.82" gradientUnits="userSpaceOnUse">
<stop stop-color="#F7DD43"/>
<stop offset="1" stop-color="#F7DD43" stop-opacity="0"/>
</linearGradient>
<linearGradient id="paint31_linear_175_190" x1="690.5" y1="1101" x2="690.5" y2="1399.82" gradientUnits="userSpaceOnUse">
<stop stop-color="#F7DD43"/>
<stop offset="1" stop-color="#F7DD43" stop-opacity="0"/>
</linearGradient>
<linearGradient id="paint32_linear_175_190" x1="690.5" y1="1101" x2="690.5" y2="1399.82" gradientUnits="userSpaceOnUse">
<stop stop-color="#F7DD43"/>
<stop offset="1" stop-color="#F7DD43" stop-opacity="0"/>
</linearGradient>
<linearGradient id="paint33_linear_175_190" x1="690.5" y1="1101" x2="690.5" y2="1399.82" gradientUnits="userSpaceOnUse">
<stop stop-color="#F7DD43"/>
<stop offset="1" stop-color="#F7DD43" stop-opacity="0"/>
</linearGradient>
<linearGradient id="paint34_linear_175_190" x1="690.5" y1="1101" x2="690.5" y2="1399.82" gradientUnits="userSpaceOnUse">
<stop stop-color="#F7DD43"/>
<stop offset="1" stop-color="#F7DD43" stop-opacity="0"/>
</linearGradient>
<linearGradient id="paint35_linear_175_190" x1="690.5" y1="1101" x2="690.5" y2="1399.82" gradientUnits="userSpaceOnUse">
<stop stop-color="#F7DD43"/>
<stop offset="1" stop-color="#F7DD43" stop-opacity="0"/>
</linearGradient>
<linearGradient id="paint36_linear_175_190" x1="690.5" y1="1101" x2="690.5" y2="1399.82" gradientUnits="userSpaceOnUse">
<stop stop-color="#F7DD43"/>
<stop offset="1" stop-color="#F7DD43" stop-opacity="0"/>
</linearGradient>
<linearGradient id="paint37_linear_175_190" x1="690.5" y1="1101" x2="690.5" y2="1399.82" gradientUnits="userSpaceOnUse">
<stop stop-color="#F7DD43"/>
<stop offset="1" stop-color="#F7DD43" stop-opacity="0"/>
</linearGradient>
<linearGradient id="paint38_linear_175_190" x1="690.5" y1="1101" x2="690.5" y2="1399.82" gradientUnits="userSpaceOnUse">
<stop stop-color="#F7DD43"/>
<stop offset="1" stop-color="#F7DD43" stop-opacity="0"/>
</linearGradient>
<linearGradient id="paint39_linear_175_190" x1="690.5" y1="1101" x2="690.5" y2="1399.82" gradientUnits="userSpaceOnUse">
<stop stop-color="#F7DD43"/>
<stop offset="1" stop-color="#F7DD43" stop-opacity="0"/>
</linearGradient>
<linearGradient id="paint40_linear_175_190" x1="690.5" y1="1101" x2="690.5" y2="1399.82" gradientUnits="userSpaceOnUse">
<stop stop-color="#F7DD43"/>
<stop offset="1" stop-color="#F7DD43" stop-opacity="0"/>
</linearGradient>
<linearGradient id="paint41_linear_175_190" x1="690.5" y1="1101" x2="690.5" y2="1399.82" gradientUnits="userSpaceOnUse">
<stop stop-color="#F7DD43"/>
<stop offset="1" stop-color="#F7DD43" stop-opacity="0"/>
</linearGradient>
<linearGradient id="paint42_linear_175_190" x1="690.5" y1="1101" x2="690.5" y2="1399.82" gradientUnits="userSpaceOnUse">
<stop stop-color="#F7DD43"/>
<stop offset="1" stop-color="#F7DD43" stop-opacity="0"/>
</linearGradient>
<linearGradient id="paint43_linear_175_190" x1="690.5" y1="1101" x2="690.5" y2="1399.82" gradientUnits="userSpaceOnUse">
<stop stop-color="#F7DD43"/>
<stop offset="1" stop-color="#F7DD43" stop-opacity="0"/>
</linearGradient>
<linearGradient id="paint44_linear_175_190" x1="690.5" y1="1101" x2="690.5" y2="1399.82" gradientUnits="userSpaceOnUse">
<stop stop-color="#F7DD43"/>
<stop offset="1" stop-color="#F7DD43" stop-opacity="0"/>
</linearGradient>
<linearGradient id="paint45_linear_175_190" x1="690.5" y1="1101" x2="690.5" y2="1399.82" gradientUnits="userSpaceOnUse">
<stop stop-color="#F7DD43"/>
<stop offset="1" stop-color="#F7DD43" stop-opacity="0"/>
</linearGradient>
<linearGradient id="paint46_linear_175_190" x1="690.5" y1="1101" x2="690.5" y2="1399.82" gradientUnits="userSpaceOnUse">
<stop stop-color="#F7DD43"/>
<stop offset="1" stop-color="#F7DD43" stop-opacity="0"/>
</linearGradient>
<linearGradient id="paint47_linear_175_190" x1="690.5" y1="1434" x2="690.5" y2="1745.38" gradientUnits="userSpaceOnUse">
<stop stop-color="#F7DD43"/>
<stop offset="1" stop-color="#F7DD43" stop-opacity="0"/>
</linearGradient>
<linearGradient id="paint48_linear_175_190" x1="690.5" y1="1434" x2="690.5" y2="1745.38" gradientUnits="userSpaceOnUse">
<stop stop-color="#F7DD43"/>
<stop offset="1" stop-color="#F7DD43" stop-opacity="0"/>
</linearGradient>
<linearGradient id="paint49_linear_175_190" x1="690.5" y1="1434" x2="690.5" y2="1745.38" gradientUnits="userSpaceOnUse">
<stop stop-color="#F7DD43"/>
<stop offset="1" stop-color="#F7DD43" stop-opacity="0"/>
</linearGradient>
<linearGradient id="paint50_linear_175_190" x1="690.5" y1="1434" x2="690.5" y2="1745.38" gradientUnits="userSpaceOnUse">
<stop stop-color="#F7DD43"/>
<stop offset="1" stop-color="#F7DD43" stop-opacity="0"/>
</linearGradient>
<linearGradient id="paint51_linear_175_190" x1="690.5" y1="1434" x2="690.5" y2="1745.38" gradientUnits="userSpaceOnUse">
<stop stop-color="#F7DD43"/>
<stop offset="1" stop-color="#F7DD43" stop-opacity="0"/>
</linearGradient>
<linearGradient id="paint52_linear_175_190" x1="690.5" y1="1434" x2="690.5" y2="1745.38" gradientUnits="userSpaceOnUse">
<stop stop-color="#F7DD43"/>
<stop offset="1" stop-color="#F7DD43" stop-opacity="0"/>
</linearGradient>
<linearGradient id="paint53_linear_175_190" x1="690.5" y1="1434" x2="690.5" y2="1745.38" gradientUnits="userSpaceOnUse">
<stop stop-color="#F7DD43"/>
<stop offset="1" stop-color="#F7DD43" stop-opacity="0"/>
</linearGradient>
<linearGradient id="paint54_linear_175_190" x1="690.5" y1="1434" x2="690.5" y2="1745.38" gradientUnits="userSpaceOnUse">
<stop stop-color="#F7DD43"/>
<stop offset="1" stop-color="#F7DD43" stop-opacity="0"/>
</linearGradient>
<linearGradient id="paint55_linear_175_190" x1="690.5" y1="1434" x2="690.5" y2="1745.38" gradientUnits="userSpaceOnUse">
<stop stop-color="#F7DD43"/>
<stop offset="1" stop-color="#F7DD43" stop-opacity="0"/>
</linearGradient>
<linearGradient id="paint56_linear_175_190" x1="690.5" y1="1434" x2="690.5" y2="1745.38" gradientUnits="userSpaceOnUse">
<stop stop-color="#F7DD43"/>
<stop offset="1" stop-color="#F7DD43" stop-opacity="0"/>
</linearGradient>
<linearGradient id="paint57_linear_175_190" x1="690.5" y1="1434" x2="690.5" y2="1745.38" gradientUnits="userSpaceOnUse">
<stop stop-color="#F7DD43"/>
<stop offset="1" stop-color="#F7DD43" stop-opacity="0"/>
</linearGradient>
<linearGradient id="paint58_linear_175_190" x1="690.5" y1="1434" x2="690.5" y2="1745.38" gradientUnits="userSpaceOnUse">
<stop stop-color="#F7DD43"/>
<stop offset="1" stop-color="#F7DD43" stop-opacity="0"/>
</linearGradient>
<linearGradient id="paint59_linear_175_190" x1="690.5" y1="1434" x2="690.5" y2="1745.38" gradientUnits="userSpaceOnUse">
<stop stop-color="#F7DD43"/>
<stop offset="1" stop-color="#F7DD43" stop-opacity="0"/>
</linearGradient>
<linearGradient id="paint60_linear_175_190" x1="690.5" y1="1434" x2="690.5" y2="1745.38" gradientUnits="userSpaceOnUse">
<stop stop-color="#F7DD43"/>
<stop offset="1" stop-color="#F7DD43" stop-opacity="0"/>
</linearGradient>
<linearGradient id="paint61_linear_175_190" x1="690.5" y1="1434" x2="690.5" y2="1745.38" gradientUnits="userSpaceOnUse">
<stop stop-color="#F7DD43"/>
<stop offset="1" stop-color="#F7DD43" stop-opacity="0"/>
</linearGradient>
<linearGradient id="paint62_linear_175_190" x1="690.5" y1="1434" x2="690.5" y2="1745.38" gradientUnits="userSpaceOnUse">
<stop stop-color="#F7DD43"/>
<stop offset="1" stop-color="#F7DD43" stop-opacity="0"/>
</linearGradient>
<linearGradient id="paint63_linear_175_190" x1="690.5" y1="1434" x2="690.5" y2="1745.38" gradientUnits="userSpaceOnUse">
<stop stop-color="#F7DD43"/>
<stop offset="1" stop-color="#F7DD43" stop-opacity="0"/>
</linearGradient>
<linearGradient id="paint64_linear_175_190" x1="690.5" y1="1434" x2="690.5" y2="1745.38" gradientUnits="userSpaceOnUse">
<stop stop-color="#F7DD43"/>
<stop offset="1" stop-color="#F7DD43" stop-opacity="0"/>
</linearGradient>
<linearGradient id="paint65_linear_175_190" x1="690.5" y1="1434" x2="690.5" y2="1745.38" gradientUnits="userSpaceOnUse">
<stop stop-color="#F7DD43"/>
<stop offset="1" stop-color="#F7DD43" stop-opacity="0"/>
</linearGradient>
<linearGradient id="paint66_linear_175_190" x1="690.5" y1="1434" x2="690.5" y2="1745.38" gradientUnits="userSpaceOnUse">
<stop stop-color="#F7DD43"/>
<stop offset="1" stop-color="#F7DD43" stop-opacity="0"/>
</linearGradient>
<linearGradient id="paint67_linear_175_190" x1="690.5" y1="1434" x2="690.5" y2="1745.38" gradientUnits="userSpaceOnUse">
<stop stop-color="#F7DD43"/>
<stop offset="1" stop-color="#F7DD43" stop-opacity="0"/>
</linearGradient>
<linearGradient id="paint68_linear_175_190" x1="690.5" y1="1434" x2="690.5" y2="1745.38" gradientUnits="userSpaceOnUse">
<stop stop-color="#F7DD43"/>
<stop offset="1" stop-color="#F7DD43" stop-opacity="0"/>
</linearGradient>
<linearGradient id="paint69_linear_175_190" x1="690.5" y1="1434" x2="690.5" y2="1745.38" gradientUnits="userSpaceOnUse">
<stop stop-color="#F7DD43"/>
<stop offset="1" stop-color="#F7DD43" stop-opacity="0"/>
</linearGradient>
<linearGradient id="paint70_linear_175_190" x1="690.5" y1="1434" x2="690.5" y2="1745.38" gradientUnits="userSpaceOnUse">
<stop stop-color="#F7DD43"/>
<stop offset="1" stop-color="#F7DD43" stop-opacity="0"/>
</linearGradient>
<linearGradient id="paint71_linear_175_190" x1="690.5" y1="1434" x2="690.5" y2="1745.38" gradientUnits="userSpaceOnUse">
<stop stop-color="#F7DD43"/>
<stop offset="1" stop-color="#F7DD43" stop-opacity="0"/>
</linearGradient>
<linearGradient id="paint72_linear_175_190" x1="690.5" y1="1434" x2="690.5" y2="1745.38" gradientUnits="userSpaceOnUse">
<stop stop-color="#F7DD43"/>
<stop offset="1" stop-color="#F7DD43" stop-opacity="0"/>
</linearGradient>
<linearGradient id="paint73_linear_175_190" x1="690.5" y1="1434" x2="690.5" y2="1745.38" gradientUnits="userSpaceOnUse">
<stop stop-color="#F7DD43"/>
<stop offset="1" stop-color="#F7DD43" stop-opacity="0"/>
</linearGradient>
<linearGradient id="paint74_linear_175_190" x1="690.5" y1="1434" x2="690.5" y2="1745.38" gradientUnits="userSpaceOnUse">
<stop stop-color="#F7DD43"/>
<stop offset="1" stop-color="#F7DD43" stop-opacity="0"/>
</linearGradient>
<linearGradient id="paint75_linear_175_190" x1="690.5" y1="1434" x2="690.5" y2="1745.38" gradientUnits="userSpaceOnUse">
<stop stop-color="#F7DD43"/>
<stop offset="1" stop-color="#F7DD43" stop-opacity="0"/>
</linearGradient>
<linearGradient id="paint76_linear_175_190" x1="690.5" y1="1434" x2="690.5" y2="1745.38" gradientUnits="userSpaceOnUse">
<stop stop-color="#F7DD43"/>
<stop offset="1" stop-color="#F7DD43" stop-opacity="0"/>
</linearGradient>
<linearGradient id="paint77_linear_175_190" x1="690.5" y1="1434" x2="690.5" y2="1745.38" gradientUnits="userSpaceOnUse">
<stop stop-color="#F7DD43"/>
<stop offset="1" stop-color="#F7DD43" stop-opacity="0"/>
</linearGradient>
<linearGradient id="paint78_linear_175_190" x1="690.5" y1="1434" x2="690.5" y2="1745.38" gradientUnits="userSpaceOnUse">
<stop stop-color="#F7DD43"/>
<stop offset="1" stop-color="#F7DD43" stop-opacity="0"/>
</linearGradient>
<linearGradient id="paint79_linear_175_190" x1="690.5" y1="1434" x2="690.5" y2="1745.38" gradientUnits="userSpaceOnUse">
<stop stop-color="#F7DD43"/>
<stop offset="1" stop-color="#F7DD43" stop-opacity="0"/>
</linearGradient>
<linearGradient id="paint80_linear_175_190" x1="690.5" y1="1434" x2="690.5" y2="1745.38" gradientUnits="userSpaceOnUse">
<stop stop-color="#F7DD43"/>
<stop offset="1" stop-color="#F7DD43" stop-opacity="0"/>
</linearGradient>
<linearGradient id="paint81_linear_175_190" x1="690.5" y1="1434" x2="690.5" y2="1745.38" gradientUnits="userSpaceOnUse">
<stop stop-color="#F7DD43"/>
<stop offset="1" stop-color="#F7DD43" stop-opacity="0"/>
</linearGradient>
<linearGradient id="paint82_linear_175_190" x1="690.5" y1="1434" x2="690.5" y2="1745.38" gradientUnits="userSpaceOnUse">
<stop stop-color="#F7DD43"/>
<stop offset="1" stop-color="#F7DD43" stop-opacity="0"/>
</linearGradient>
<linearGradient id="paint83_linear_175_190" x1="690.5" y1="1434" x2="690.5" y2="1745.38" gradientUnits="userSpaceOnUse">
<stop stop-color="#F7DD43"/>
<stop offset="1" stop-color="#F7DD43" stop-opacity="0"/>
</linearGradient>
<linearGradient id="paint84_linear_175_190" x1="690.5" y1="1434" x2="690.5" y2="1745.38" gradientUnits="userSpaceOnUse">
<stop stop-color="#F7DD43"/>
<stop offset="1" stop-color="#F7DD43" stop-opacity="0"/>
</linearGradient>
<linearGradient id="paint85_linear_175_190" x1="690.5" y1="1434" x2="690.5" y2="1745.38" gradientUnits="userSpaceOnUse">
<stop stop-color="#F7DD43"/>
<stop offset="1" stop-color="#F7DD43" stop-opacity="0"/>
</linearGradient>
<linearGradient id="paint86_linear_175_190" x1="690.5" y1="1434" x2="690.5" y2="1745.38" gradientUnits="userSpaceOnUse">
<stop stop-color="#F7DD43"/>
<stop offset="1" stop-color="#F7DD43" stop-opacity="0"/>
</linearGradient>
<linearGradient id="paint87_linear_175_190" x1="690.5" y1="1434" x2="690.5" y2="1745.38" gradientUnits="userSpaceOnUse">
<stop stop-color="#F7DD43"/>
<stop offset="1" stop-color="#F7DD43" stop-opacity="0"/>
</linearGradient>
<linearGradient id="paint88_linear_175_190" x1="690.5" y1="1434" x2="690.5" y2="1745.38" gradientUnits="userSpaceOnUse">
<stop stop-color="#F7DD43"/>
<stop offset="1" stop-color="#F7DD43" stop-opacity="0"/>
</linearGradient>
<linearGradient id="paint89_linear_175_190" x1="690.5" y1="1434" x2="690.5" y2="1745.38" gradientUnits="userSpaceOnUse">
<stop stop-color="#F7DD43"/>
<stop offset="1" stop-color="#F7DD43" stop-opacity="0"/>
</linearGradient>
<linearGradient id="paint90_linear_175_190" x1="690.5" y1="1434" x2="690.5" y2="1745.38" gradientUnits="userSpaceOnUse">
<stop stop-color="#F7DD43"/>
<stop offset="1" stop-color="#F7DD43" stop-opacity="0"/>
</linearGradient>
<linearGradient id="paint91_linear_175_190" x1="690.5" y1="1434" x2="690.5" y2="1745.38" gradientUnits="userSpaceOnUse">
<stop stop-color="#F7DD43"/>
<stop offset="1" stop-color="#F7DD43" stop-opacity="0"/>
</linearGradient>
<linearGradient id="paint92_linear_175_190" x1="690.5" y1="1434" x2="690.5" y2="1745.38" gradientUnits="userSpaceOnUse">
<stop stop-color="#F7DD43"/>
<stop offset="1" stop-color="#F7DD43" stop-opacity="0"/>
</linearGradient>
<linearGradient id="paint93_linear_175_190" x1="690.5" y1="1434" x2="690.5" y2="1745.38" gradientUnits="userSpaceOnUse">
<stop stop-color="#F7DD43"/>
<stop offset="1" stop-color="#F7DD43" stop-opacity="0"/>
</linearGradient>
</defs>
</svg>
